#define face_width 48
#define face_height 48
static char face_bits[] = {
   0x00, 0x40, 0x00, 0x00, 0x00, 0x00, 0x00, 0x40, 0x00, 0x00, 0x00, 0x00,
   0x00, 0x40, 0xa7, 0x39, 0x0d, 0x00, 0x00, 0x40, 0x68, 0x42, 0x13, 0x00,
   0x00, 0x40, 0x2e, 0x72, 0x11, 0x00, 0x00, 0x40, 0x29, 0x4a, 0x11, 0x00,
   0x00, 0x48, 0x69, 0x4a, 0x11, 0x00, 0x00, 0x30, 0xb6, 0xb1, 0x11, 0x00,
   0x00, 0x00, 0x20, 0x00, 0x00, 0x00, 0x00, 0x00, 0x20, 0x00, 0x00, 0x00,
   0x00, 0x00, 0x00, 0x00, 0x00, 0x00, 0x00, 0x00, 0x00, 0x00, 0x00, 0x00,
   0xff, 0xff, 0xff, 0xff, 0xff, 0xff, 0x01, 0x00, 0x00, 0x00, 0x00, 0x80,
   0x01, 0x00, 0x00, 0x00, 0x00, 0x80, 0x01, 0x00, 0x00, 0x00, 0x00, 0x80,
   0x01, 0x00, 0x00, 0x00, 0x00, 0x80, 0x01, 0x00, 0xa0, 0x02, 0x00, 0x80,
   0x01, 0x00, 0x54, 0x15, 0x00, 0x80, 0x01, 0x00, 0xaa, 0x2a, 0x00, 0x80,
   0x01, 0x00, 0x55, 0x55, 0x00, 0x80, 0x01, 0x80, 0xaa, 0xaa, 0x00, 0x80,
   0x01, 0x40, 0x55, 0x55, 0x01, 0x80, 0x01, 0x80, 0xaa, 0xaa, 0x02, 0x80,
   0x01, 0x40, 0x55, 0x55, 0x05, 0x80, 0x01, 0xa0, 0xaa, 0xaa, 0x02, 0x80,
   0x01, 0x40, 0x55, 0x55, 0x05, 0x80, 0x01, 0xa0, 0xaa, 0xaa, 0x02, 0x80,
   0x01, 0x40, 0x55, 0x55, 0x05, 0x80, 0x01, 0xa0, 0xaa, 0xaa, 0x02, 0x80,
   0x01, 0x40, 0x55, 0x55, 0x05, 0x80, 0x01, 0xa0, 0xaa, 0xaa, 0x02, 0x80,
   0x01, 0x40, 0x55, 0x55, 0x01, 0x80, 0x01, 0x80, 0xaa, 0xaa, 0x02, 0x80,
   0x01, 0x00, 0x55, 0x55, 0x01, 0x80, 0x01, 0x00, 0xaa, 0xaa, 0x00, 0x80,
   0x01, 0x00, 0x54, 0x55, 0x00, 0x80, 0x01, 0x00, 0xa8, 0x2a, 0x00, 0x80,
   0x01, 0x00, 0x40, 0x05, 0x00, 0x80, 0x01, 0x00, 0x00, 0x00, 0x00, 0x80,
   0x01, 0x00, 0x00, 0x00, 0x00, 0x80, 0x01, 0x00, 0x00, 0x00, 0x00, 0x80,
   0x01, 0x00, 0x00, 0x00, 0x00, 0x80, 0xff, 0xff, 0xff, 0xff, 0xff, 0xff,
   0x00, 0x00, 0x00, 0x00, 0x00, 0x00, 0x00, 0x00, 0x00, 0x00, 0x00, 0x00,
   0x00, 0x00, 0x00, 0x00, 0x00, 0x00, 0x00, 0x00, 0x00, 0x00, 0x00, 0x00};
