999
DXF created from Surfer v8.02
  0
SECTION
  2
HEADER
  9
$ACADVER
  1
AC1006
  0
ENDSEC
  0
SECTION
  2
ENTITIES
  0
POLYLINE
  8
GSLAYER
 62
7
 40
0.0
 41
0.0
 70
128
 30
1.5
 66
1
  0
VERTEX
  8
GSLAYER
 10
14.7777777778
 20
-26.5896617199
  0
VERTEX
  8
GSLAYER
 10
14.7258696778
 20
-26.683897037
  0
VERTEX
  8
GSLAYER
 10
14.6963018301
 20
-26.7605363193
  0
VERTEX
  8
GSLAYER
 10
14.6915138813
 20
-26.8206408142
  0
VERTEX
  8
GSLAYER
 10
14.7190455203
 20
-26.8617547201
  0
VERTEX
  8
GSLAYER
 10
14.7777777778
 20
-26.8846468164
  0
SEQEND
  0
POLYLINE
  8
GSLAYER
 62
7
 40
0.0
 41
0.0
 70
128
 30
2
 66
1
  0
VERTEX
  8
GSLAYER
 10
14.6171102646
 20
-25.6135068718
  0
VERTEX
  8
GSLAYER
 10
14.7160633848
 20
-25.8530016148
  0
VERTEX
  8
GSLAYER
 10
14.64304206
 20
-26.1329944545
  0
VERTEX
  8
GSLAYER
 10
14.4881426026
 20
-26.4238830013
  0
VERTEX
  8
GSLAYER
 10
14.3548518291
 20
-26.6894461917
  0
VERTEX
  8
GSLAYER
 10
14.3496400666
 20
-26.8893353344
  0
VERTEX
  8
GSLAYER
 10
14.513800013
 20
-27.0082616357
  0
VERTEX
  8
GSLAYER
 10
14.7777777778
 20
-27.0734819675
  0
SEQEND
  0
POLYLINE
  8
GSLAYER
 62
7
 40
0.0
 41
0.0
 70
128
 30
2
 66
1
  0
VERTEX
  8
GSLAYER
 10
13.583298452
 20
-21.3807354227
  0
VERTEX
  8
GSLAYER
 10
13.5101639618
 20
-21.426200979
  0
VERTEX
  8
GSLAYER
 10
13.4805740493
 20
-21.4697186791
  0
VERTEX
  8
GSLAYER
 10
13.4999278031
 20
-21.5110470085
  0
VERTEX
  8
GSLAYER
 10
13.5615789758
 20
-21.5504832702
  0
VERTEX
  8
GSLAYER
 10
13.6666666667
 20
-21.5879765095
  0
SEQEND
  0
POLYLINE
  8
GSLAYER
 62
7
 40
0.0
 41
0.0
 70
128
 30
2.5
 66
1
  0
VERTEX
  8
GSLAYER
 10
14.1553841901
 20
-25.1659877535
  0
VERTEX
  8
GSLAYER
 10
14.4275548381
 20
-25.5311784399
  0
VERTEX
  8
GSLAYER
 10
14.4596066473
 20
-25.9198952305
  0
VERTEX
  8
GSLAYER
 10
14.2341706598
 20
-26.3339277495
  0
VERTEX
  8
GSLAYER
 10
13.9998869905
 20
-26.7158670417
  0
VERTEX
  8
GSLAYER
 10
14.0108213259
 20
-26.997092684
  0
VERTEX
  8
GSLAYER
 10
14.3015280044
 20
-27.1705004571
  0
VERTEX
  8
GSLAYER
 10
14.7777777778
 20
-27.2623171186
  0
SEQEND
  0
POLYLINE
  8
GSLAYER
 62
7
 40
0.0
 41
0.0
 70
128
 30
2.5
 66
1
  0
VERTEX
  8
GSLAYER
 10
13.3309501332
 20
-21.1361516676
  0
VERTEX
  8
GSLAYER
 10
13.0364439161
 20
-21.3192374995
  0
VERTEX
  8
GSLAYER
 10
12.9172879178
 20
-21.4944794844
  0
VERTEX
  8
GSLAYER
 10
12.9952237971
 20
-21.6609050645
  0
VERTEX
  8
GSLAYER
 10
13.2434876959
 20
-21.8197114529
  0
VERTEX
  8
GSLAYER
 10
13.6666666667
 20
-21.9706934595
  0
SEQEND
  0
POLYLINE
  8
GSLAYER
 62
7
 40
0.0
 41
0.0
 70
128
 30
3
 66
1
  0
VERTEX
  8
GSLAYER
 10
13.6936581156
 20
-24.7184686351
  0
VERTEX
  8
GSLAYER
 10
14.0017380096
 20
-25.051370328
  0
VERTEX
  8
GSLAYER
 10
14.1936996018
 20
-25.3797698648
  0
VERTEX
  8
GSLAYER
 10
14.2716517967
 20
-25.7216066199
  0
VERTEX
  8
GSLAYER
 10
14.2157131443
 20
-26.0893641865
  0
VERTEX
  8
GSLAYER
 10
14.0410552885
 20
-26.4453802391
  0
VERTEX
  8
GSLAYER
 10
13.7542280072
 20
-26.7270963215
  0
VERTEX
  8
GSLAYER
 10
13.6194528819
 20
-26.9046827133
  0
VERTEX
  8
GSLAYER
 10
13.9651665614
 20
-27.0774667444
  0
VERTEX
  8
GSLAYER
 10
14.2447588241
 20
-27.2234000925
  0
VERTEX
  8
GSLAYER
 10
14.5020692039
 20
-27.3476272452
  0
VERTEX
  8
GSLAYER
 10
14.7777777778
 20
-27.4511522698
  0
SEQEND
  0
POLYLINE
  8
GSLAYER
 62
7
 40
0.0
 41
0.0
 70
129
 30
3
 66
1
  0
VERTEX
  8
GSLAYER
 10
12.8166387586
 20
-25.7692307692
  0
VERTEX
  8
GSLAYER
 10
12.6962663532
 20
-25.5539611565
  0
VERTEX
  8
GSLAYER
 10
12.5604344696
 20
-25.4690596028
  0
VERTEX
  8
GSLAYER
 10
12.3881897652
 20
-25.5427248841
  0
VERTEX
  8
GSLAYER
 10
12.2583871659
 20
-25.7112938779
  0
VERTEX
  8
GSLAYER
 10
12.2849478083
 20
-25.9136207809
  0
VERTEX
  8
GSLAYER
 10
12.4320598362
 20
-26.0864939228
  0
VERTEX
  8
GSLAYER
 10
12.5911273156
 20
-26.1405644047
  0
VERTEX
  8
GSLAYER
 10
12.7098243334
 20
-26.0217492187
  0
VERTEX
  8
GSLAYER
 10
12.8166387586
 20
-25.7692307692
  0
SEQEND
  0
POLYLINE
  8
GSLAYER
 62
7
 40
0.0
 41
0.0
 70
128
 30
3
 66
1
  0
VERTEX
  8
GSLAYER
 10
13.0786018144
 20
-20.8915679124
  0
VERTEX
  8
GSLAYER
 10
12.8587178373
 20
-20.9971440189
  0
VERTEX
  8
GSLAYER
 10
12.6733807236
 20
-21.1671615905
  0
VERTEX
  8
GSLAYER
 10
12.4861411436
 20
-21.4185740438
  0
VERTEX
  8
GSLAYER
 10
12.6549930492
 20
-21.6123303928
  0
VERTEX
  8
GSLAYER
 10
12.8699727416
 20
-21.7812959055
  0
VERTEX
  8
GSLAYER
 10
13.068025302
 20
-21.9421301554
  0
VERTEX
  8
GSLAYER
 10
13.2599573694
 20
-22.0931045271
  0
VERTEX
  8
GSLAYER
 10
13.4559696129
 20
-22.2315142111
  0
VERTEX
  8
GSLAYER
 10
13.6666666667
 20
-22.3534104094
  0
SEQEND
  0
POLYLINE
  8
GSLAYER
 62
7
 40
0.0
 41
0.0
 70
128
 30
3.5
 66
1
  0
VERTEX
  8
GSLAYER
 10
7
 20
-16.4888485224
  0
VERTEX
  8
GSLAYER
 10
7.15771498912
 20
-16.2321293975
  0
VERTEX
  8
GSLAYER
 10
7.23626199582
 20
-15.9550129999
  0
VERTEX
  8
GSLAYER
 10
7.22928405431
 20
-15.6559604344
  0
VERTEX
  8
GSLAYER
 10
7.15435981348
 20
-15.3379568888
  0
VERTEX
  8
GSLAYER
 10
7.01538261712
 20
-15
  0
SEQEND
  0
POLYLINE
  8
GSLAYER
 62
7
 40
0.0
 41
0.0
 70
129
 30
3.5
 66
1
  0
VERTEX
  8
GSLAYER
 10
12.559531234
 20
-27.9230769231
  0
VERTEX
  8
GSLAYER
 10
12.5582195531
 20
-27.917787401
  0
VERTEX
  8
GSLAYER
 10
12.5568797043
 20
-27.9146894423
  0
VERTEX
  8
GSLAYER
 10
12.5551190032
 20
-27.9143857406
  0
VERTEX
  8
GSLAYER
 10
12.5529547049
 20
-27.9170835541
  0
VERTEX
  8
GSLAYER
 10
12.5514830798
 20
-27.9209681647
  0
VERTEX
  8
GSLAYER
 10
12.5521460365
 20
-27.9243086229
  0
VERTEX
  8
GSLAYER
 10
12.5547290846
 20
-27.9261232356
  0
VERTEX
  8
GSLAYER
 10
12.5572658585
 20
-27.9257024913
  0
VERTEX
  8
GSLAYER
 10
12.559531234
 20
-27.9230769231
  0
SEQEND
  0
POLYLINE
  8
GSLAYER
 62
7
 40
0.0
 41
0.0
 70
129
 30
3.5
 66
1
  0
VERTEX
  8
GSLAYER
 10
12.0061774388
 20
-26.8461538462
  0
VERTEX
  8
GSLAYER
 10
11.7979824117
 20
-26.5901306379
  0
VERTEX
  8
GSLAYER
 10
11.5967499187
 20
-26.4723371522
  0
VERTEX
  8
GSLAYER
 10
11.3654003773
 20
-26.5200113517
  0
VERTEX
  8
GSLAYER
 10
11.1455322228
 20
-26.717049127
  0
VERTEX
  8
GSLAYER
 10
11.1371639556
 20
-26.9509899418
  0
VERTEX
  8
GSLAYER
 10
11.3546197876
 20
-27.1396257846
  0
VERTEX
  8
GSLAYER
 10
11.5909264415
 20
-27.18993658
  0
VERTEX
  8
GSLAYER
 10
11.7957603016
 20
-27.0841428982
  0
VERTEX
  8
GSLAYER
 10
12.0061774388
 20
-26.8461538462
  0
SEQEND
  0
POLYLINE
  8
GSLAYER
 62
7
 40
0.0
 41
0.0
 70
128
 30
3.5
 66
1
  0
VERTEX
  8
GSLAYER
 10
14.0567938305
 20
-25.7692307692
  0
VERTEX
  8
GSLAYER
 10
13.8494368472
 20
-26.2031294684
  0
VERTEX
  8
GSLAYER
 10
13.520043995
 20
-26.5143682623
  0
VERTEX
  8
GSLAYER
 10
13.0987425904
 20
-26.7078328513
  0
VERTEX
  8
GSLAYER
 10
12.942283559
 20
-26.894390269
  0
VERTEX
  8
GSLAYER
 10
13.2367005191
 20
-27.1263701777
  0
VERTEX
  8
GSLAYER
 10
13.6859563851
 20
-27.3453983691
  0
VERTEX
  8
GSLAYER
 10
14.0749832072
 20
-27.4966663099
  0
VERTEX
  8
GSLAYER
 10
14.4203581137
 20
-27.5908667702
  0
VERTEX
  8
GSLAYER
 10
14.7777777778
 20
-27.6399874209
  0
SEQEND
  0
POLYLINE
  8
GSLAYER
 62
7
 40
0.0
 41
0.0
 70
129
 30
3.5
 66
1
  0
VERTEX
  8
GSLAYER
 10
13.1189676331
 20
-25.7692307692
  0
VERTEX
  8
GSLAYER
 10
12.8592065064
 20
-25.3046834589
  0
VERTEX
  8
GSLAYER
 10
12.5660841498
 20
-25.1214676861
  0
VERTEX
  8
GSLAYER
 10
12.1943836894
 20
-25.2804358186
  0
VERTEX
  8
GSLAYER
 10
11.9142724019
 20
-25.6442041725
  0
VERTEX
  8
GSLAYER
 10
11.9715897113
 20
-26.0808213868
  0
VERTEX
  8
GSLAYER
 10
12.2890543827
 20
-26.4538780021
  0
VERTEX
  8
GSLAYER
 10
12.6323186678
 20
-26.5705609683
  0
VERTEX
  8
GSLAYER
 10
12.8884643433
 20
-26.3141602882
  0
VERTEX
  8
GSLAYER
 10
13.1189676331
 20
-25.7692307692
  0
SEQEND
  0
POLYLINE
  8
GSLAYER
 62
7
 40
0.0
 41
0.0
 70
129
 30
3.5
 66
1
  0
VERTEX
  8
GSLAYER
 10
10.7274282514
 20
-24.6923076923
  0
VERTEX
  8
GSLAYER
 10
10.5859659053
 20
-24.4715858623
  0
VERTEX
  8
GSLAYER
 10
10.4693842686
 20
-24.3518021633
  0
VERTEX
  8
GSLAYER
 10
10.3642663776
 20
-24.3451840399
  0
VERTEX
  8
GSLAYER
 10
10.2652490106
 20
-24.4794376444
  0
VERTEX
  8
GSLAYER
 10
10.2253701562
 20
-24.6715369945
  0
VERTEX
  8
GSLAYER
 10
10.3222958621
 20
-24.8026997964
  0
VERTEX
  8
GSLAYER
 10
10.4512416245
 20
-24.8358685616
  0
VERTEX
  8
GSLAYER
 10
10.5826205711
 20
-24.7904471954
  0
VERTEX
  8
GSLAYER
 10
10.7274282514
 20
-24.6923076923
  0
SEQEND
  0
POLYLINE
  8
GSLAYER
 62
7
 40
0.0
 41
0.0
 70
128
 30
3.5
 66
1
  0
VERTEX
  8
GSLAYER
 10
13.6666666667
 20
-24.2036579448
  0
VERTEX
  8
GSLAYER
 10
13.3649851162
 20
-24.401960462
  0
VERTEX
  8
GSLAYER
 10
13.2080157412
 20
-24.58735294
  0
VERTEX
  8
GSLAYER
 10
13.2062323831
 20
-24.758900988
  0
VERTEX
  8
GSLAYER
 10
13.3643102039
 20
-24.9161875264
  0
VERTEX
  8
GSLAYER
 10
13.6666666667
 20
-25.0606027018
  0
SEQEND
  0
POLYLINE
  8
GSLAYER
 62
7
 40
0.0
 41
0.0
 70
129
 30
3.5
 66
1
  0
VERTEX
  8
GSLAYER
 10
11.3010892005
 20
-22.5384615385
  0
VERTEX
  8
GSLAYER
 10
11.0007867813
 20
-22.3329253872
  0
VERTEX
  8
GSLAYER
 10
10.7140171002
 20
-22.2292739503
  0
VERTEX
  8
GSLAYER
 10
10.3894170098
 20
-22.2518421391
  0
VERTEX
  8
GSLAYER
 10
10.0236536049
 20
-22.4256049601
  0
VERTEX
  8
GSLAYER
 10
10.0058608965
 20
-22.6078015056
  0
VERTEX
  8
GSLAYER
 10
10.3766085617
 20
-22.706794827
  0
VERTEX
  8
GSLAYER
 10
10.7118984563
 20
-22.7186939518
  0
VERTEX
  8
GSLAYER
 10
11.0031296628
 20
-22.6601821682
  0
VERTEX
  8
GSLAYER
 10
11.3010892005
 20
-22.5384615385
  0
SEQEND
  0
POLYLINE
  8
GSLAYER
 62
7
 40
0.0
 41
0.0
 70
128
 30
3.5
 66
1
  0
VERTEX
  8
GSLAYER
 10
12.8262534956
 20
-20.6469841572
  0
VERTEX
  8
GSLAYER
 10
12.6197620516
 20
-20.7986091051
  0
VERTEX
  8
GSLAYER
 10
12.4182686951
 20
-21.0346852693
  0
VERTEX
  8
GSLAYER
 10
12.2689603197
 20
-21.3214259571
  0
VERTEX
  8
GSLAYER
 10
12.3140839078
 20
-21.5674433756
  0
VERTEX
  8
GSLAYER
 10
12.5343856182
 20
-21.7512608119
  0
VERTEX
  8
GSLAYER
 10
12.77443582
 20
-21.9022476684
  0
VERTEX
  8
GSLAYER
 10
13.0005765923
 20
-22.0402004809
  0
VERTEX
  8
GSLAYER
 10
13.209191935
 20
-22.1856524092
  0
VERTEX
  8
GSLAYER
 10
13.3943810088
 20
-22.3601230111
  0
VERTEX
  8
GSLAYER
 10
13.5472416302
 20
-22.5887797522
  0
VERTEX
  8
GSLAYER
 10
13.6666666667
 20
-22.8755624413
  0
SEQEND
  0
POLYLINE
  8
GSLAYER
 62
7
 40
0.0
 41
0.0
 70
128
 30
3.5
 66
1
  0
VERTEX
  8
GSLAYER
 10
11.4444444444
 20
-17.1484695692
  0
VERTEX
  8
GSLAYER
 10
11.3380381624
 20
-17.2672152232
  0
VERTEX
  8
GSLAYER
 10
11.2716757038
 20
-17.452192962
  0
VERTEX
  8
GSLAYER
 10
11.2406919594
 20
-17.6729852733
  0
VERTEX
  8
GSLAYER
 10
11.2436950944
 20
-17.9024230994
  0
VERTEX
  8
GSLAYER
 10
11.2824585368
 20
-18.114142556
  0
VERTEX
  8
GSLAYER
 10
11.3616479617
 20
-18.2807955063
  0
VERTEX
  8
GSLAYER
 10
11.4713134104
 20
-18.3983347774
  0
VERTEX
  8
GSLAYER
 10
11.5968406709
 20
-18.4753115977
  0
VERTEX
  8
GSLAYER
 10
11.7375988077
 20
-18.5149034598
  0
SEQEND
  0
POLYLINE
  8
GSLAYER
 62
7
 40
0.0
 41
0.0
 70
128
 30
4
 66
1
  0
VERTEX
  8
GSLAYER
 10
7
 20
-17.1309320448
  0
VERTEX
  8
GSLAYER
 10
7.26664162353
 20
-16.7757459094
  0
VERTEX
  8
GSLAYER
 10
7.46047584588
 20
-16.3863392216
  0
VERTEX
  8
GSLAYER
 10
7.56370634472
 20
-15.9611186797
  0
VERTEX
  8
GSLAYER
 10
7.57795308467
 20
-15.4975615447
  0
VERTEX
  8
GSLAYER
 10
7.56894778302
 20
-15
  0
SEQEND
  0
POLYLINE
  8
GSLAYER
 62
7
 40
0.0
 41
0.0
 70
128
 30
4
 66
1
  0
VERTEX
  8
GSLAYER
 10
13.332516977
 20
-27.9230769231
  0
VERTEX
  8
GSLAYER
 10
13.6067243963
 20
-27.7692873418
  0
VERTEX
  8
GSLAYER
 10
13.8886403095
 20
-27.7017318721
  0
VERTEX
  8
GSLAYER
 10
14.1781095716
 20
-27.7113055598
  0
VERTEX
  8
GSLAYER
 10
14.4743089101
 20
-27.7626847103
  0
VERTEX
  8
GSLAYER
 10
14.7777777778
 20
-27.8288225721
  0
SEQEND
  0
POLYLINE
  8
GSLAYER
 62
7
 40
0.0
 41
0.0
 70
128
 30
4
 66
1
  0
VERTEX
  8
GSLAYER
 10
13.8414443426
 20
-25.7692307692
  0
VERTEX
  8
GSLAYER
 10
13.6055918358
 20
-26.031252742
  0
VERTEX
  8
GSLAYER
 10
13.3311009306
 20
-25.6190478763
  0
VERTEX
  8
GSLAYER
 10
13.062318355
 20
-25.1985503441
  0
VERTEX
  8
GSLAYER
 10
12.791508068
 20
-24.8848529914
  0
VERTEX
  8
GSLAYER
 10
12.5052212465
 20
-24.7749182837
  0
VERTEX
  8
GSLAYER
 10
12.1985516461
 20
-24.9299420493
  0
VERTEX
  8
GSLAYER
 10
11.8930335768
 20
-25.2483670565
  0
VERTEX
  8
GSLAYER
 10
11.615112176
 20
-25.6338608609
  0
VERTEX
  8
GSLAYER
 10
11.3659998098
 20
-26.0068705449
  0
VERTEX
  8
GSLAYER
 10
11.0157235592
 20
-26.3207509757
  0
VERTEX
  8
GSLAYER
 10
10.6847565158
 20
-26.6034811436
  0
VERTEX
  8
GSLAYER
 10
10.556721212
 20
-26.8868675649
  0
VERTEX
  8
GSLAYER
 10
10.7436640222
 20
-27.1862629431
  0
VERTEX
  8
GSLAYER
 10
11.0996725979
 20
-27.4773205585
  0
VERTEX
  8
GSLAYER
 10
11.4754317154
 20
-27.7258827363
  0
VERTEX
  8
GSLAYER
 10
11.7917445204
 20
-27.9435700154
  0
VERTEX
  8
GSLAYER
 10
12.1000556245
 20
-28.235747543
  0
VERTEX
  8
GSLAYER
 10
12.4092118204
 20
-28.4906269355
  0
VERTEX
  8
GSLAYER
 10
12.7177754988
 20
-28.5321850298
  0
VERTEX
  8
GSLAYER
 10
13.0253894549
 20
-28.3217677312
  0
VERTEX
  8
GSLAYER
 10
13.332516977
 20
-27.9230769231
  0
SEQEND
  0
POLYLINE
  8
GSLAYER
 62
7
 40
0.0
 41
0.0
 70
129
 30
4
 66
1
  0
VERTEX
  8
GSLAYER
 10
11.4207458135
 20
-24.6923076923
  0
VERTEX
  8
GSLAYER
 10
11.0304136534
 20
-24.083277579
  0
VERTEX
  8
GSLAYER
 10
10.7087339746
 20
-23.7527625604
  0
VERTEX
  8
GSLAYER
 10
10.4186858128
 20
-23.7345014013
  0
VERTEX
  8
GSLAYER
 10
10.145470616
 20
-24.10494273
  0
VERTEX
  8
GSLAYER
 10
10.035434272
 20
-24.6349958241
  0
VERTEX
  8
GSLAYER
 10
10.3028780207
 20
-24.9969088079
  0
VERTEX
  8
GSLAYER
 10
10.6586736039
 20
-25.0884302347
  0
VERTEX
  8
GSLAYER
 10
11.0211829884
 20
-24.9631006295
  0
VERTEX
  8
GSLAYER
 10
11.4207458135
 20
-24.6923076923
  0
SEQEND
  0
POLYLINE
  8
GSLAYER
 62
7
 40
0.0
 41
0.0
 70
128
 30
4
 66
1
  0
VERTEX
  8
GSLAYER
 10
13.6666666667
 20
-23.6846693102
  0
VERTEX
  8
GSLAYER
 10
13.0445730077
 20
-24.0935863896
  0
VERTEX
  8
GSLAYER
 10
12.7208884711
 20
-24.4758818425
  0
VERTEX
  8
GSLAYER
 10
12.7172110312
 20
-24.829628874
  0
VERTEX
  8
GSLAYER
 10
13.0431812796
 20
-25.1539674291
  0
VERTEX
  8
GSLAYER
 10
13.6666666667
 20
-25.4517641116
  0
SEQEND
  0
POLYLINE
  8
GSLAYER
 62
7
 40
0.0
 41
0.0
 70
129
 30
4
 66
1
  0
VERTEX
  8
GSLAYER
 10
13.0417967102
 20
-23.6153846154
  0
VERTEX
  8
GSLAYER
 10
12.8608371374
 20
-23.5857237581
  0
VERTEX
  8
GSLAYER
 10
12.67552542
 20
-23.5745947671
  0
VERTEX
  8
GSLAYER
 10
12.4520035484
 20
-23.568565218
  0
VERTEX
  8
GSLAYER
 10
12.2657577754
 20
-23.6008670913
  0
VERTEX
  8
GSLAYER
 10
12.3214728626
 20
-23.755700451
  0
VERTEX
  8
GSLAYER
 10
12.5230874462
 20
-23.9296723251
  0
VERTEX
  8
GSLAYER
 10
12.7112289182
 20
-23.9588749047
  0
VERTEX
  8
GSLAYER
 10
12.8729456264
 20
-23.842545761
  0
VERTEX
  8
GSLAYER
 10
13.0417967102
 20
-23.6153846154
  0
SEQEND
  0
POLYLINE
  8
GSLAYER
 62
7
 40
0.0
 41
0.0
 70
129
 30
4
 66
1
  0
VERTEX
  8
GSLAYER
 10
11.7625428086
 20
-22.5384615385
  0
VERTEX
  8
GSLAYER
 10
11.4384606961
 20
-22.2484826368
  0
VERTEX
  8
GSLAYER
 10
11.1094623885
 20
-21.9649260241
  0
VERTEX
  8
GSLAYER
 10
10.775044791
 20
-21.6954378608
  0
VERTEX
  8
GSLAYER
 10
10.4332890852
 20
-21.455872116
  0
VERTEX
  8
GSLAYER
 10
10.0711602628
 20
-21.1524682741
  0
VERTEX
  8
GSLAYER
 10
9.69988400545
 20
-20.7391439847
  0
VERTEX
  8
GSLAYER
 10
9.37530372993
 20
-20.4558593639
  0
VERTEX
  8
GSLAYER
 10
9.16429676805
 20
-20.5756743268
  0
VERTEX
  8
GSLAYER
 10
9.05655675873
 20
-21.1063016996
  0
VERTEX
  8
GSLAYER
 10
8.9320387187
 20
-21.7007477332
  0
VERTEX
  8
GSLAYER
 10
8.795184258
 20
-22.2178884846
  0
VERTEX
  8
GSLAYER
 10
8.82208873359
 20
-22.706371789
  0
VERTEX
  8
GSLAYER
 10
9.07150844787
 20
-23.1451911791
  0
VERTEX
  8
GSLAYER
 10
9.41116211669
 20
-23.3852218059
  0
VERTEX
  8
GSLAYER
 10
9.78652000549
 20
-23.4151846436
  0
VERTEX
  8
GSLAYER
 10
10.1860963628
 20
-23.3849924896
  0
VERTEX
  8
GSLAYER
 10
10.6055726503
 20
-23.4180689028
  0
VERTEX
  8
GSLAYER
 10
11.0179559376
 20
-23.4800293435
  0
VERTEX
  8
GSLAYER
 10
11.3734599634
 20
-23.4239381376
  0
VERTEX
  8
GSLAYER
 10
11.6161709246
 20
-23.0959720539
  0
VERTEX
  8
GSLAYER
 10
11.7625428086
 20
-22.5384615385
  0
SEQEND
  0
POLYLINE
  8
GSLAYER
 62
7
 40
0.0
 41
0.0
 70
128
 30
4
 66
1
  0
VERTEX
  8
GSLAYER
 10
12.5739051767
 20
-20.4024004021
  0
VERTEX
  8
GSLAYER
 10
12.3223656129
 20
-20.6731635486
  0
VERTEX
  8
GSLAYER
 10
12.1130245074
 20
-21.0328714804
  0
VERTEX
  8
GSLAYER
 10
12.0295603118
 20
-21.3934893445
  0
VERTEX
  8
GSLAYER
 10
12.1619005713
 20
-21.6813725449
  0
VERTEX
  8
GSLAYER
 10
12.4304347815
 20
-21.9071266659
  0
VERTEX
  8
GSLAYER
 10
12.7171266461
 20
-22.0999147783
  0
VERTEX
  8
GSLAYER
 10
12.9777977991
 20
-22.2863421355
  0
VERTEX
  8
GSLAYER
 10
13.2078556191
 20
-22.5029864403
  0
VERTEX
  8
GSLAYER
 10
13.3967295711
 20
-22.7876379705
  0
VERTEX
  8
GSLAYER
 10
13.5488400574
 20
-23.1331748374
  0
VERTEX
  8
GSLAYER
 10
13.6666666667
 20
-23.5282510484
  0
SEQEND
  0
POLYLINE
  8
GSLAYER
 62
7
 40
0.0
 41
0.0
 70
128
 30
4
 66
1
  0
VERTEX
  8
GSLAYER
 10
11.4444444444
 20
-16.9468259781
  0
VERTEX
  8
GSLAYER
 10
11.1853633509
 20
-17.0680287026
  0
VERTEX
  8
GSLAYER
 10
11.0468460552
 20
-17.3239582225
  0
VERTEX
  8
GSLAYER
 10
11.0281553275
 20
-17.7014770053
  0
VERTEX
  8
GSLAYER
 10
11.0992012857
 20
-18.0917984554
  0
VERTEX
  8
GSLAYER
 10
11.2533755295
 20
-18.395081057
  0
VERTEX
  8
GSLAYER
 10
11.4587397124
 20
-18.6110530559
  0
VERTEX
  8
GSLAYER
 10
11.6844335907
 20
-18.7737707613
  0
VERTEX
  8
GSLAYER
 10
11.9272319216
 20
-18.8905003868
  0
VERTEX
  8
GSLAYER
 10
12.1919005374
 20
-18.9552266747
  0
SEQEND
  0
POLYLINE
  8
GSLAYER
 62
7
 40
0.0
 41
0.0
 70
128
 30
4.5
 66
1
  0
VERTEX
  8
GSLAYER
 10
12.7116762983
 20
-29
  0
VERTEX
  8
GSLAYER
 10
13.0581573549
 20
-28.5792244288
  0
VERTEX
  8
GSLAYER
 10
13.4260607394
 20
-28.2941715541
  0
VERTEX
  8
GSLAYER
 10
13.8224795074
 20
-28.1763169307
  0
VERTEX
  8
GSLAYER
 10
14.2452746177
 20
-28.2196780776
  0
VERTEX
  8
GSLAYER
 10
14.6741826295
 20
-28.3376012688
  0
VERTEX
  8
GSLAYER
 10
15.0923924694
 20
-28.4714840768
  0
VERTEX
  8
GSLAYER
 10
15.5022007711
 20
-28.6252099781
  0
SEQEND
  0
POLYLINE
  8
GSLAYER
 62
7
 40
0.0
 41
0.0
 70
128
 30
4.5
 66
1
  0
VERTEX
  8
GSLAYER
 10
12.4620673438
 20
-19.3076923077
  0
VERTEX
  8
GSLAYER
 10
12.4595973409
 20
-19.7922761048
  0
VERTEX
  8
GSLAYER
 10
12.4051688231
 20
-20.2468841917
  0
VERTEX
  8
GSLAYER
 10
12.2192610057
 20
-20.6682783946
  0
VERTEX
  8
GSLAYER
 10
11.9681183334
 20
-21.0575578501
  0
VERTEX
  8
GSLAYER
 10
11.819116136
 20
-21.415810862
  0
VERTEX
  8
GSLAYER
 10
11.927765534
 20
-21.7358813784
  0
VERTEX
  8
GSLAYER
 10
12.2268762024
 20
-22.0158526866
  0
VERTEX
  8
GSLAYER
 10
12.605996123
 20
-22.2453357792
  0
VERTEX
  8
GSLAYER
 10
12.9248257072
 20
-22.4629469259
  0
VERTEX
  8
GSLAYER
 10
12.8589186007
 20
-22.8535870906
  0
VERTEX
  8
GSLAYER
 10
12.5542055658
 20
-23.1418899701
  0
VERTEX
  8
GSLAYER
 10
12.2985613845
 20
-22.9101166862
  0
VERTEX
  8
GSLAYER
 10
12.0637270748
 20
-22.4964563229
  0
VERTEX
  8
GSLAYER
 10
11.7907840675
 20
-22.2123077989
  0
VERTEX
  8
GSLAYER
 10
11.4982501917
 20
-21.9980475685
  0
VERTEX
  8
GSLAYER
 10
11.207325402
 20
-21.7711298646
  0
VERTEX
  8
GSLAYER
 10
10.9166259563
 20
-21.536532278
  0
VERTEX
  8
GSLAYER
 10
10.6165681002
 20
-21.3292271355
  0
VERTEX
  8
GSLAYER
 10
10.3115046019
 20
-21.1359058154
  0
VERTEX
  8
GSLAYER
 10
10.0126803629
 20
-20.9216263655
  0
VERTEX
  8
GSLAYER
 10
9.72794431401
 20
-20.6731329941
  0
VERTEX
  8
GSLAYER
 10
9.46858608215
 20
-20.3719972485
  0
VERTEX
  8
GSLAYER
 10
9.21223259446
 20
-20.0722802758
  0
VERTEX
  8
GSLAYER
 10
8.85118945475
 20
-20.063867849
  0
VERTEX
  8
GSLAYER
 10
8.53313271729
 20
-20.2951950892
  0
VERTEX
  8
GSLAYER
 10
8.46842223527
 20
-20.6932997606
  0
VERTEX
  8
GSLAYER
 10
8.56734722644
 20
-21.1755869186
  0
VERTEX
  8
GSLAYER
 10
8.60399690918
 20
-21.6529586985
  0
VERTEX
  8
GSLAYER
 10
8.47199514758
 20
-22.0728515423
  0
VERTEX
  8
GSLAYER
 10
8.17759973144
 20
-22.4046541305
  0
VERTEX
  8
GSLAYER
 10
8.08496425696
 20
-22.5723837051
  0
VERTEX
  8
GSLAYER
 10
8.43946350044
 20
-22.7681651999
  0
VERTEX
  8
GSLAYER
 10
8.6734058527
 20
-23.0982486568
  0
VERTEX
  8
GSLAYER
 10
8.87979700159
 20
-23.4516130997
  0
VERTEX
  8
GSLAYER
 10
9.13917313538
 20
-23.7309853216
  0
VERTEX
  8
GSLAYER
 10
9.4086680221
 20
-24.0100623378
  0
VERTEX
  8
GSLAYER
 10
9.64387451407
 20
-24.3476627079
  0
VERTEX
  8
GSLAYER
 10
9.86820694755
 20
-24.6942232576
  0
VERTEX
  8
GSLAYER
 10
10.1054505726
 20
-25.0103767281
  0
VERTEX
  8
GSLAYER
 10
10.4056452324
 20
-25.2702269813
  0
VERTEX
  8
GSLAYER
 10
10.7838312401
 20
-25.4600536985
  0
VERTEX
  8
GSLAYER
 10
11.1041575075
 20
-25.6371216858
  0
VERTEX
  8
GSLAYER
 10
11.1895421648
 20
-25.8659102091
  0
VERTEX
  8
GSLAYER
 10
10.9872384984
 20
-26.1592774129
  0
VERTEX
  8
GSLAYER
 10
10.6394712167
 20
-26.4545654374
  0
VERTEX
  8
GSLAYER
 10
10.2662958986
 20
-26.6835423644
  0
VERTEX
  8
GSLAYER
 10
10.0067983498
 20
-26.9169369952
  0
VERTEX
  8
GSLAYER
 10
10.01321076
 20
-27.3793446269
  0
VERTEX
  8
GSLAYER
 10
10.178457124
 20
-27.8684511672
  0
VERTEX
  8
GSLAYER
 10
10.4213453596
 20
-28.1872732551
  0
VERTEX
  8
GSLAYER
 10
10.720715496
 20
-28.3769824628
  0
VERTEX
  8
GSLAYER
 10
11.0492850834
 20
-28.5065369572
  0
VERTEX
  8
GSLAYER
 10
11.3806841029
 20
-28.6335380599
  0
VERTEX
  8
GSLAYER
 10
11.6940182427
 20
-28.8041384264
  0
VERTEX
  8
GSLAYER
 10
11.9974696551
 20
-29
  0
SEQEND
  0
POLYLINE
  8
GSLAYER
 62
7
 40
0.0
 41
0.0
 70
128
 30
4.5
 66
1
  0
VERTEX
  8
GSLAYER
 10
7
 20
-25.0791398272
  0
VERTEX
  8
GSLAYER
 10
7.17818425124
 20
-24.9260487802
  0
VERTEX
  8
GSLAYER
 10
7.27088343039
 20
-24.7786664415
  0
VERTEX
  8
GSLAYER
 10
7.27198462302
 20
-24.6374010328
  0
VERTEX
  8
GSLAYER
 10
7.17860121006
 20
-24.5024453228
  0
VERTEX
  8
GSLAYER
 10
7
 20
-24.3731804725
  0
SEQEND
  0
POLYLINE
  8
GSLAYER
 62
7
 40
0.0
 41
0.0
 70
128
 30
4.5
 66
1
  0
VERTEX
  8
GSLAYER
 10
7
 20
-20.105784901
  0
VERTEX
  8
GSLAYER
 10
7.35832079999
 20
-19.8133489824
  0
VERTEX
  8
GSLAYER
 10
7.56647587044
 20
-19.4919867655
  0
VERTEX
  8
GSLAYER
 10
7.5494034783
 20
-19.1326225816
  0
VERTEX
  8
GSLAYER
 10
7.34924189109
 20
-18.7394652756
  0
VERTEX
  8
GSLAYER
 10
7.16709584343
 20
-18.3354327379
  0
VERTEX
  8
GSLAYER
 10
7.18921719918
 20
-17.938236274
  0
VERTEX
  8
GSLAYER
 10
7.37490544671
 20
-17.5458348454
  0
VERTEX
  8
GSLAYER
 10
7.58690236971
 20
-17.146286767
  0
VERTEX
  8
GSLAYER
 10
7.73339649482
 20
-16.730183519
  0
VERTEX
  8
GSLAYER
 10
7.83473761436
 20
-16.3024180578
  0
VERTEX
  8
GSLAYER
 10
7.92279235754
 20
-15.8676267544
  0
VERTEX
  8
GSLAYER
 10
8.01451099522
 20
-15.4308352242
  0
VERTEX
  8
GSLAYER
 10
8.11952567384
 20
-15
  0
SEQEND
  0
POLYLINE
  8
GSLAYER
 62
7
 40
0.0
 41
0.0
 70
128
 30
4.5
 66
1
  0
VERTEX
  8
GSLAYER
 10
11.4444444444
 20
-16.7451823869
  0
VERTEX
  8
GSLAYER
 10
11.0686151315
 20
-16.8479136916
  0
VERTEX
  8
GSLAYER
 10
10.8305223694
 20
-17.0500048111
  0
VERTEX
  8
GSLAYER
 10
10.7621526645
 20
-17.3952855959
  0
VERTEX
  8
GSLAYER
 10
10.8349240411
 20
-17.8351483194
  0
VERTEX
  8
GSLAYER
 10
10.9859222828
 20
-18.2532123481
  0
VERTEX
  8
GSLAYER
 10
11.1872692057
 20
-18.5704879467
  0
VERTEX
  8
GSLAYER
 10
11.4444444444
 20
-18.8221467867
  0
SEQEND
  0
POLYLINE
  8
GSLAYER
 62
7
 40
0.0
 41
0.0
 70
128
 30
5
 66
1
  0
VERTEX
  8
GSLAYER
 10
11.9935246289
 20
-19.3076923077
  0
VERTEX
  8
GSLAYER
 10
12.1467355042
 20
-19.8108242596
  0
VERTEX
  8
GSLAYER
 10
12.1753351857
 20
-20.2818085474
  0
VERTEX
  8
GSLAYER
 10
12.0032379047
 20
-20.7154845192
  0
VERTEX
  8
GSLAYER
 10
11.7400952979
 20
-21.116219042
  0
VERTEX
  8
GSLAYER
 10
11.5942355999
 20
-21.488222986
  0
VERTEX
  8
GSLAYER
 10
11.7196027356
 20
-21.8274788335
  0
VERTEX
  8
GSLAYER
 10
12.0313945384
 20
-22.1297701438
  0
VERTEX
  8
GSLAYER
 10
12.4306168013
 20
-22.3831829462
  0
VERTEX
  8
GSLAYER
 10
12.6076661409
 20
-22.6772698654
  0
VERTEX
  8
GSLAYER
 10
12.3400833833
 20
-22.3959934778
  0
VERTEX
  8
GSLAYER
 10
12.0570373895
 20
-22.0809351167
  0
VERTEX
  8
GSLAYER
 10
11.7469533021
 20
-21.8642630189
  0
VERTEX
  8
GSLAYER
 10
11.4331671369
 20
-21.6552060561
  0
VERTEX
  8
GSLAYER
 10
11.1251757285
 20
-21.4145451659
  0
VERTEX
  8
GSLAYER
 10
10.8053736719
 20
-21.2068242744
  0
VERTEX
  8
GSLAYER
 10
10.4821707743
 20
-21.0088688051
  0
VERTEX
  8
GSLAYER
 10
10.1677526112
 20
-20.7847863171
  0
VERTEX
  8
GSLAYER
 10
9.87026402442
 20
-20.5183590001
  0
VERTEX
  8
GSLAYER
 10
9.59942498979
 20
-20.1990826015
  0
VERTEX
  8
GSLAYER
 10
9.33661649362
 20
-19.8681122884
  0
VERTEX
  8
GSLAYER
 10
9.03332608257
 20
-19.6244217389
  0
VERTEX
  8
GSLAYER
 10
8.69957184542
 20
-19.4483364143
  0
VERTEX
  8
GSLAYER
 10
8.39246143497
 20
-19.2249656601
  0
VERTEX
  8
GSLAYER
 10
8.10837970878
 20
-18.9240859748
  0
VERTEX
  8
GSLAYER
 10
7.78849552533
 20
-18.610929933
  0
VERTEX
  8
GSLAYER
 10
7.5756286622
 20
-18.2598482403
  0
VERTEX
  8
GSLAYER
 10
7.65429652808
 20
-17.8331278634
  0
VERTEX
  8
GSLAYER
 10
7.92450970351
 20
-17.4234792679
  0
VERTEX
  8
GSLAYER
 10
8.24505123291
 20
-17.1790865939
  0
VERTEX
  8
GSLAYER
 10
8.56563426532
 20
-17.1374896087
  0
VERTEX
  8
GSLAYER
 10
8.91800559217
 20
-17.1824207717
  0
VERTEX
  8
GSLAYER
 10
9.34675495951
 20
-17.2107569932
  0
VERTEX
  8
GSLAYER
 10
9.75858592488
 20
-17.177909209
  0
VERTEX
  8
GSLAYER
 10
9.74182834548
 20
-17.1226342507
  0
VERTEX
  8
GSLAYER
 10
9.31903593355
 20
-17.0387283148
  0
VERTEX
  8
GSLAYER
 10
8.87716793559
 20
-16.8734101971
  0
VERTEX
  8
GSLAYER
 10
8.52533377921
 20
-16.6248656649
  0
VERTEX
  8
GSLAYER
 10
8.28528319053
 20
-16.3109924115
  0
VERTEX
  8
GSLAYER
 10
8.20457831338
 20
-15.9339453092
  0
VERTEX
  8
GSLAYER
 10
8.29568067979
 20
-15.4961994691
  0
VERTEX
  8
GSLAYER
 10
8.5280570777
 20
-15
  0
SEQEND
  0
POLYLINE
  8
GSLAYER
 62
7
 40
0.0
 41
0.0
 70
128
 30
5
 66
1
  0
VERTEX
  8
GSLAYER
 10
13.2884049971
 20
-29
  0
VERTEX
  8
GSLAYER
 10
13.4975436668
 20
-28.7805467069
  0
VERTEX
  8
GSLAYER
 10
13.7163621673
 20
-28.6677897872
  0
VERTEX
  8
GSLAYER
 10
13.9460125261
 20
-28.6744275165
  0
VERTEX
  8
GSLAYER
 10
14.1850113482
 20
-28.7841091064
  0
VERTEX
  8
GSLAYER
 10
14.4336458126
 20
-29
  0
SEQEND
  0
POLYLINE
  8
GSLAYER
 62
7
 40
0.0
 41
0.0
 70
128
 30
5
 66
1
  0
VERTEX
  8
GSLAYER
 10
7
 20
-25.7125664975
  0
VERTEX
  8
GSLAYER
 10
7.46995591859
 20
-25.3087931948
  0
VERTEX
  8
GSLAYER
 10
7.71444737944
 20
-24.9200764488
  0
VERTEX
  8
GSLAYER
 10
7.71735174383
 20
-24.5474929321
  0
VERTEX
  8
GSLAYER
 10
7.47105563566
 20
-24.1915510674
  0
VERTEX
  8
GSLAYER
 10
7
 20
-23.8506186841
  0
SEQEND
  0
POLYLINE
  8
GSLAYER
 62
7
 40
0.0
 41
0.0
 70
128
 30
5
 66
1
  0
VERTEX
  8
GSLAYER
 10
7
 20
-22.8329981547
  0
VERTEX
  8
GSLAYER
 10
7.38999659793
 20
-22.8089613036
  0
VERTEX
  8
GSLAYER
 10
7.7513568461
 20
-22.7946798268
  0
VERTEX
  8
GSLAYER
 10
8.07711009548
 20
-22.8830740933
  0
VERTEX
  8
GSLAYER
 10
8.35901934454
 20
-23.1544768851
  0
VERTEX
  8
GSLAYER
 10
8.62839687955
 20
-23.5036481795
  0
VERTEX
  8
GSLAYER
 10
8.92394562352
 20
-23.7936832516
  0
VERTEX
  8
GSLAYER
 10
9.22581517429
 20
-24.0574814209
  0
VERTEX
  8
GSLAYER
 10
9.49004577352
 20
-24.3954648054
  0
VERTEX
  8
GSLAYER
 10
9.7309306335
 20
-24.762383301
  0
VERTEX
  8
GSLAYER
 10
9.9756316514
 20
-25.1056827227
  0
VERTEX
  8
GSLAYER
 10
10.2802488808
 20
-25.3945737014
  0
VERTEX
  8
GSLAYER
 10
10.6783133165
 20
-25.6007558717
  0
VERTEX
  8
GSLAYER
 10
10.8688380178
 20
-25.8237682426
  0
VERTEX
  8
GSLAYER
 10
10.6078688451
 20
-26.1304225853
  0
VERTEX
  8
GSLAYER
 10
10.1869126919
 20
-26.3936805192
  0
VERTEX
  8
GSLAYER
 10
9.80269926266
 20
-26.5746590614
  0
VERTEX
  8
GSLAYER
 10
9.55866133864
 20
-26.8138699203
  0
VERTEX
  8
GSLAYER
 10
9.5617558081
 20
-27.239507268
  0
VERTEX
  8
GSLAYER
 10
9.72484406936
 20
-27.7485341424
  0
VERTEX
  8
GSLAYER
 10
9.94879790268
 20
-28.1894691074
  0
VERTEX
  8
GSLAYER
 10
10.202506025
 20
-28.5329329752
  0
VERTEX
  8
GSLAYER
 10
10.4949201742
 20
-28.8011912162
  0
VERTEX
  8
GSLAYER
 10
10.8268587115
 20
-29
  0
SEQEND
  0
POLYLINE
  8
GSLAYER
 62
7
 40
0.0
 41
0.0
 70
129
 30
5
 66
1
  0
VERTEX
  8
GSLAYER
 10
7.80498573148
 20
-21.4615384615
  0
VERTEX
  8
GSLAYER
 10
7.92356906829
 20
-21.2071338087
  0
VERTEX
  8
GSLAYER
 10
8.02352641389
 20
-21.0699036607
  0
VERTEX
  8
GSLAYER
 10
8.11472688428
 20
-21.0686784089
  0
VERTEX
  8
GSLAYER
 10
8.1956928954
 20
-21.2206743446
  0
VERTEX
  8
GSLAYER
 10
8.22856174432
 20
-21.4345439523
  0
VERTEX
  8
GSLAYER
 10
8.16663572499
 20
-21.623400645
  0
VERTEX
  8
GSLAYER
 10
8.06061547767
 20
-21.7080524531
  0
VERTEX
  8
GSLAYER
 10
7.9423733032
 20
-21.6470441572
  0
VERTEX
  8
GSLAYER
 10
7.80498573148
 20
-21.4615384615
  0
SEQEND
  0
POLYLINE
  8
GSLAYER
 62
7
 40
0.0
 41
0.0
 70
128
 30
5
 66
1
  0
VERTEX
  8
GSLAYER
 10
11.4444444444
 20
-16.5435387958
  0
VERTEX
  8
GSLAYER
 10
10.8971441978
 20
-16.6651639956
  0
VERTEX
  8
GSLAYER
 10
10.5571185204
 20
-16.9007088852
  0
VERTEX
  8
GSLAYER
 10
10.4616566296
 20
-17.2872557746
  0
VERTEX
  8
GSLAYER
 10
10.6035075056
 20
-17.8088702798
  0
VERTEX
  8
GSLAYER
 10
10.8455428932
 20
-18.316498634
  0
VERTEX
  8
GSLAYER
 10
11.1199709976
 20
-18.7164344412
  0
VERTEX
  8
GSLAYER
 10
11.4444444444
 20
-19.0457058445
  0
SEQEND
  0
POLYLINE
  8
GSLAYER
 62
7
 40
0.0
 41
0.0
 70
128
 30
5.5
 66
1
  0
VERTEX
  8
GSLAYER
 10
11.5249819141
 20
-19.3076923077
  0
VERTEX
  8
GSLAYER
 10
11.8213733785
 20
-19.7656706337
  0
VERTEX
  8
GSLAYER
 10
11.9489347781
 20
-20.2200133679
  0
VERTEX
  8
GSLAYER
 10
11.8683037154
 20
-20.7193748986
  0
VERTEX
  8
GSLAYER
 10
11.6272039293
 20
-21.1742443406
  0
VERTEX
  8
GSLAYER
 10
11.3129413992
 20
-21.3685542018
  0
VERTEX
  8
GSLAYER
 10
10.9680209602
 20
-21.2313209677
  0
VERTEX
  8
GSLAYER
 10
10.6155789562
 20
-20.9324268109
  0
VERTEX
  8
GSLAYER
 10
10.2760840826
 20
-20.618309752
  0
VERTEX
  8
GSLAYER
 10
9.96655317994
 20
-20.3307336957
  0
VERTEX
  8
GSLAYER
 10
9.69234787492
 20
-19.9691519172
  0
VERTEX
  8
GSLAYER
 10
9.41573376292
 20
-19.6082555323
  0
VERTEX
  8
GSLAYER
 10
9.09104504561
 20
-19.3526617391
  0
VERTEX
  8
GSLAYER
 10
8.77486113892
 20
-19.1097365579
  0
VERTEX
  8
GSLAYER
 10
8.49291017847
 20
-18.7962242023
  0
VERTEX
  8
GSLAYER
 10
8.18469235665
 20
-18.4545707581
  0
VERTEX
  8
GSLAYER
 10
8.05915199309
 20
-18.0800883777
  0
VERTEX
  8
GSLAYER
 10
8.39629492544
 20
-17.7358554459
  0
VERTEX
  8
GSLAYER
 10
8.72610945742
 20
-17.5190906854
  0
VERTEX
  8
GSLAYER
 10
9.07390225203
 20
-17.3752521656
  0
VERTEX
  8
GSLAYER
 10
9.46701176609
 20
-17.2727007086
  0
VERTEX
  8
GSLAYER
 10
9.87809064317
 20
-17.2366039441
  0
VERTEX
  8
GSLAYER
 10
10.2339166403
 20
-17.3479073037
  0
VERTEX
  8
GSLAYER
 10
10.4565128556
 20
-17.7129036966
  0
VERTEX
  8
GSLAYER
 10
10.6130870728
 20
-18.2108681049
  0
VERTEX
  8
GSLAYER
 10
10.8328481991
 20
-18.6329184752
  0
VERTEX
  8
GSLAYER
 10
11.1166925117
 20
-18.9747927848
  0
VERTEX
  8
GSLAYER
 10
11.4444444444
 20
-19.2692649023
  0
SEQEND
  0
POLYLINE
  8
GSLAYER
 62
7
 40
0.0
 41
0.0
 70
128
 30
5.5
 66
1
  0
VERTEX
  8
GSLAYER
 10
11.4444444444
 20
-16.3418952047
  0
VERTEX
  8
GSLAYER
 10
11.0347567393
 20
-16.6466282268
  0
VERTEX
  8
GSLAYER
 10
10.6166818821
 20
-16.8443751774
  0
VERTEX
  8
GSLAYER
 10
10.1916944821
 20
-16.9302621273
  0
VERTEX
  8
GSLAYER
 10
9.7583119714
 20
-16.8970181688
  0
VERTEX
  8
GSLAYER
 10
9.31118959877
 20
-16.7543985194
  0
VERTEX
  8
GSLAYER
 10
8.85691244883
 20
-16.4817374776
  0
VERTEX
  8
GSLAYER
 10
8.54307770163
 20
-16.0974422248
  0
VERTEX
  8
GSLAYER
 10
8.58587256283
 20
-15.6000443775
  0
VERTEX
  8
GSLAYER
 10
8.93658848156
 20
-15
  0
SEQEND
  0
POLYLINE
  8
GSLAYER
 62
7
 40
0.0
 41
0.0
 70
128
 30
5.5
 66
1
  0
VERTEX
  8
GSLAYER
 10
8.71303012555
 20
-29
  0
VERTEX
  8
GSLAYER
 10
8.69394338248
 20
-28.4304423447
  0
VERTEX
  8
GSLAYER
 10
8.59408279428
 20
-28.0221945874
  0
VERTEX
  8
GSLAYER
 10
8.33251832829
 20
-27.8051676663
  0
VERTEX
  8
GSLAYER
 10
7.9890193559
 20
-27.6879754376
  0
VERTEX
  8
GSLAYER
 10
7.65769639377
 20
-27.583670117
  0
VERTEX
  8
GSLAYER
 10
7.33211738186
 20
-27.4950328462
  0
VERTEX
  8
GSLAYER
 10
7
 20
-27.4345252417
  0
SEQEND
  0
POLYLINE
  8
GSLAYER
 62
7
 40
0.0
 41
0.0
 70
128
 30
5.5
 66
1
  0
VERTEX
  8
GSLAYER
 10
7
 20
-28.2971091108
  0
VERTEX
  8
GSLAYER
 10
7.72801027958
 20
-29
  0
SEQEND
  0
POLYLINE
  8
GSLAYER
 62
7
 40
0.0
 41
0.0
 70
128
 30
5.5
 66
1
  0
VERTEX
  8
GSLAYER
 10
7
 20
-26.6300208217
  0
VERTEX
  8
GSLAYER
 10
7.35810281813
 20
-26.5343001176
  0
VERTEX
  8
GSLAYER
 10
7.65258651578
 20
-26.3602633098
  0
VERTEX
  8
GSLAYER
 10
7.88629830986
 20
-26.1146009527
  0
VERTEX
  8
GSLAYER
 10
8.05127107624
 20
-25.7912578567
  0
VERTEX
  8
GSLAYER
 10
8.17304120171
 20
-25.3841797939
  0
VERTEX
  8
GSLAYER
 10
8.27922605912
 20
-24.9482498594
  0
VERTEX
  8
GSLAYER
 10
8.18933741127
 20
-24.6035368279
  0
VERTEX
  8
GSLAYER
 10
7.9012261787
 20
-24.3348992897
  0
VERTEX
  8
GSLAYER
 10
7.58887721865
 20
-24.0595594282
  0
VERTEX
  8
GSLAYER
 10
7.37483678342
 20
-23.7825516367
  0
VERTEX
  8
GSLAYER
 10
7.40322697694
 20
-23.5104805092
  0
VERTEX
  8
GSLAYER
 10
7.68093709749
 20
-23.2840150351
  0
VERTEX
  8
GSLAYER
 10
8.02572021801
 20
-23.2060278696
  0
VERTEX
  8
GSLAYER
 10
8.2885493768
 20
-23.3994530887
  0
VERTEX
  8
GSLAYER
 10
8.51159481073
 20
-23.694501381
  0
VERTEX
  8
GSLAYER
 10
8.7668806167
 20
-23.9209413372
  0
VERTEX
  8
GSLAYER
 10
9.03178450398
 20
-24.1250186667
  0
VERTEX
  8
GSLAYER
 10
9.27666959781
 20
-24.368488989
  0
VERTEX
  8
GSLAYER
 10
9.48893300422
 20
-24.6693580017
  0
VERTEX
  8
GSLAYER
 10
9.68290586433
 20
-24.9757686271
  0
VERTEX
  8
GSLAYER
 10
9.88611757117
 20
-25.2637260123
  0
VERTEX
  8
GSLAYER
 10
10.1358058925
 20
-25.5128734427
  0
VERTEX
  8
GSLAYER
 10
10.4676500217
 20
-25.697745999
  0
VERTEX
  8
GSLAYER
 10
10.423645178
 20
-25.9229130281
  0
VERTEX
  8
GSLAYER
 10
10.0842406131
 20
-26.0981367279
  0
VERTEX
  8
GSLAYER
 10
9.78229863373
 20
-26.154288683
  0
VERTEX
  8
GSLAYER
 10
9.50358687787
 20
-26.2022939394
  0
VERTEX
  8
GSLAYER
 10
9.23576816186
 20
-26.353466773
  0
VERTEX
  8
GSLAYER
 10
9.0040059488
 20
-26.6773498398
  0
VERTEX
  8
GSLAYER
 10
9.03122857077
 20
-27.0270281026
  0
VERTEX
  8
GSLAYER
 10
9.24611344438
 20
-27.3670176065
  0
VERTEX
  8
GSLAYER
 10
9.36494450273
 20
-27.7559678257
  0
VERTEX
  8
GSLAYER
 10
9.43897625726
 20
-28.1634367073
  0
VERTEX
  8
GSLAYER
 10
9.49761051428
 20
-28.5764306485
  0
VERTEX
  8
GSLAYER
 10
9.52961106524
 20
-29
  0
SEQEND
  0
POLYLINE
  8
GSLAYER
 62
7
 40
0.0
 41
0.0
 70
128
 30
6
 66
1
  0
VERTEX
  8
GSLAYER
 10
11.4444444444
 20
-16.1402516136
  0
VERTEX
  8
GSLAYER
 10
11.0877118836
 20
-16.3156247513
  0
VERTEX
  8
GSLAYER
 10
10.7278234281
 20
-16.4394164482
  0
VERTEX
  8
GSLAYER
 10
10.366150316
 20
-16.5218315595
  0
VERTEX
  8
GSLAYER
 10
10.0030393281
 20
-16.5605082495
  0
VERTEX
  8
GSLAYER
 10
9.63585978847
 20
-16.5407071198
  0
VERTEX
  8
GSLAYER
 10
9.25983327555
 20
-16.4290523305
  0
VERTEX
  8
GSLAYER
 10
8.91227191082
 20
-16.1757153856
  0
VERTEX
  8
GSLAYER
 10
8.8905807631
 20
-15.7259711867
  0
VERTEX
  8
GSLAYER
 10
9.16371632304
 20
-15.2763327576
  0
VERTEX
  8
GSLAYER
 10
9.53346457999
 20
-15.1725358937
  0
VERTEX
  8
GSLAYER
 10
9.92184629575
 20
-15.2869031779
  0
VERTEX
  8
GSLAYER
 10
10.2799020969
 20
-15.3080296912
  0
VERTEX
  8
GSLAYER
 10
10.5680144526
 20
-15
  0
SEQEND
  0
POLYLINE
  8
GSLAYER
 62
7
 40
0.0
 41
0.0
 70
129
 30
6
 66
1
  0
VERTEX
  8
GSLAYER
 10
7.93728393152
 20
-26.8461538462
  0
VERTEX
  8
GSLAYER
 10
8.00228434581
 20
-26.7493330209
  0
VERTEX
  8
GSLAYER
 10
8.0642161719
 20
-26.7031266432
  0
VERTEX
  8
GSLAYER
 10
8.13429724344
 20
-26.7184170443
  0
VERTEX
  8
GSLAYER
 10
8.20179309405
 20
-26.789989756
  0
VERTEX
  8
GSLAYER
 10
8.21041121181
 20
-26.8739411307
  0
VERTEX
  8
GSLAYER
 10
8.14583571445
 20
-26.9398933323
  0
VERTEX
  8
GSLAYER
 10
8.07075586311
 20
-26.9601099443
  0
VERTEX
  8
GSLAYER
 10
8.00493056766
 20
-26.9261239062
  0
VERTEX
  8
GSLAYER
 10
7.93728393152
 20
-26.8461538462
  0
SEQEND
  0
POLYLINE
  8
GSLAYER
 62
7
 40
0.0
 41
0.0
 70
129
 30
6
 66
1
  0
VERTEX
  8
GSLAYER
 10
8.87712212179
 20
-24.6923076923
  0
VERTEX
  8
GSLAYER
 10
8.73005841598
 20
-24.4925359916
  0
VERTEX
  8
GSLAYER
 10
8.59438980806
 20
-24.2941077055
  0
VERTEX
  8
GSLAYER
 10
8.45010772897
 20
-24.09647918
  0
VERTEX
  8
GSLAYER
 10
8.27608879951
 20
-23.8992102711
  0
VERTEX
  8
GSLAYER
 10
8.05067103103
 20
-23.701973283
  0
VERTEX
  8
GSLAYER
 10
8.10939726666
 20
-23.5571389631
  0
VERTEX
  8
GSLAYER
 10
8.26977211079
 20
-23.7616544757
  0
VERTEX
  8
GSLAYER
 10
8.44247791849
 20
-23.9367442994
  0
VERTEX
  8
GSLAYER
 10
8.62693659486
 20
-24.0847766586
  0
VERTEX
  8
GSLAYER
 10
8.81717850798
 20
-24.2219659562
  0
VERTEX
  8
GSLAYER
 10
9.00772547027
 20
-24.3636051805
  0
VERTEX
  8
GSLAYER
 10
9.19312521639
 20
-24.5253654626
  0
VERTEX
  8
GSLAYER
 10
9.33528165138
 20
-24.7438702706
  0
VERTEX
  8
GSLAYER
 10
9.2940290458
 20
-25.0724239208
  0
VERTEX
  8
GSLAYER
 10
9.17603871605
 20
-25.2395826461
  0
VERTEX
  8
GSLAYER
 10
9.04391518055
 20
-25.0865413542
  0
VERTEX
  8
GSLAYER
 10
8.87712212179
 20
-24.6923076923
  0
SEQEND
  0
POLYLINE
  8
GSLAYER
 62
7
 40
0.0
 41
0.0
 70
129
 30
6
 66
1
  0
VERTEX
  8
GSLAYER
 10
10.2855107123
 20
-20.3846153846
  0
VERTEX
  8
GSLAYER
 10
10.0562654559
 20
-19.9630897825
  0
VERTEX
  8
GSLAYER
 10
9.79313419447
 20
-19.6212617695
  0
VERTEX
  8
GSLAYER
 10
9.49869266966
 20
-19.3628433745
  0
VERTEX
  8
GSLAYER
 10
9.1655729885
 20
-19.1849916127
  0
VERTEX
  8
GSLAYER
 10
8.78387949087
 20
-18.9445574039
  0
VERTEX
  8
GSLAYER
 10
8.43532051127
 20
-18.6447085402
  0
VERTEX
  8
GSLAYER
 10
8.23352457671
 20
-18.3218854614
  0
VERTEX
  8
GSLAYER
 10
8.30423001445
 20
-18.0063366468
  0
VERTEX
  8
GSLAYER
 10
8.60139540984
 20
-17.7256943819
  0
VERTEX
  8
GSLAYER
 10
9.00604772291
 20
-17.5148576627
  0
VERTEX
  8
GSLAYER
 10
9.42963498687
 20
-17.4258511262
  0
VERTEX
  8
GSLAYER
 10
9.82028527139
 20
-17.4796673433
  0
VERTEX
  8
GSLAYER
 10
10.1486665153
 20
-17.6706452219
  0
VERTEX
  8
GSLAYER
 10
10.3706961709
 20
-18.0267524673
  0
VERTEX
  8
GSLAYER
 10
10.5524755036
 20
-18.4524524148
  0
VERTEX
  8
GSLAYER
 10
10.8063341394
 20
-18.8036299908
  0
VERTEX
  8
GSLAYER
 10
11.0787839988
 20
-19.1325649029
  0
VERTEX
  8
GSLAYER
 10
11.3186386765
 20
-19.4907939647
  0
VERTEX
  8
GSLAYER
 10
11.5576236173
 20
-19.8880672646
  0
VERTEX
  8
GSLAYER
 10
11.7362880627
 20
-20.317644595
  0
VERTEX
  8
GSLAYER
 10
11.602873383
 20
-20.7647157109
  0
VERTEX
  8
GSLAYER
 10
11.2969017118
 20
-21.005961771
  0
VERTEX
  8
GSLAYER
 10
10.9521335746
 20
-20.9199517558
  0
VERTEX
  8
GSLAYER
 10
10.6044931902
 20
-20.6674088684
  0
VERTEX
  8
GSLAYER
 10
10.2855107123
 20
-20.3846153846
  0
SEQEND
  0
POLYLINE
  8
GSLAYER
 62
7
 40
0.0
 41
0.0
 70
128
 30
6.5
 66
1
  0
VERTEX
  8
GSLAYER
 10
11.4444444444
 20
-15.4625181797
  0
VERTEX
  8
GSLAYER
 10
11.1810216752
 20
-15.7060175923
  0
VERTEX
  8
GSLAYER
 10
10.9058281965
 20
-15.9014111542
  0
VERTEX
  8
GSLAYER
 10
10.6186311582
 20
-16.0482305433
  0
VERTEX
  8
GSLAYER
 10
10.3186255183
 20
-16.1425977347
  0
VERTEX
  8
GSLAYER
 10
10.0167454033
 20
-16.2164332091
  0
VERTEX
  8
GSLAYER
 10
9.7126828281
 20
-16.249635727
  0
VERTEX
  8
GSLAYER
 10
9.40169984367
 20
-16.198232335
  0
VERTEX
  8
GSLAYER
 10
9.24237451188
 20
-15.9662929779
  0
VERTEX
  8
GSLAYER
 10
9.53965036873
 20
-15.8027997607
  0
VERTEX
  8
GSLAYER
 10
9.85882671659
 20
-15.8611651729
  0
VERTEX
  8
GSLAYER
 10
10.1745670796
 20
-15.9588476051
  0
VERTEX
  8
GSLAYER
 10
10.4616396887
 20
-15.9274783067
  0
VERTEX
  8
GSLAYER
 10
10.7127256554
 20
-15.715868063
  0
VERTEX
  8
GSLAYER
 10
10.9387868922
 20
-15.3909616387
  0
VERTEX
  8
GSLAYER
 10
11.1459942681
 20
-15
  0
SEQEND
  0
POLYLINE
  8
GSLAYER
 62
7
 40
0.0
 41
0.0
 70
129
 30
6.5
 66
1
  0
VERTEX
  8
GSLAYER
 10
11.0707915131
 20
-20.3846153846
  0
VERTEX
  8
GSLAYER
 10
10.7517182875
 20
-20.3115137295
  0
VERTEX
  8
GSLAYER
 10
10.4582856662
 20
-20.1730932944
  0
VERTEX
  8
GSLAYER
 10
10.2038921133
 20
-19.9309801928
  0
VERTEX
  8
GSLAYER
 10
9.97810094482
 20
-19.6157648637
  0
VERTEX
  8
GSLAYER
 10
9.74421062545
 20
-19.3341989884
  0
VERTEX
  8
GSLAYER
 10
9.46989108859
 20
-19.1702460746
  0
VERTEX
  8
GSLAYER
 10
9.15291193905
 20
-19.0276374683
  0
VERTEX
  8
GSLAYER
 10
8.80881447207
 20
-18.8118183022
  0
VERTEX
  8
GSLAYER
 10
8.51607746191
 20
-18.5466805765
  0
VERTEX
  8
GSLAYER
 10
8.37722006421
 20
-18.2613730393
  0
VERTEX
  8
GSLAYER
 10
8.49208915342
 20
-17.980963183
  0
VERTEX
  8
GSLAYER
 10
8.78407881235
 20
-17.7396613864
  0
VERTEX
  8
GSLAYER
 10
9.14582503513
 20
-17.5862619284
  0
VERTEX
  8
GSLAYER
 10
9.49831260354
 20
-17.5816994944
  0
VERTEX
  8
GSLAYER
 10
9.8143448998
 20
-17.7138384586
  0
VERTEX
  8
GSLAYER
 10
10.0829077558
 20
-17.9501214656
  0
VERTEX
  8
GSLAYER
 10
10.2828684566
 20
-18.2804455777
  0
VERTEX
  8
GSLAYER
 10
10.4590456476
 20
-18.6404817567
  0
VERTEX
  8
GSLAYER
 10
10.6743982635
 20
-18.9614433338
  0
VERTEX
  8
GSLAYER
 10
10.8940559725
 20
-19.2705093384
  0
VERTEX
  8
GSLAYER
 10
11.0914782215
 20
-19.5892477508
  0
VERTEX
  8
GSLAYER
 10
11.2843831892
 20
-19.9236551536
  0
VERTEX
  8
GSLAYER
 10
11.502242815
 20
-20.2796592239
  0
VERTEX
  8
GSLAYER
 10
11.3777082083
 20
-20.5837933904
  0
VERTEX
  8
GSLAYER
 10
11.0707915131
 20
-20.3846153846
  0
SEQEND
  0
POLYLINE
  8
GSLAYER
 62
7
 40
0.0
 41
0.0
 70
129
 30
7
 66
1
  0
VERTEX
  8
GSLAYER
 10
10.0176497007
 20
-19.3076923077
  0
VERTEX
  8
GSLAYER
 10
9.72981986738
 20
-19.1960362903
  0
VERTEX
  8
GSLAYER
 10
9.45219916686
 20
-19.0491770035
  0
VERTEX
  8
GSLAYER
 10
9.14397979091
 20
-18.8613494163
  0
VERTEX
  8
GSLAYER
 10
8.81117573109
 20
-18.6295792322
  0
VERTEX
  8
GSLAYER
 10
8.56936734072
 20
-18.3718371776
  0
VERTEX
  8
GSLAYER
 10
8.57422269468
 20
-18.1013764648
  0
VERTEX
  8
GSLAYER
 10
8.83027111691
 20
-17.8528397906
  0
VERTEX
  8
GSLAYER
 10
9.18280266876
 20
-17.6989428417
  0
VERTEX
  8
GSLAYER
 10
9.5219461122
 20
-17.7234619914
  0
VERTEX
  8
GSLAYER
 10
9.81529056946
 20
-17.8970630077
  0
VERTEX
  8
GSLAYER
 10
10.0432333336
 20
-18.1773411122
  0
VERTEX
  8
GSLAYER
 10
10.190109329
 20
-18.541170872
  0
VERTEX
  8
GSLAYER
 10
10.3746016566
 20
-18.9009738106
  0
VERTEX
  8
GSLAYER
 10
10.6127566416
 20
-19.2109893472
  0
VERTEX
  8
GSLAYER
 10
10.5111555963
 20
-19.5645176667
  0
VERTEX
  8
GSLAYER
 10
10.2387134416
 20
-19.677157708
  0
VERTEX
  8
GSLAYER
 10
10.0176497007
 20
-19.3076923077
  0
SEQEND
  0
POLYLINE
  8
GSLAYER
 62
7
 40
0.0
 41
0.0
 70
129
 30
7.5
 66
1
  0
VERTEX
  8
GSLAYER
 10
10.3220978914
 20
-19.3076923077
  0
VERTEX
  8
GSLAYER
 10
10.0895856008
 20
-19.2344389343
  0
VERTEX
  8
GSLAYER
 10
9.87321793894
 20
-19.1401122995
  0
VERTEX
  8
GSLAYER
 10
9.65930054572
 20
-19.026262254
  0
VERTEX
  8
GSLAYER
 10
9.43444245243
 20
-18.8920212659
  0
VERTEX
  8
GSLAYER
 10
9.18395480816
 20
-18.7340087572
  0
VERTEX
  8
GSLAYER
 10
8.91811610256
 20
-18.5513640822
  0
VERTEX
  8
GSLAYER
 10
8.72152041921
 20
-18.3522616647
  0
VERTEX
  8
GSLAYER
 10
8.71383744586
 20
-18.1416236718
  0
VERTEX
  8
GSLAYER
 10
8.90949910725
 20
-17.943808229
  0
VERTEX
  8
GSLAYER
 10
9.18473030971
 20
-17.8192181892
  0
VERTEX
  8
GSLAYER
 10
9.44961864858
 20
-17.8384049068
  0
VERTEX
  8
GSLAYER
 10
9.67899686195
 20
-17.9767482796
  0
VERTEX
  8
GSLAYER
 10
9.86056013892
 20
-18.194234612
  0
VERTEX
  8
GSLAYER
 10
9.97775104576
 20
-18.4718295539
  0
VERTEX
  8
GSLAYER
 10
10.0659534255
 20
-18.7783378057
  0
VERTEX
  8
GSLAYER
 10
10.1801790093
 20
-19.0781667674
  0
VERTEX
  8
GSLAYER
 10
10.3220978914
 20
-19.3076923077
  0
SEQEND
  0
POLYLINE
  8
GSLAYER
 62
7
 40
0.0
 41
0.0
 70
129
 30
8
 66
1
  0
VERTEX
  8
GSLAYER
 10
8.84044112847
 20
-18.2307692308
  0
VERTEX
  8
GSLAYER
 10
9.01970029144
 20
-18.0193788111
  0
VERTEX
  8
GSLAYER
 10
9.22048934955
 20
-17.9331427101
  0
VERTEX
  8
GSLAYER
 10
9.47297069118
 20
-17.9987423187
  0
VERTEX
  8
GSLAYER
 10
9.66774226066
 20
-18.1583256458
  0
VERTEX
  8
GSLAYER
 10
9.6437745738
 20
-18.3586078133
  0
VERTEX
  8
GSLAYER
 10
9.43255636913
 20
-18.538137156
  0
VERTEX
  8
GSLAYER
 10
9.19087958325
 20
-18.604390371
  0
VERTEX
  8
GSLAYER
 10
9.00631510662
 20
-18.4882233252
  0
VERTEX
  8
GSLAYER
 10
8.84044112847
 20
-18.2307692308
  0
SEQEND
  0
POLYLINE
  8
GSLAYER
 62
7
 40
0.0
 41
0.0
 70
129
 30
8.5
 66
1
  0
VERTEX
  8
GSLAYER
 10
8.99496185073
 20
-18.2307692308
  0
VERTEX
  8
GSLAYER
 10
9.10166829753
 20
-18.1049362178
  0
VERTEX
  8
GSLAYER
 10
9.22119070627
 20
-18.0536030097
  0
VERTEX
  8
GSLAYER
 10
9.37148364752
 20
-18.092652066
  0
VERTEX
  8
GSLAYER
 10
9.48742406459
 20
-18.1876462047
  0
VERTEX
  8
GSLAYER
 10
9.47315697408
 20
-18.30686688
  0
VERTEX
  8
GSLAYER
 10
9.34742647447
 20
-18.413734155
  0
VERTEX
  8
GSLAYER
 10
9.20356509149
 20
-18.4531722793
  0
VERTEX
  8
GSLAYER
 10
9.09370058482
 20
-18.3840222706
  0
VERTEX
  8
GSLAYER
 10
8.99496185073
 20
-18.2307692308
  0
SEQEND
  0
POLYLINE
  8
GSLAYER
 62
7
 40
0.0
 41
0.0
 70
129
 30
9
 66
1
  0
VERTEX
  8
GSLAYER
 10
9.14948257298
 20
-18.2307692308
  0
VERTEX
  8
GSLAYER
 10
9.18363630362
 20
-18.1904936246
  0
VERTEX
  8
GSLAYER
 10
9.221892063
 20
-18.1740633093
  0
VERTEX
  8
GSLAYER
 10
9.26999660387
 20
-18.1865618133
  0
VERTEX
  8
GSLAYER
 10
9.30710586852
 20
-18.2169667637
  0
VERTEX
  8
GSLAYER
 10
9.30253937436
 20
-18.2551259467
  0
VERTEX
  8
GSLAYER
 10
9.26229657981
 20
-18.2893311539
  0
VERTEX
  8
GSLAYER
 10
9.21625059973
 20
-18.3019541876
  0
VERTEX
  8
GSLAYER
 10
9.18108606301
 20
-18.2798212159
  0
VERTEX
  8
GSLAYER
 10
9.14948257298
 20
-18.2307692308
  0
SEQEND
  0
POLYLINE
  8
GSLAYER
 62
7
 40
0.0
 41
0.0
 70
128
 30
0.285882671659
 66
1
  0
VERTEX
  8
GSLAYER
 10
15.8888888889
 20
-29
  0
VERTEX
  8
GSLAYER
 10
14.7777777778
 20
-27.9230769231
  0
VERTEX
  8
GSLAYER
 10
14.7777777778
 20
-26.8461538462
  0
VERTEX
  8
GSLAYER
 10
14.7777777778
 20
-25.7692307692
  0
VERTEX
  8
GSLAYER
 10
13.6666666667
 20
-24.6923076923
  0
VERTEX
  8
GSLAYER
 10
13.6666666667
 20
-23.6153846154
  0
VERTEX
  8
GSLAYER
 10
13.6666666667
 20
-22.5384615385
  0
VERTEX
  8
GSLAYER
 10
13.6666666667
 20
-21.4615384615
  0
VERTEX
  8
GSLAYER
 10
12.5555555556
 20
-20.3846153846
  0
VERTEX
  8
GSLAYER
 10
12.5555555556
 20
-19.3076923077
  0
VERTEX
  8
GSLAYER
 10
11.4444444444
 20
-18.2307692308
  0
VERTEX
  8
GSLAYER
 10
11.4444444444
 20
-17.1538461538
  0
VERTEX
  8
GSLAYER
 10
11.4444444444
 20
-16.0769230769
  0
VERTEX
  8
GSLAYER
 10
11.4444444444
 20
-15
  0
SEQEND
  0
ENDSEC
  0
EOF
