/* XPM */
static char *48-48[] = {
/* width height num_colors chars_per_pixel */
"    48    48       26            1",
/* colors */
". c #000000",
"# c #2423b2",
"a c #b2bab2",
"b c #6984eb",
"c c #69a7eb",
"d c #625e62",
"e c #9a8ceb",
"f c #747874",
"g c #a4b6eb",
"h c #b0a699",
"i c #cabaeb",
"j c #a899ff",
"k c #dfe4eb",
"l c #b2baff",
"m c #ebbaeb",
"n c #c599ff",
"o c #ebe4eb",
"p c #ccbaff",
"q c #ebeeeb",
"r c #d6d8ff",
"s c #ebd8ff",
"t c #391462",
"u c #251c07",
"v c #403762",
"w c #645ceb",
"x c #445462",
/* pixels */
"bbwbbwbbwbbwbbwbbwbbwbbwbbwbbwbbwbbwbbwbbwbbwbbw",
"bbwbbwbbwbbwbbwbbwbbwbbwbbwbbwbbwbbwbbwbbwbbwbbw",
"bbbggeggeggeggeggeggeggegggeegeegeegeegeegeegbbb",
"wwgiikiikiikiikiikiikkkkookkkkiikiikiikiikiikeew",
"wwgiikiikiikiikiikiikkkkookkkkiikiikiikiikiikeew",
"bbeookkknkkollioolooloopppkppk...........dkkieeb",
"bbekkjookiiliiolliookppkoopkko...vvuvv....iiiggw",
"bbekkjookiiliiolliookppkoopkko...vvuvv....iiiggw",
"bbekkijjkkkmllkoolppoppprroppk..uiiiiiivv.ddieex",
"wwgnnkkkmllkookppollorrorrpoop..vkkkiiivv.xxieew",
"wwgnnkkkmllkookppollorrorrpoop..vkkkiiivv.xxieew",
"bbekkkiilkkollpoopoorpprrrorrk...vvuvv....ggieex",
"bbekkippkoopooprrqrrrqqrrrrppo...........dggixxw",
"bbekkippkoopooprrqrrrqqrrrrppo...........dggixxw",
"bbekkkeedkkloorpprrrriidrrqrro..vii...dggehhebbv",
"wwgjjo...vvorrorrorrr...ddrrrp..ukkx...iifeexvvw",
"wwgjjo...vvorrorrorrr...ddrrrp..ukkx...iifeexvvw",
"bbekki...uulooprrrssr...ffrppq..viii...vvxvvvwwx",
"bbekkk...vvoppqrrrssr...ddrqqp..ukkidd...v##x##b",
"bbekkk...vvoppqrrrssr...ddrqqp..ukkidd...v##x##b",
"bbekki...uukkkpqqrrrs...ddoooq..viigxx....vvwxxv",
"bbeppk...vvikkorrrssr...ddkppk..ueevvvv...vvxwww",
"bbeppk...vvikkorrrssr...ddkppk..ueevvvv...vvxwww",
"wwgiik.....ikkkoosrra...ddkkko..vvvx##vvv.vvvwwx",
"bbbeeevv...veeikklqqv...iikkkevvv##bxxbbbxbbbxxw",
"bbbeeevv...veeikklqqv...iikkkevvv##bxxbbbxbbbxxw",
"wwbbbvvv....vv#bbvww....xxvvvvwwxbbbeexbbbvvbvvb",
"bbvwwbww....vvvvvb.....vvvv##vbbbggebbebbxbbbwwv",
"bbvwwbww....vvvvvb.....vvvv##vbbbggebbebbxbbbwwv",
"wwbbbwxxv...vvxbbb.....vxx#vvxggeggbeebbbwxxwvvb",
"bbwvvbbbv.....beex...vvbeexvvbeegggebbebbxbbwbbw",
"bbwvvbbbv.....beex...vvbeexvvbeegggebbebbxbbwbbw",
"bbbbbvwwxtt...vxxt...xxexxwvvbggeccebbbbbbwwxwwx",
"bbvwwbbbbvv....xx....bbxbbvvvwccggggeebeebbbwbbw",
"bbvwwbbbbvv....xx....bbxbbvvvwccggggeebeebbbwbbw",
"wwbbbxwwvvv....tt...vxxexxbvvbggbeebbbbbbbvvbvvb",
"bbwwwwbbbbbv........vxxxbbvwwbeeeccebbebbwbbwbbw",
"bbwwwwbbbbbv........vxxxbbvwwbeeeccebbebbwbbwbbw",
"bbxbbbvvwvvv........xwwxbbxvvbbbbeebbbbbbxwwbvvb",
"wwbvvwbbvbbb......vvvvvvbbwwwbeebbbbbbbbbwxxwbbb",
"wwbvvwbbvbbb......vvvvvvbbwwwbeebbbbbbbbbwxxwbbb",
"bbwbbbwwbwwvvv....vvvvvxbbxvvbbbbbbbbbvwwbwwbbbw",
"wwxwwbxxwxxwvv...vvvvvvwbbwbbwbbbbbwbbbbbvbbwvvb",
"wwxwwbxxwxxwvv...vvvvvvwbbwbbwbbbbbwbbbbbvbbwvvb",
"bbwbbwbbwbbvwwvvvvvvvvvxbbvbbbbbvbbvwwwbbbwwbbbw",
"wwbvvbwwxwwbbbv##vvv#vvwvvbwwvwwbwwbbbbvvwbbxwwb",
"wwbvvbwwxwwbbbv##vvv#vvwvvbwwvwwbwwbbbbvvwbbxwwb",
"bbbbbwbbbwwbvv#xxvvvvvvvbbwbbbbbwbbbvvwbbbwwbwwb"
};
