/* XPM */
static const char * bigeye_xpm[] = {
"21 14 3 1",
" 	c None",
".	c #000000",
"+	c #FFFFFF",
"       .......       ",
"     ...........     ",
"   ...............   ",
"  .................  ",
" ....++....+..++.... ",
"....++.........+++...",
"..++++.........+++++.",
"..++++.........++++..",
" ...+++.......++++.. ",
"  ...++.......++...  ",
"   ....+.....+....   ",
"     ...........     ",
"       .......       ",
"                     "};
