/* XPM */
static const char *bookmarks_xpm[] = {
/* columns rows colors chars-per-pixel */
"96 21 71 1",
"  c None",
". c #020e12",
"X c #021419",
"o c #011c24",
"O c #01222b",
"+ c #032b35",
"@ c #05323d",
"# c #073946",
"$ c #003f50",
"% c #123e49",
"& c #0d414e",
"* c #074657",
"= c #144a58",
"- c #18505f",
"; c #034f62",
": c #0a5264",
"> c #085d73",
", c #195766",
"< c #1a5e70",
"1 c #0b6379",
"2 c #1b687b",
"3 c #235a68",
"4 c #29606e",
"5 c #286777",
"6 c #356d7b",
"7 c #39717f",
"8 c #1e7389",
"9 c #2a6f81",
"0 c #2e7789",
"q c #3b7584",
"w c #327e91",
"e c #447a88",
"r c #2b849a",
"t c #388396",
"y c #49818f",
"u c #4a8999",
"i c #528c9a",
"p c #57909f",
"a c #4e90a0",
"s c #499bb0",
"d c #5795a4",
"f c #599fb1",
"g c #5ea1b2",
"h c #669ca9",
"j c #6ca1af",
"k c #69a7b7",
"l c #71a1ae",
"z c #76aab8",
"x c #7ab6c5",
"c c #78bed0",
"v c #82adb8",
"b c #86b2bd",
"n c #88bcc9",
"m c #97bcc6",
"M c #86c0cf",
"N c #89c4d3",
"B c #99c2cd",
"V c #97c8d5",
"C c #97d0de",
"Z c #a5c5ce",
"A c #a5ccd6",
"S c #a9d2dd",
"D c #b3ccd3",
"F c #b6d4dc",
"G c #acd7e2",
"H c #b9dbe4",
"J c #c6d8dc",
"K c #c4dde3",
"L c #cce3e8",
"P c #d4e7ec",
"I c None",
/* pixels */
"                                                                                                ",
"                                                                                                ",
"                                                                                                ",
"    ..X...                       .o+o                                      X++.                 ",
"   X3eqe6#X.                     .eV3.                                     @vv+                 ",
"   OzSFVKV5X                     opV7.                                    .#Bm@.                ",
"   +zNw;aLn@.    ..       .. .   oiN6.         . .    ..      .        .  X%Vm#.       . ..     ",
"   @zM<+*ZV#  .O*-=+X   .X#--@X .opN6XXO%+.X#%+o%=+XX@&+X  .o#-=@X  .#%OO#@=Vm#.X@%O  X#--%o    ",
"   +xM<@:ZfO.X%iAFFh&X X@qmFFn<o.oiN9o+en3XOhV2yBHd$4zKh%. +ezDFz&X +kM2enq*Vm$o%kj@.o5mHFA=    ",
"  .+zVy9jd#. +hKhqiDm=XOiKjqeZD3XOaNq+4Huo.+zCChuZJzktbPio.=h7emGao.@zNVp6=*Vm=#lF=X.%BKaep%.   ",
"  .+zcKJJ8@XX=Fm$O+iPyO#BA=O+0Lh+OiCt1nn#..+lCk##wKG<+2FlO.O#@*rCaO.#kNj+XX*VZ>tGyO..3Vn1$OX    ",
"   +xCfwzSy+o7LaO.X<Hz#<Hl+.X*Am#+iNxVB;o .+vG<oXeHd+o,Fz+XO-dznMdo.@zN,X..%NFxHg@X  #cHNa=X    ",
"   +xM<+*nH5+eKyo X,Fz#5HhO..*NB%+acGGS9O. @zS-.X7KioX,Gl+OqAFnAcdO.#zx=. .%NHFCx*X  o,kAKM,.   ",
"  .+zM3o+tGa+5Kg+Xo6Lf+,Hn#.X,Fv#ouCsgKA-X.+vS,.o7HioX,Gz#,VS0*tNd+.#kn=  .$VArnGg+. XX#2xPho   ",
"   +zM2#:nHqO&ZS>@*vK5o@xJ5#$dPyoOiMw*dLk#X@vS-.XqHio.,Sv@4Gn>*uGj#o#zn=.  %Bm:<nH9oX%3=*uLdo   ",
"   +nGAbDPz@XOqKFbZKp@XX5HDbmLx%XoiGqo#dPz%#bF=.XqKio.-Fz+#kPZxxVJl#@xN&  .#VZ#o,BKe+-AZnJm-.   ",
"   oezvvbi#X .+5lvvq@. .o,hvvi#X.X4h=.X+il4+ed+..=j3X.@h7XX&dvp-*hh@Oyi+   OiiO.X-ld&+qzvl,X    ",
"    XOOOOX.    XoOOX.    .oOOX.   XX.  .XoXXXX.  .o.  .XX. .ooX.XXX..XX.   .XX.  XXoX.XoOo.     ",
"       .                                                                                        ",
"                                                                                                ",
"                                                                                                "
};
