/* XPM */
static const char * cart_xpm[] = {
"17 17 70 1",
" 	c None",
".	c #9D9D9D",
"+	c #9B9B9B",
"@	c #7C7C7C",
"#	c #9C9C9C",
"$	c #D0D0D0",
"%	c #787878",
"&	c #9A9A9A",
"*	c #AEAEAE",
"=	c #8E8E8E",
"-	c #C5C5C5",
";	c #6B6B6B",
">	c #6E6E6E",
",	c #626262",
"'	c #656565",
")	c #5E5E5E",
"!	c #616161",
"~	c #636363",
"{	c #606060",
"]	c #686868",
"^	c #4B4B4B",
"/	c #808080",
"(	c #707070",
"_	c #8D8D8D",
":	c #7D7D7D",
"<	c #878787",
"[	c #848484",
"}	c #7E7E7E",
"|	c #8B8B8B",
"1	c #C4C4C4",
"2	c #4C4C4C",
"3	c #888888",
"4	c #8F8F8F",
"5	c #858585",
"6	c #898989",
"7	c #7B7B7B",
"8	c #838383",
"9	c #4E4E4E",
"0	c #666666",
"a	c #828282",
"b	c #7A7A7A",
"c	c #3D3D3D",
"d	c #5D5D5D",
"e	c #818181",
"f	c #8A8A8A",
"g	c #757575",
"h	c #7F7F7F",
"i	c #9E9E9E",
"j	c #2E2E2E",
"k	c #535353",
"l	c #5A5A5A",
"m	c #525252",
"n	c #454545",
"o	c #555555",
"p	c #ABABAB",
"q	c #696969",
"r	c #737373",
"s	c #959595",
"t	c #969696",
"u	c #989898",
"v	c #979797",
"w	c #868686",
"x	c #676767",
"y	c #5F5F5F",
"z	c #999999",
"A	c #585858",
"B	c #5C5C5C",
"C	c #A1A1A1",
"D	c #8C8C8C",
"E	c #444444",
"                 ",
"              .+ ",
"              @# ",
"             $%& ",
"            *=-  ",
" ;>,')!~{,~]).   ",
" ^/(_:<_[<}|[1   ",
" 2>{3%3456785    ",
"  905(a<:b@a=    ",
"  cde(<fegh:i    ",
"  )jk2dlmn9op    ",
"   ;90>q'!{r     ",
"    <4stuv4:     ",
"   w]x]]qq]y     ",
"   zA:   v)5     ",
"   e^]   eB0     ",
"   Cos   DE:     "};
