/* XPM */
static const char * chat_xpm[] = {
"18 18 160 2",
"  	c None",
". 	c #949699",
"+ 	c #999B9E",
"@ 	c #9C9EA0",
"# 	c #97999D",
"$ 	c #B2B6BC",
"% 	c #BFC7D4",
"& 	c #C3CCDC",
"* 	c #C4CFE0",
"= 	c #C2CCDC",
"- 	c #BEC6D4",
"; 	c #979A9D",
"> 	c #9B9FA3",
", 	c #C0C7D3",
"' 	c #BDC8DC",
") 	c #B1BFD8",
"! 	c #A4B2CE",
"~ 	c #7D89AE",
"{ 	c #838FB3",
"] 	c #A9B8D2",
"^ 	c #929498",
"/ 	c #C8D0DF",
"( 	c #B2C0D8",
"_ 	c #ADBBD5",
": 	c #ACBCD5",
"< 	c #929FC0",
"[ 	c #646C9A",
"} 	c #69729E",
"| 	c #9CAAC8",
"1 	c #ADBCD5",
"2 	c #919498",
"3 	c #797B7D",
"4 	c #BAC0C9",
"5 	c #B7C5DB",
"6 	c #B0BFD7",
"7 	c #AFBED7",
"8 	c #AFBDD5",
"9 	c #A0ACCA",
"0 	c #858FB4",
"a 	c #8691B5",
"b 	c #A9B7D1",
"c 	c #B0BED7",
"d 	c #AFBED6",
"e 	c #B7C4DB",
"f 	c #8E9196",
"g 	c #C3CCDA",
"h 	c #B3C1D9",
"i 	c #B2C1D9",
"j 	c #A4B0CC",
"k 	c #747DA6",
"l 	c #717AA4",
"m 	c #7982AA",
"n 	c #A4B0CD",
"o 	c #B2C0D9",
"p 	c #B2C1D8",
"q 	c #969AA0",
"r 	c #C1CCDD",
"s 	c #B7C4DA",
"t 	c #AAB5D0",
"u 	c #7982A9",
"v 	c #676E9A",
"w 	c #6E76A0",
"x 	c #A3AFCB",
"y 	c #C1CBDD",
"z 	c #979AA0",
"A 	c #93979E",
"B 	c #C0CBDE",
"C 	c #BBC7DD",
"D 	c #BBC7DC",
"E 	c #BAC7DC",
"F 	c #AEB9D3",
"G 	c #747CA5",
"H 	c #7078A2",
"I 	c #A7B2CD",
"J 	c #BAC7DD",
"K 	c #C1CBDE",
"L 	c #83878F",
"M 	c #BEC9DB",
"N 	c #BECADE",
"O 	c #BFCADE",
"P 	c #BECADF",
"Q 	c #B3BDD6",
"R 	c #777EA7",
"S 	c #727AA4",
"T 	c #AAB4CF",
"U 	c #BFCADF",
"V 	c #BEC9DF",
"W 	c #BFC8DB",
"X 	c #84888F",
"Y 	c #65676D",
"Z 	c #B4BDCD",
"` 	c #C3CDE1",
" .	c #C3CEE1",
"..	c #B6C0D7",
"+.	c #7980A8",
"@.	c #757BA5",
"#.	c #ADB7D0",
"$.	c #65686D",
"%.	c #404142",
"&.	c #9096A0",
"*.	c #C6D0E2",
"=.	c #BDC6DB",
"-.	c #949BBD",
";.	c #7379A3",
">.	c #7176A2",
",.	c #8D93B7",
"'.	c #B4BDD5",
").	c #C6D0E3",
"!.	c #9196A1",
"~.	c #515356",
"{.	c #C2CADA",
"].	c #CAD3E4",
"^.	c #C9D3E4",
"/.	c #B5BDD4",
"(.	c #7176A1",
"_.	c #6D729F",
":.	c #A4ADC9",
"<.	c #B1B8C7",
"[.	c #4D4F51",
"}.	c #5F6166",
"|.	c #B7BFCD",
"1.	c #C5CDDD",
"2.	c #CCD4E5",
"3.	c #CBD3E4",
"4.	c #BEC7DB",
"5.	c #C8D1E2",
"6.	c #CBD3E5",
"7.	c #C1C9DD",
"8.	c #C9D2E3",
"9.	c #C0C8D8",
"0.	c #9A9FAA",
"a.	c #4E4F53",
"b.	c #313233",
"c.	c #8D929B",
"d.	c #BDC5D3",
"e.	c #B6BECB",
"f.	c #ACB3BF",
"g.	c #A0A6B1",
"h.	c #B1B8C5",
"i.	c #BFC6D4",
"j.	c #B2B8C5",
"k.	c #9CA2AD",
"l.	c #696D73",
"m.	c #393A3C",
"n.	c #151515",
"o.	c #4D4F53",
"p.	c #B2B9C5",
"q.	c #A3A9B4",
"r.	c #6A6D73",
"s.	c #3F4043",
"t.	c #303133",
"u.	c #3D3F41",
"v.	c #47494C",
"w.	c #2E2F30",
"x.	c #151516",
"y.	c #404245",
"z.	c #4E5054",
"A.	c #232323",
"B.	c #0C0C0C",
"C.	c #0B0B0B",
"            . + @ @ + .             ",
"        # $ % & * * = - $ ;         ",
"      > , ' ) ! ~ { ] ) ' , >       ",
"    ^ / ( _ : < [ } | 1 1 ( / 2     ",
"  3 4 5 6 7 8 9 0 a b 7 c d e 4 3   ",
"  f g h i i j k l m n o o p h g f   ",
"  q r s s s t u v w x s e s s y z   ",
"  A B C D E D F G H I D J D C K A   ",
"  L M N O P N Q R S T N P U V W X   ",
"  Y Z ` ` `  ...+.@.#.`  . . .Z $.  ",
"  %.&.*.*.*.=.-.;.>.,.'.).*.*.!.%.  ",
"    ~.{.].^./.(._._._.:.^.^.<.[.    ",
"    }.|.1.2.3.4.5.6.7.8.9.0.a.      ",
"  b.c.d.e.f.g.h.- i.j.k.l.m.n.      ",
"  o.p.q.r.s.t.u.v.v.u.w.x.          ",
"  y.z.A.B.                          ",
"    C.                              ",
"                                    "};
