/* XPM */
static const char *down_xpm[] = {
/* width height num_colors chars_per_pixel */
"    25    24      129            2",
/* colors */
".. c None",
".# c None",
".a c None",
".b c None",
".c c #010607",
".d c #02090b",
".e c #020b0d",
".f c #020a0c",
".g c #010708",
".h c #010304",
".i c #031216",
".j c #051a20",
".k c #051e24",
".l c #051b21",
".m c #041418",
".n c #010405",
".o c #04161a",
".p c #07272f",
".q c #246170",
".r c #276676",
".s c #246171",
".t c #082d36",
".u c #04181d",
".v c #010506",
".w c #031115",
".x c #07262e",
".y c #3e7e8e",
".z c #d8eef3",
".A c #82b5c2",
".B c #badae2",
".C c #5894a3",
".D c #072932",
".E c #031317",
".F c #051c22",
".G c #0a3945",
".H c #6cacbc",
".I c #13687e",
".J c #519aad",
".K c #badbe3",
".L c #0b3c49",
".M c #061f26",
".N c #020c0e",
".O c #082b34",
".P c #1c6476",
".Q c #e2f2f7",
".R c #4196ac",
".S c #3593ab",
".T c #3f95ab",
".U c #e2f3f7",
".V c #458b9c",
".W c #082f39",
".X c #041519",
".Y c #0b3c48",
".Z c #a0cbd6",
".0 c #b2d6e0",
".1 c #e5f5f8",
".2 c #8dc5d4",
".3 c #7cb9c9",
".4 c #c1dfe7",
".5 c #0c414f",
".6 c #062027",
".7 c #1b6578",
".8 c #e4f3f8",
".9 c #7fbccb",
"#. c #c5e3ea",
"## c #146d84",
"#a c #a7d3de",
"#b c #b3d8e2",
"#c c #e5f4f8",
"#d c #458d9e",
"#e c #09303a",
"#f c #a1ccd6",
"#g c #b2d7e1",
"#h c #4997ab",
"#i c #10586a",
"#j c #1f758b",
"#k c #c1e0e7",
"#l c #031013",
"#m c #072830",
"#n c #1b6375",
"#o c #7ebac9",
"#p c #c2e0e8",
"#q c #0e4c5c",
"#r c #0b3f4c",
"#s c #0d4a5a",
"#t c #c0e0e8",
"#u c #7bb8c8",
"#v c #e7f6fa",
"#w c #09313b",
"#x c #9fc8d3",
"#y c #b2d5de",
"#z c #e7f5f8",
"#A c #478fa2",
"#B c #0a3742",
"#C c #072931",
"#D c #0a3540",
"#E c #458c9e",
"#F c #7ab5c4",
"#G c #bfdde4",
"#H c #0a3641",
"#I c #010709",
"#J c #10424f",
"#K c #dcf0f6",
"#L c #79afbd",
"#M c #dff2f6",
"#N c #0c414e",
"#O c #07242c",
"#P c #062229",
"#Q c #0b3d4a",
"#R c #bddce4",
"#S c #77aebc",
"#T c #ddf0f6",
"#U c #357384",
"#V c #01080a",
"#W c #3e7c8b",
"#X c #b6d8e0",
"#Y c #5994a3",
"#Z c #082a33",
"#0 c #020c0f",
"#1 c #3c7b8c",
"#2 c #b6d7df",
"#3 c #407d8d",
"#4 c #062128",
"#5 c #07272e",
"#6 c #04161b",
"#7 c #082c35",
"#8 c #020d10",
"#9 c #031114",
"a. c #030e11",
/* pixels */
"..................................................",
"..................................................",
"..................................................",
"..................................................",
"...........#.a.h.n.h.a.#...#.b.n.n.h.a.#..........",
".........#.h#Va.#9#8#I.h.a.n.da.#9#8#I.b.#........",
".........h.f.o#P#7#4.m.d.c.f#6#5#C#4.m#V.b........",
".......#.c.i#m#3#2#1.p.m#0.o#Z#Y#X#W#O#l.n.#......",
".......a#V.u#U#T#S#R#Q#P.u#O#N#M#L#K#J.X.c.#......",
".......a#I.u#H#G#F#c#E#D#C#B#A#z#y#x#w.m.c.#......",
".......#.v.i.t.V#v#u#t#s#r#q#p#o.8#n#m#l.n........",
".........b.N.6.5#k.3#c#j#i#h#c#g#f.Y.F.d.a........",
".........#.c.X#e#d#c#b#a###..9.8.7.O.w.v.#........",
"...........h.N.6.5.4.3.1.2.1.0.Z.Y.F.f.a..........",
"...........#.c.X.W.V.U.T.S.R.Q.P.O.w.v.#..........",
".............h.N.M.L.K.J.I.H.B.G.F.f.b............",
".............#.c.E.D.C.B.A.z.y.x.w.v.#............",
"...............b.f.u.t.s.r.q.p.o.d.b..............",
"...............#.n.e.m.l.k.j.i.d.h.#..............",
".................#.h.g.f.e.d.c.b.#................",
"...................#.#.a.a.a.#....................",
"..................................................",
"..................................................",
".................................................."
};
