/* XPM */
static char * downarrow_xpm[] = {
"17 17 5 1",
" 	c None",
".	c #B5B5B5",
"+	c #8C8C8C",
"@	c #6B6B6B",
"#	c #DEDEDE",
"                 ",
"                 ",
"     .+@@@+.#    ",
"   #+@@@@@@@+#   ",
"   .@@@@@@@@@+   ",
"  .@@@@@@@@@@@.  ",
"  +@@@@@@@@@@@+  ",
"  +@@@     @@@@  ",
"  @@@@.   .@@@@  ",
"  +@@@@   @@@@@  ",
"  +@@@@. .@@@@+  ",
"  .@@@@@.@@@@@.  ",
"   .@@@@@@@@@+   ",
"   #.@@@@@@@+    ",
"     .+@@++.     ",
"                 ",
"                 "};
