/* XPM */
static const char * exit_xpm[] = {
"18 18 181 2",
"  	c None",
". 	c None",
"+ 	c #D8E8EB",
"@ 	c #B2B1B3",
"# 	c #9F7877",
"$ 	c #AA7978",
"% 	c #A97877",
"& 	c #9E7B7B",
"* 	c #BABDBF",
"= 	c #BCC6C8",
"- 	c #8A5351",
"; 	c #D2A3A1",
"> 	c #FFF7F6",
", 	c #FFFFFF",
"' 	c #FDF1F0",
") 	c #C6918F",
"! 	c #885958",
"~ 	c #C6D3D6",
"{ 	c #B6BEC0",
"] 	c #91332F",
"^ 	c #FCDEDD",
"/ 	c #F5E3E2",
"( 	c #EAC7C6",
"_ 	c #EBCBC9",
": 	c #EBCAC9",
"< 	c #EAC8C7",
"[ 	c #F8EBEA",
"} 	c #F6CAC8",
"| 	c #83322F",
"1 	c #C3CFD2",
"2 	c #CFDFE1",
"3 	c #7F2A27",
"4 	c #FC7771",
"5 	c #ECB6B4",
"6 	c #F0D7D6",
"7 	c #EBC2C0",
"8 	c #E9AFAC",
"9 	c #EAB2B0",
"0 	c #ECC8C6",
"a 	c #EED0CF",
"b 	c #EFBAB8",
"c 	c #F65E57",
"d 	c #7A3E3D",
"e 	c #D6E6E9",
"f 	c #8F8385",
"g 	c #DB150C",
"h 	c #F15D56",
"i 	c #F1DAD8",
"j 	c #E78E8A",
"k 	c #FD9B96",
"l 	c #ECAAA7",
"m 	c #EE9994",
"n 	c #FB9893",
"o 	c #E69895",
"p 	c #EFD0CF",
"q 	c #F64E46",
"r 	c #C3130B",
"s 	c #A2A3A5",
"t 	c #833735",
"u 	c #FD1D12",
"v 	c #E8807B",
"w 	c #E99E9B",
"x 	c #FE6961",
"y 	c #FE6962",
"z 	c #F0B6B3",
"A 	c #EF8D88",
"B 	c #FF6A62",
"C 	c #FC675F",
"D 	c #EBB5B2",
"E 	c #E76059",
"F 	c #F61A10",
"G 	c #835454",
"H 	c #D7E8EB",
"I 	c #CEDFE1",
"J 	c #951712",
"K 	c #FE271D",
"L 	c #E9B7B5",
"M 	c #E95C55",
"N 	c #FF4B43",
"O 	c #FE4B43",
"P 	c #F0B2AF",
"Q 	c #EF817B",
"R 	c #EA756F",
"S 	c #E89A97",
"T 	c #FE251B",
"U 	c #8A2E2B",
"V 	c #D4E5E8",
"W 	c #CADADD",
"X 	c #9C130E",
"Y 	c #FE3228",
"Z 	c #E9BEBC",
"` 	c #E8463E",
" .	c #FF4139",
"..	c #FE4941",
"+.	c #EF807B",
"@.	c #FF4840",
"#.	c #FF4037",
"$.	c #E9615A",
"%.	c #E9A4A0",
"&.	c #FF2F25",
"*.	c #902824",
"=.	c #D2E2E5",
"-.	c #CEDEE1",
";.	c #8F2420",
">.	c #FF382E",
",.	c #E89A96",
"'.	c #E77873",
").	c #FE4036",
"!.	c #EEABA8",
"~.	c #EE7771",
"{.	c #E7928E",
"].	c #FD3127",
"^.	c #863C3A",
"/.	c #D4E4E7",
"(.	c #D5E6E9",
"_.	c #7D5352",
":.	c #F52D23",
"<.	c #E9564F",
"[.	c #F0D5D4",
"}.	c #EC4F47",
"|.	c #FE4D44",
"1.	c #EEAAA7",
"2.	c #EE7974",
"3.	c #FF4D45",
"4.	c #E75750",
"5.	c #F1D6D5",
"6.	c #EE4C45",
"7.	c #E8231A",
"8.	c #837071",
"9.	c #A2ABAE",
"0.	c #A9130D",
"a.	c #FE483F",
"b.	c #E3746F",
"c.	c #E77D78",
"d.	c #DD4F48",
"e.	c #E15049",
"f.	c #E68682",
"g.	c #F1D7D6",
"h.	c #E6655F",
"i.	c #FE4239",
"j.	c #921813",
"k.	c #B4C2C4",
"l.	c #D1E2E5",
"m.	c #726363",
"n.	c #C8150D",
"o.	c #FE473E",
"p.	c #E95B54",
"q.	c #E8A09C",
"r.	c #EBC6C4",
"s.	c #EBC3C1",
"t.	c #E79794",
"u.	c #EB554D",
"v.	c #B2120B",
"w.	c #7F7C7D",
"x.	c #C7D6D9",
"y.	c #675A5A",
"z.	c #9E0F09",
"A.	c #F52C23",
"B.	c #FE453C",
"C.	c #FB4C44",
"D.	c #FC4C44",
"E.	c #FE433A",
"F.	c #EF271E",
"G.	c #8D110C",
"H.	c #726E6F",
"I.	c #CDDDE0",
"J.	c #CCDCDF",
"K.	c #879192",
"L.	c #563737",
"M.	c #761410",
"N.	c #910C07",
"O.	c #8E0D07",
"P.	c #711713",
"Q.	c #564040",
"R.	c #949FA1",
"S.	c #D0E1E4",
"T.	c #C9D9DB",
"U.	c #ADBBBE",
"V.	c #9BA7A9",
"W.	c #9CA9AB",
"X.	c #B1BFC2",
". . . . . . . . . . . . . . . . . . ",
". . . . . . . . . . . . . . . . . . ",
". . . . . + @ # $ % & * . . . . . . ",
". . . . = - ; > , , ' ) ! ~ . . . . ",
". . . { ] ^ / ( _ : < [ } | 1 . . . ",
". . 2 3 4 5 6 7 8 9 0 a b c d e . . ",
". . f g h i j k l m n o p q r s . . ",
". e t u v w x y z A B C D E F G H . ",
". I J K L M N O P Q N N R S T U V . ",
". W X Y Z `  ...P +.@.#.$.%.&.*.=.. ",
". -.;.>.,.'.#.).!.~.#.).{.v ].^./.. ",
". (._.:.<.[.}.|.1.2.3.4.5.6.7.8.H . ",
". . 9.0.a.b.[.c.d.e.f.g.h.i.j.k.. . ",
". . l.m.n.o.p.q.r.s.t.u.i.v.w.(.. . ",
". . . x.y.z.A.B.C.D.E.F.G.H.I.. . . ",
". . . . J.K.L.M.N.O.P.Q.R.S.. . . . ",
". . . . . H T.U.V.W.X.J.H . . . . . ",
". . . . . . . . . . . . . . . . . . "};
