/* XPM */
static const char *file_xpm[] = {
/* columns rows colors chars-per-pixel */
"34 21 99 2",
"   c none",
".  c #010708",
"X  c #010a0c",
"o  c #010e12",
"O  c #011116",
"+  c #02151a",
"@  c #02191f",
"#  c #011c23",
"$  c #001e28",
"%  c #062027",
"&  c #02232b",
"*  c #09272f",
"=  c #042933",
"-  c #012e3a",
";  c #092d36",
":  c #082e38",
">  c #02313d",
",  c #09303a",
"<  c #033542",
"1  c #073845",
"2  c #0d3540",
"3  c #0c3a46",
"4  c #093d4a",
"5  c #153f49",
"6  c #0f404d",
"7  c #024252",
"8  c #00485d",
"9  c #094452",
"0  c #0b4b5b",
"q  c #14404b",
"w  c #134957",
"e  c #154e5c",
"r  c #1c4e5b",
"t  c #15505f",
"y  c #005e78",
"u  c #165261",
"i  c #195260",
"p  c #1e6071",
"a  c #215562",
"s  c #235866",
"d  c #225c6b",
"f  c #285c69",
"g  c #2d616e",
"h  c #2c6675",
"j  c #366874",
"k  c #356e7c",
"l  c #076983",
"z  c #307485",
"x  c #307b8e",
"c  c #3d7584",
"v  c #3d7f90",
"b  c #427784",
"n  c #447c8a",
"m  c #43808e",
"M  c #418698",
"N  c #5294a5",
"B  c #5c93a1",
"V  c #599daf",
"C  c #6a9ba7",
"Z  c #709aa5",
"A  c #6da0ad",
"S  c #6ca7b6",
"D  c #75a7b4",
"F  c #73a9b7",
"G  c #75acba",
"H  c #7ea7b1",
"J  c #7ba9b5",
"K  c #7fb1be",
"L  c #85adb7",
"P  c #85afb9",
"I  c #89afb9",
"U  c #87b0ba",
"Y  c #89b1bb",
"T  c #83b5c2",
"R  c #84bfcd",
"E  c #8cb6c1",
"W  c #8ebecb",
"Q  c #95bcc6",
"!  c #8fc1ce",
"~  c #85c2d2",
"^  c #8bc5d3",
"/  c #9cc3cd",
"(  c #95cbd9",
")  c #9bc6d0",
"_  c #98cad6",
"`  c #9bcdda",
"'  c #9ed1de",
"]  c #a3c1c8",
"[  c #a6c9d1",
"{  c #a5cfda",
"}  c #a6d1dc",
"|  c #aad2dd",
" . c #b4ced5",
".. c #bcd5dc",
"X. c #add5e0",
"o. c #afd9e3",
"O. c #cadee3",
"+. c #c9e2e8",
"@. c #d4e4e8",
/* pixels */
"                                                                    ",
"                                                                    ",
"          .         .               .                               ",
"      . X o O + + o X . . X X . . o * ; O .                         ",
"      + r c c c b b g # # a h & X & Z Q 3 .                         ",
"    . & F X.| ) / ) S : & H { q o - I | e X                         ",
"    . = F ( x 7 5 1 = + # k n : O > P { e X .   . . . . .           ",
"    . = G ~ d + o . . . # 9 0 & o , I { e X . X # 4 e 4 # .         ",
"    . = G ~ p # o X . . & C ! 6 O > Y } e O O > n / ../ h # X       ",
"    . = G ( M u r q # o - I | t + > Y } e O # c O.G v F [ s O .     ",
"    . = G ~ O. ...W 3 o > L } e + > Y } t + < ] _ y 8 l ..L & .     ",
"    . * G ( V z k f # o - I } u + > I | t @ g ( ' T J ! o.[ , .     ",
"    . = G ^ p # O X . X : I } u + > Y } t # j ( ' / E E G B & .     ",
"    . = G ! d o .     . - I } t + > Y } t @ t ..^ y 7 < < & O       ",
"    . = F R s o       X - L { e + > P } t + - C @.N 7 < > 5 + .     ",
"    . & K ` i X       . = U X.e O - Y | w X O 4 J +.] Y Y D % .     ",
"    . + n B 2 .       . # n B : X @ m B : . . O > m U P A a + .     ",
"      . + + o           . + + o . X + O X     . X + # $ # o .       ",
"          .               .         . .           . . . .           ",
"                                                                    ",
"                                                                    "
};
