/* XPM */
static const char * grid2d_xpm[] = {
"16 16 2 1",
" 	c None",
".	c gray30",
"                ",
"     .    .     ",
"     .    .     ",
"     .    .     ",
"     .    .     ",
" .............. ",
"     .    .     ",
"     .    .     ",
"     .    .     ",
"     .    .     ",
" .............. ",
"     .    .     ",
"     .    .     ",
"     .    .     ",
"     .    .     ",
"                "};
