/* XPM */
static const char * grid3d_xpm[] = {
"16 16 2 1",
" 	c None",
".	c gray30",
"                ",
"   .  .  .  .   ",
"   .  .  .  .   ",
" .............. ",
"   .  .  .  .   ",
"   .  .  .  .   ",
" .............. ",
"   .  .  .  .   ",
"   .  .  .  .   ",
" .............. ",
"   .  .  .  .   ",
"   .  .  .  .   ",
" .............. ",
"   .  .  .  .   ",
"   .  .  .  .   ",
"                "};
