/* XPM */
static const char *jumelles_xpm[] = {
/* columns rows colors chars-per-pixel */
"14 16 224 2 ",
"   c white",
".  c white",
"X  c white",
"o  c white",
"O  c white",
"+  c white",
"@  c white",
"#  c white",
"$  c white",
"%  c white",
"&  c white",
"*  c white",
"=  c white",
"-  c white",
";  c white",
":  c white",
">  c white",
",  c white",
"<  c white",
"1  c white",
"2  c white",
"3  c white",
"4  c white",
"5  c white",
"6  c white",
"7  c white",
"8  c white",
"9  c white",
"0  c white",
"q  c white",
"w  c white",
"e  c white",
"r  c white",
"t  c white",
"y  c white",
"u  c white",
"i  c white",
"p  c white",
"a  c white",
"s  c white",
"d  c white",
"f  c white",
"g  c white",
"h  c white",
"j  c white",
"k  c #FCFCFC",
"l  c #B3B3B5",
"z  c #949497",
"x  c #EFEFF0",
"c  c #EFEFEF",
"v  c #949497",
"b  c #B4B4B6",
"n  c #FCFCFC",
"m  c white",
"M  c white",
"N  c white",
"B  c white",
"V  c white",
"C  c white",
"Z  c #C6C6C8",
"A  c #77777B",
"S  c #6C6C71",
"D  c #D3D3D4",
"F  c #D2D2D4",
"G  c #6C6C70",
"H  c #77777B",
"J  c #C7C7C9",
"K  c white",
"L  c white",
"P  c white",
"I  c white",
"U  c white",
"Y  c #E1E1E2",
"T  c #5F5F64",
"R  c #434349",
"E  c #505056",
"W  c #AEAEB0",
"Q  c #ADADB0",
"!  c #505056",
"~  c #434349",
"^  c #606065",
"/  c #E2E2E3",
"(  c white",
")  c white",
"_  c white",
"`  c #F6F6F7",
"'  c #828286",
"]  c #3E3E44",
"[  c #3F3F45",
"{  c #46464C",
"}  c #69696E",
"|  c #69696E",
" . c #46464C",
".. c #3F3F45",
"X. c #3E3E44",
"o. c #838387",
"O. c #F7F7F7",
"+. c white",
"@. c #FEFEFE",
"#. c #ADADB0",
"$. c #434349",
"%. c #424248",
"&. c #3C3C42",
"*. c #6B6B70",
"=. c #CFCFD1",
"-. c #CFCFD1",
";. c #6B6B6F",
":. c #3C3C42",
">. c #424248",
",. c #434349",
"<. c #AEAEB0",
"1. c #FEFEFE",
"2. c #CFCFD0",
"3. c #717175",
"4. c #ACACAE",
"5. c #C0C0C2",
"6. c #838387",
"7. c #47474D",
"8. c #58585E",
"9. c #58585E",
"0. c #47474D",
"q. c #848488",
"w. c #C1C1C2",
"e. c #ABABAE",
"r. c #707075",
"t. c #CFCFD1",
"y. c #7C7C80",
"u. c #BEBEC0",
"i. c white",
"p. c white",
"a. c #F3F3F4",
"s. c #717176",
"d. c #8F8F93",
"f. c #939396",
"g. c #737377",
"h. c #F4F4F4",
"j. c white",
"k. c white",
"l. c #BDBDBF",
"z. c #7C7C80",
"x. c #68686D",
"c. c #E3E3E4",
"v. c white",
"b. c white",
"n. c white",
"m. c #949497",
"M. c #B6B6B8",
"N. c #BCBCBE",
"B. c #969699",
"V. c white",
"C. c white",
"Z. c white",
"A. c #E2E2E3",
"S. c #67676C",
"D. c #77777B",
"F. c #B8B8BA",
"G. c white",
"H. c white",
"J. c #EFEFF0",
"K. c #77777B",
"L. c #CFCFD1",
"P. c #D5D5D6",
"I. c #7A7A7F",
"U. c #EFEFF0",
"Y. c white",
"T. c white",
"R. c #B7B7BA",
"E. c #76767A",
"W. c #CDCDCF",
"Q. c #757579",
"!. c #A1A1A4",
"~. c #B4B4B6",
"^. c #7F7F83",
"/. c #959598",
"(. c #F9F9F9",
"). c #FAFAFA",
"_. c #9A9A9D",
"`. c #808084",
"'. c #B4B4B6",
"]. c #A1A1A4",
"[. c #737378",
"{. c #CCCCCE",
"}. c white",
"|. c #DEDEDF",
" X c #A3A3A6",
".X c #96969A",
"XX c #BDBDBF",
"oX c #F6F6F7",
"OX c white",
"+X c white",
"@X c #F7F7F8",
"#X c #BEBEC1",
"$X c #97979A",
"%X c #A3A3A6",
"&X c #DDDDDF",
"*X c white",
"=X c white",
"-X c white",
";X c white",
":X c white",
">X c white",
",X c white",
"<X c white",
"1X c white",
"2X c white",
"3X c white",
"4X c white",
"5X c white",
"6X c white",
"7X c white",
"8X c white",
"9X c white",
"0X c white",
"qX c white",
"wX c white",
"eX c white",
"rX c white",
"tX c white",
"yX c white",
"uX c white",
"iX c white",
"pX c white",
"aX c white",
"sX c white",
/* pixels */
"  . X o O + @ # $ % & * = - ",
"; : > , < 1 2 3 4 5 6 7 8 9 ",
"0 q w e r t y u i p a s d f ",
"g h j k l z x c v b n m M N ",
"B V C Z A S D F G H J K L P ",
"I U Y T R E W Q ! ~ ^ / ( ) ",
"_ ` ' ] [ { } |  ...X.o.O.+.",
"@.#.$.%.&.*.=.-.;.:.>.,.<.1.",
"2.3.4.5.6.7.8.9.0.q.w.e.r.t.",
"y.u.i.p.a.s.d.f.g.h.j.k.l.z.",
"x.c.v.b.n.m.M.N.B.V.C.Z.A.S.",
"D.F.G.H.J.K.L.P.I.U.Y.T.R.E.",
"W.Q.!.~.^./.(.)._.`.'.].[.{.",
"}.|. X.XXXoXOX+X@X#X$X%X&X*X",
"=X-X;X:X>X,X<X1X2X3X4X5X6X7X",
"8X9X0XqXwXeXrXtXyXuXiXpXaXsX"
};
