/* XPM */
static const char *jumelles_xpm[] = {
/* columns rows colors chars-per-pixel */
"16 16 90 2",
"   c none",
".  c white",
"0  c #A3A3A6",
"1  c #96969A",
"2  c #BDBDBF",
"3  c #F6F6F7",
"4  c #F7F7F8",
"5  c #BEBEC1",
"6  c #97979A",
"7  c #A3A3A6",
"8  c #DDDDDF",
"9  c #B6B6B8",
"A  c #77777B",
"B  c #434349",
"C  c #838387",
"D  c #D3D3D4",
"E  c #505056",
"F  c #F7F7F7",
"G  c #6C6C70",
"H  c #77777B",
"I  c #ADADB0",
"J  c #C7C7C9",
"K  c #CFCFD1",
"L  c #6B6B6F",
"M  c #3C3C42",
"N  c #424248",
"O  c #7A7A7F",
"P  c #AEAEB0",
"R  c #434349",
"S  c #717175",
"T  c #5F5F64",
"U  c #ACACAE",
"V  c #C0C0C2",
"W  c #838387",
"X  c #47474D",
"Y  c #E1E1E2",
"Z  c #58585E",
"a  c #F3F3F4",
"b  c #68686D",
"c  c #E3E3E4",
"d  c #8F8F93",
"e  c #ABABAE",
"f  c #939396",
"g  c #737377",
"h  c #F4F4F4",
"i  c #7C7C80",
"j  c #E2E2E3",
"k  c #969699",
"l  c #B3B3B5",
"m  c #949497",
"n  c #77777B",
"o  c #76767A",
"p  c #B8B8BA",
"q  c #848488",
"r  c #707075",
"s  c #EFEFF0",
"t  c #757579",
"u  c #BEBEC0",
"v  c #BDBDBF",
"w  c #C1C1C2",
"x  c #EFEFF0",
"y  c #7C7C80",
"z  c #949497",
"!  c #505056",
"^  c #606065",
"/  c #E2E2E3",
"`  c #F6F6F7",
"(  c #F9F9F9",
")  c #FAFAFA",
"'  c #828286",
"]  c #3E3E44",
"[  c #3F3F45",
"{  c #46464C",
"}  c #BCBCBE",
"|  c #69696E",
"~  c #B4B4B6",
"/  c #959598",
"_  c #9A9A9D",
"#  c #77777B",
"*  c #D5D5D6",
"&  c #B7B7BA",
"@  c #67676C",
"°  c #EFEFF0",
";  c #CDCDCF",
"<  c #A1A1A4",
">  c #7F7F83",
"=  c #808084",
"-  c #B4B4B6",
"£  c #CCCCCE",
"¨  c #DEDEDF",
/* pixels */
"                                ",
"                                ",
"                                ",
"          l z x x z l           ",
"        G A G D D G H J         ",
"      Y T R E P P ! R ^ /       ",
"    ` ' ] ] {   | { ] ] C F     ",
"    I B B M L K K L M N N P     ",
"  K S U V W X Z Z X q w e r K   ",
"  y u . . a S d f g h . . v i   ",
"  b c . . . m 9 } k . . . j @   ",
"  n p     s # K * O °     & o   ",
"  ; t < ~ > /.( ) _ = - < g £   ",
"    ¨ 0 1 2 3     4 5 6 7 8     ",
"                                ",
"                                "
};
