/* XPM */
static const char * lateral_xpm[] = {
"27 14 24 1",
" 	c None",
".	c #27279C",
"+	c #000092",
"@	c #00009A",
"#	c #0072C2",
"$	c #0013D4",
"%	c #0000A0",
"&	c #0010EA",
"*	c #A3BAFE",
"=	c #FDFDFE",
"-	c #4B64FF",
";	c #001CAE",
">	c #2B3EFF",
",	c #D5E7FE",
"'	c #C3D8FE",
")	c #1223FF",
"!	c #364EFF",
"~	c #0037B6",
"{	c #617BFF",
"]	c #7F9AFF",
"^	c #00C8C5",
"/	c #00ACC6",
"(	c #748EFF",
"_	c #001DB2",
"                           ",
"        .++@   @++.        ",
"      .+@@#$@ @$#@@+.      ",
"    .+@%&*=-@ @-=*&%@+.    ",
"  ++@;>,=');@ @;)'=,!~@@+. ",
" +@#{==]^%@+   +@%/(==(/@+ ",
".@>=,!~@@+       +@@_>,=!@.",
".@!=,>_@@+       +@@~!,=>@.",
" +@/(==(/%@+   +@%^]=={#@+ ",
"  +@@~!,=');@ @;)'=,>;@++  ",
"    .+@%&*=-@ @-=*&%@+.    ",
"      .+@@#$@ @$#@@+.      ",
"        .++@   @++.        ",
"                           "};
