/* XPM */
static const char * left_xpm[] = {
"25 27 152 2",
"  	c None",
". 	c None",
"+ 	c None",
"@ 	c None",
"# 	c #010506",
"$ 	c #010708",
"% 	c None",
"& 	c #010304",
"* 	c #020C0F",
"= 	c #031216",
"- 	c #04161B",
"; 	c #04161A",
"> 	c #030E11",
", 	c #010405",
"' 	c #01080A",
") 	c #04171C",
"! 	c #06232A",
"~ 	c #082E37",
"{ 	c #09333E",
"] 	c #38717F",
"^ 	c #051D23",
"/ 	c #02090B",
"( 	c #031114",
"_ 	c #051A1F",
": 	c #07262E",
"< 	c #0A3540",
"[ 	c #0E4A59",
"} 	c #478C9E",
"| 	c #C1DEE6",
"1 	c #E2F1F6",
"2 	c #082B34",
"3 	c #010607",
"4 	c #020B0D",
"5 	c #082A33",
"6 	c #0A3945",
"7 	c #0F5060",
"8 	c #63A3B4",
"9 	c #E1F2F7",
"0 	c #CBE4EA",
"a 	c #7BB1BF",
"b 	c #E5F3F7",
"c 	c #082E38",
"d 	c #041418",
"e 	c #020A0C",
"f 	c #051E24",
"g 	c #0B3C48",
"h 	c #1B6577",
"i 	c #A0CBD6",
"j 	c #E4F5F9",
"k 	c #CBE5EB",
"l 	c #62A8BA",
"m 	c #CBE4EB",
"n 	c #E3F4F9",
"o 	c #629AA8",
"p 	c #07272F",
"q 	c #031013",
"r 	c #072931",
"s 	c #428698",
"t 	c #A1CBD6",
"u 	c #E6F5FA",
"v 	c #B3D8E1",
"w 	c #7EB9C9",
"x 	c #E5F4F8",
"y 	c #C2E0E7",
"z 	c #62A1B1",
"A 	c #0E4858",
"B 	c #082C35",
"C 	c #04181D",
"D 	c #09333C",
"E 	c #418191",
"F 	c #B9DAE2",
"G 	c #DFF2F6",
"H 	c #77B4C4",
"I 	c #95C7D4",
"J 	c #C2E1E9",
"K 	c #478FA1",
"L 	c #0C4452",
"M 	c #09323D",
"N 	c #041519",
"O 	c #020D10",
"P 	c #062229",
"Q 	c #7AAAB6",
"R 	c #BDDCE3",
"S 	c #69AABB",
"T 	c #1A758D",
"U 	c #A9D4DF",
"V 	c #A8D4DF",
"W 	c #32899F",
"X 	c #0E5061",
"Y 	c #0A3A46",
"Z 	c #04191E",
"` 	c #010709",
" .	c #030F12",
"..	c #07252D",
"+.	c #81AEBA",
"@.	c #6EA8B6",
"#.	c #12677C",
"$.	c #17768E",
"%.	c #91C7D5",
"&.	c #28869E",
"*.	c #116175",
"=.	c #0D4958",
"-.	c #09323C",
";.	c #061F25",
">.	c #031115",
",.	c #3F7B8A",
"'.	c #D9F0F5",
").	c #C1DFE7",
"!.	c #58A2B5",
"~.	c #AFD6E0",
"{.	c #A4D0DB",
"].	c #1E6E83",
"^.	c #09313B",
"/.	c #062128",
"(.	c #031317",
"_.	c #0C414E",
":.	c #609CAC",
"<.	c #DEF2F6",
"[.	c #7EBACA",
"}.	c #B3D8E2",
"|.	c #A1CCD7",
"1.	c #2E7A8D",
"2.	c #062027",
"3.	c #09303A",
"4.	c #0C414F",
"5.	c #478E9F",
"6.	c #97C8D5",
"7.	c #97C7D4",
"8.	c #C2E0E9",
"9.	c #468A9C",
"0.	c #0A3742",
"a.	c #020C0E",
"b.	c #2E798C",
"c.	c #A2CDD8",
"d.	c #B2D7E0",
"e.	c #7DB8C7",
"f.	c #E7F5F8",
"g.	c #C4DEE5",
"h.	c #082D36",
"i.	c #0B3C49",
"j.	c #1A6376",
"k.	c #83B9C6",
"l.	c #E2F2F7",
"m.	c #CBE3E9",
"n.	c #E8F4F7",
"o.	c #051C22",
"p.	c #072932",
"q.	c #0A3844",
"r.	c #0F4D5C",
"s.	c #619CAA",
"t.	c #BDD8DF",
"u.	c #072830",
". . . . . . . . . . . . . . . . . . . . . . . . . ",
". . . . . . . . . . . . . . . . . . . . . . . . . ",
". . . . . . . . . . . . . . . . . . . . . . . . . ",
". . . . . . . . . . . . . . . . . + + + . . . . . ",
". . . . . . . . . . . . . . + @ # $ $ # % . . . . ",
". . . . . . . . . . . . + & $ * = - ; > $ % . . . ",
". . . . . . . . . . % , ' > ) ! ~ { ] ^ * & . . . ",
". . . . . . . + @ # / ( _ : < [ } | 1 2 = # + . . ",
". . . . . + @ 3 4 = ^ 5 6 7 8 9 0 a b c d 3 + . . ",
". . . . % , e = f 2 g h i j k l m n o p q , + . . ",
". . . + , * _ r 6 s t u v w x y z A B ) / @ . . . ",
". . . @ / C D E F G H I x J K L M ! N e & + . . . ",
". . . & O P Q R S T U V W X Y p Z > ` & + . . . . ",
". . . &  ...+.@.#.$.%.&.*.=.-.;.>./ , % . . . . . ",
". . . & * ;.,.'.).!.~.x {.].L ^./.N 4 # % . . . . ",
". . . % ` (.: _.:.<.x [.}.x |.1._.c ^ > # + . . . ",
". . . . @ ' (.2.3.4.5.J x 6.7.x 8.9.0.^ a.@ . . . ",
". . . . + @ $ * ; /.3._.b.c.u d.e.f.g.B = # + . . ",
". . . . . . % & $ a.d ;.h.i.j.k.l.m.n.3.d 3 + . . ",
". . . . . . . . + @ 3 4 = o.p.q.r.s.t.p ( # + . . ",
". . . . . . . . . . + @ # / q Z ! u.u.) e @ . . . ",
". . . . . . . . . . . . . % , ` * q > e , + . . . ",
". . . . . . . . . . . . . . . % @ , , @ + . . . . ",
". . . . . . . . . . . . . . . . . . . . . . . . . ",
". . . . . . . . . . . . . . . . . . . . . . . . . ",
". . . . . . . . . . . . . . . . . . . . . . . . . ",
". . . . . . . . . . . . . . . . . . . . . . . . . "};
