/* XPM */
static const char * list_xpm[] = {
"16 13 4 1",
" 	c None",
".	c #000000",
"+	c #4C6F94",
"@	c #ECECE2",
"................",
".@@@@@@@@@@@@@@.",
".@++@+++++++++@.",
".@@@@@@@@@@@@@@.",
".@++@+++++++++@.",
".@@@@@@@@@@@@@@.",
".@++@+++++++++@.",
".@@@@@@@@@@@@@@.",
".@++@+++++++++@.",
".@@@@@@@@@@@@@@.",
".@++@+++++++++@.",
".@@@@@@@@@@@@@@.",
"................"};
