/* XPM */
static const char* littleleft_xpm[] = {
  "17 17 5 1",
  "A c None s None",
  "B c #DEDEDEDEDEDE",
  "C c #B5B5B5B5B5B5",
  "D c #8C8C8C8C8C8C",
  "E c #6B6B6B6B6B6B",
  "AAAAAAAAAAAAAAAAA",
  "AAAAAAAAAAAAAAAAA",
  "AAAAACDDEDDCAAAAA",
  "AAABCEEEEEEECBAAA",
  "AAACEEEEEEEEEDAAA",
  "AACEEEEEEEEEEECAA",
  "AADEEEEECAEEEEDAA",
  "AAEEEECAAAEEEEEAA",
  "AAEEECAAAAEEEEEAA",
  "AADEEECAAAEEEEEAA",
  "AADEEEEECAEEEEDAA",
  "AACEEEEEEEEEEECAA",
  "AAADEEEEEEEEEDBAA",
  "AAAADEEEEEEEDBAAA",
  "AAAAACDEEEDCAAAAA",
  "AAAAAAAAAAAAAAAAA",
  "AAAAAAAAAAAAAAAAA"
};
