/* XPM */
static const char * littledown_xpm[] = {
"16 16 5 1",
" 	c None",
".	c #FFFFFF",
"+	c #000000",
"@	c #868686",
"#	c #B6B6B6",
"................",
"................",
"................",
"................",
"................",
"................",
"................",
"................",
"................",
"................",
".+++............",
".+.+............",
"+@.@+...........",
"+#.#+...........",
".+#+............",
"..+............."};
