/* XPM */
static const char *metal_xpm[] = {
/* columns rows colors chars-per-pixel */
"32 26 11 1",
"  c #bebebe",
". c #bfbfc0",
"X c #bfc0bf",
"o c #bfc0c0",
"O c #c0bfc0",
"+ c #c0c0bf",
"@ c #c2c3c2",
"# c #c7c7c8",
"$ c #c7c8c7",
"% c #c7c8c8",
"& c #c8c9c8",
/* pixels */
"$$@$@@@@@@@@@@@@@@$@@@@X@X XXXX@",
"@@$@@$@$@@@@$@@@%@@$@@@@@@@ @XX@",
"@@@@@@ @@@@@@@X@XX@@  @@@     XX",
"@@X   @ .  .           X        ",
"$&%%$&&&&&@&%&&&@&#@@@@@@@@@ @@@",
"@@@@@@@@@@@@@@@@@@&@&&&&&&&%@@&@",
"       @@@@@@@@@@%@&&&&&&&&&&&%%",
"$@@$$$@$@&@&@&&%&&&&&&&&&&&@%@@%",
"  X @   O ..  @.Xo.X...@@@@X@@@@",
"@@X@OO @@ @.   ....@.@..@@.@X.XX",
"@@@@@@@@@@@.@@.@oo@.o@@.@@ .XXXX",
"X  @.OO .. .  . ooo..@@@@@@@@@.X",
"     XO@@@@@@@@@@@@@@@@@@@@..@X ",
" @  @@@@OO@@@.@@@o@@@.@.@.@.@X@.",
"       @.O..    oo.X.   .       ",
"@@@@@@@@@@@.  XXoXXX X       X X",
"            XX  XXX.@@ X @  @ @@",
"   X XXX@ @ @XX XX.X            ",
"  X   XX         o              ",
"XXXXXXXX@ @ @ @XX.XX            ",
"XXX+X  X      X  XX XXXXXXX  .@ ",
"  XX  XX             X  XX    X ",
"  X                             ",
"          XX                    ",
"      XXXXXXXX@ XXXXX  X   X XXX",
"     XXXXXXXXXX X X  XX  XXXXXXX"
};
