/* XPM */
static const char * navigation_xpm[] = {
"22 22 104 2",
"  	c None",
". 	c #465567",
"+ 	c #5D6A75",
"@ 	c #0B62E6",
"# 	c #0B5AD0",
"$ 	c #5F6B74",
"% 	c #495766",
"& 	c #0E63E3",
"* 	c #0065FC",
"= 	c #0066FE",
"- 	c #0E5ACF",
"; 	c #606B73",
"> 	c #4C5865",
", 	c #1061DB",
"' 	c #0057DB",
") 	c #0052CC",
"! 	c #0054D3",
"~ 	c #0060EF",
"{ 	c #115CCD",
"] 	c #616C73",
"^ 	c #4E5864",
"/ 	c #1363DD",
"( 	c #0052CD",
"_ 	c #00409F",
": 	c #003688",
"< 	c #003C96",
"[ 	c #004CBF",
"} 	c #0061F3",
"| 	c #145DCC",
"1 	c #636D72",
"2 	c #5E6668",
"3 	c #323E55",
"4 	c #233F6C",
"5 	c #233657",
"6 	c #232F44",
"7 	c #232B3B",
"8 	c #232E41",
"9 	c #233452",
"0 	c #233C67",
"a 	c #224072",
"b 	c #283245",
"c 	c #7C8688",
"d 	c #384968",
"e 	c #656D72",
"f 	c #234F95",
"g 	c #195EC7",
"h 	c #234376",
"i 	c #0055D5",
"j 	c #155CC8",
"k 	c #626C73",
"l 	c #23385B",
"m 	c #0043A8",
"n 	c #005BE4",
"o 	c #125CCD",
"p 	c #606B74",
"q 	c #23334D",
"r 	c #003B94",
"s 	c #0056D6",
"t 	c #0066FF",
"u 	c #0E5BCF",
"v 	c #233655",
"w 	c #0040A0",
"x 	c #0059DD",
"y 	c #0E4FB3",
"z 	c #7E8A8F",
"A 	c #23406F",
"B 	c #004FC6",
"C 	c #0062F5",
"D 	c #1150B2",
"E 	c #7F8A8E",
"F 	c #234C8D",
"G 	c #0063F6",
"H 	c #1652AF",
"I 	c #808B8E",
"J 	c #22529C",
"K 	c #1954AE",
"L 	c #2E3A51",
"M 	c #818B8E",
"N 	c #34486B",
"O 	c #234A88",
"P 	c #233E6A",
"Q 	c #233552",
"R 	c #23334E",
"S 	c #233A60",
"T 	c #23457B",
"U 	c #235198",
"V 	c #323B4E",
"W 	c #9FACB0",
"X 	c #0060F1",
"Y 	c #004CBE",
"Z 	c #003E9C",
"` 	c #003C95",
" .	c #0046AF",
"..	c #0059DE",
"+.	c #2056AA",
"@.	c #828B8D",
"#.	c #115BCD",
"$.	c #0058DB",
"%.	c #005DE9",
"&.	c #1A53AB",
"*.	c #0D5ACF",
"=.	c #1753AF",
"-.	c #0B59D0",
";.	c #1251B1",
"                    . +                     ",
"                  . @ # $                   ",
"                % & * = - ;                 ",
"              > , ' ) ! ~ { ]               ",
"            ^ / ( _ : < [ } | 1             ",
"          2 3 4 5 6 7 8 9 0 a b c           ",
"        ^ 3                     d e         ",
"      > / 4                     f g 1       ",
"    % , ( 5                     h i j k     ",
"  . & ' _ 6                     l m n o p   ",
". @ * ) : 7                     q r s t u p ",
"+ # = ! < 8                     v w x t y z ",
"  $ - ~ [ 9                     A B C D E   ",
"    ; { } 0                     F G H I     ",
"      ] | a                     J K I       ",
"        1 b                     L M         ",
"          c N J O P Q R S T U V W           ",
"            k | X Y Z `  ...+.@.            ",
"              ] #.X $.s %.&.M               ",
"                p *.t t =.I                 ",
"                  $ -.;.I                   ",
"                    $ E                     "};
