/* XPM */
static const char * person_xpm[] = {
"16 16 3 1",
" 	c None",
"*	c bisque",
".	c red",
"                ",
"       ***      ",
"       ***      ",
"        *       ",
"     .......    ",
"    .........   ",
"   .. ..... ..  ",
"   ** ..... **  ",
"   ** ..... **  ",
"   *  .....  *  ",
"      .. ..     ",
"      .. ..     ",
"      ** **     ",
"      ** **     ",
"      ** **     ",
"      ** **     "};
