/* XPM */
static const char *playvideo_xpm[] = {
/* columns rows colors chars-per-pixel */
"16 16 87 1 ",
"  c #393939",
". c #3A3A3A",
"X c #3C3C3C",
"o c #3C3D3D",
"O c #3D3E3E",
"+ c #3E3E3E",
"@ c #3F4040",
"# c #404040",
"$ c #414242",
"% c #424343",
"& c #444444",
"* c #474848",
"= c #4A4A4A",
"- c #4D4E4E",
"; c #505050",
": c #545454",
"> c #575757",
", c #5B5B5B",
"< c #5C5C5C",
"1 c #5F5F5F",
"2 c #5F6060",
"3 c #606060",
"4 c #616262",
"5 c #636363",
"6 c #646565",
"7 c #676767",
"8 c #686868",
"9 c #696969",
"0 c #6A6A6A",
"q c #6B6B6B",
"w c #6B6C6C",
"e c #6E6E6E",
"r c #6F6F6F",
"t c #707070",
"y c #717171",
"u c #727272",
"i c #737373",
"p c #757575",
"a c #767676",
"s c #767777",
"d c #777777",
"f c #787878",
"g c #797979",
"h c #7C7C7C",
"j c #7D7D7D",
"k c #7E7E7E",
"l c #7F7F7F",
"z c #808080",
"x c #838383",
"c c #858585",
"v c #858686",
"b c #878787",
"n c #898989",
"m c #8B8B8B",
"M c #8C8C8C",
"N c #8D8D8D",
"B c #919191",
"V c #939393",
"C c #959595",
"Z c #989898",
"A c #999999",
"S c #9A9A9A",
"D c #9C9C9C",
"F c #9D9D9D",
"G c #A0A0A0",
"H c #A0A1A1",
"J c #A1A1A1",
"K c #A4A4A4",
"L c #A6A6A6",
"P c #A7A8A8",
"I c #ABABAB",
"U c #ACACAC",
"Y c #AEAEAE",
"T c #B1B1B1",
"R c #B3B3B3",
"E c #B4B4B4",
"W c #B6B6B6",
"Q c #B7B7B7",
"! c #B8B9B9",
"~ c #B9B9B9",
"^ c #BABBBB",
"/ c #BBBBBB",
"( c #BDBDBD",
") c #BEBEBE",
"_ c #BFBFBF",
"` c #C2C2C2",
"' c None",
/* pixels */
"'''''/QTIKF'''''",
"''''(~E''HABn'''",
"''`_''''''''xh''",
"''_''U'''''''pe'",
"')'''LGZ''''''7'",
"(^'''GSVm'''''2,",
"!W'''SVMcja'''':",
"R''''VMcksr83''-",
"Y''''Mvkdt84<''*",
"PK'''vldt95''''%",
"JD'''lft06''''#+",
"'C'''fyw''''''o'",
"'Nb''u'''''''X '",
"''zg''''''''X ''",
"'''iq5''''$O.'''",
"'''''1>;=&@'''''"
};
