/* XPM */
static const char * preferences_xpm[] = {
"16 16 256 2",
"  	c None",
". 	c #7B9CCE",
"+ 	c #A31414",
"@ 	c #A5C5EF",
"# 	c #8CACDE",
"$ 	c #0000FF",
"% 	c #F16C6A",
"& 	c #E7E4DE",
"* 	c #C9BDAD",
"= 	c #5A7AB5",
"- 	c #9CBCE7",
"; 	c #7393C6",
"> 	c #C6C6BD",
", 	c None",
"' 	c #1561E0",
") 	c #424142",
"! 	c #94B5E7",
"~ 	c #526DA9",
"{ 	c #CECEC6",
"] 	c #EB4542",
"^ 	c #6384BD",
"/ 	c #9A9B9A",
"( 	c #42619C",
"_ 	c #FFFBF7",
": 	c #22387A",
"< 	c #B5B5A5",
"[ 	c #DED7CE",
"} 	c #FFFC00",
"| 	c #008600",
"1 	c #C6C5C6",
"2 	c #5B0E04",
"3 	c #636531",
"4 	c #94B3DE",
"5 	c #5272AD",
"6 	c #6B8BBD",
"7 	c #102A73",
"8 	c #BDBEAD",
"9 	c #395494",
"0 	c #6B8DC6",
"a 	c #849ED6",
"b 	c #575857",
"c 	c #314C8C",
"d 	c #4A6AA5",
"e 	c #ADCCF7",
"f 	c #425C9C",
"g 	c #9CBEEF",
"h 	c #294384",
"i 	c #E72C2B",
"j 	c #18337B",
"k 	c #DE8A84",
"l 	c #4A65A4",
"m 	c #FBDFDE",
"n 	c #D6D7D6",
"o 	c #637DB5",
"p 	c #171410",
"q 	c #FC9E9C",
"r 	c #2A292A",
"s 	c #EFEBE7",
"t 	c #5A75AD",
"u 	c #213B84",
"v 	c #4A4B4A",
"w 	c #08256B",
"x 	c #747474",
"y 	c #7396CE",
"z 	c #316522",
"A 	c #6382B5",
"B 	c #6B86BD",
"C 	c #848200",
"D 	c #636563",
"E 	c #CECBBD",
"F 	c #395994",
"G 	c #CE6525",
"H 	c #315194",
"I 	c #395A9C",
"J 	c #29498C",
"K 	c #E71210",
"L 	c #183073",
"M 	c #CE9D63",
"N 	c #9C9B63",
"O 	c #10266E",
"P 	c #639B9C",
"Q 	c #848284",
"R 	c #E70000",
"S 	c #E7DFD6",
"T 	c #9C9E84",
"U 	c #B5B29C",
"V 	c #EFEFEF",
"W 	c #F7F3EF",
"X 	c #DEDFDE",
"Y 	c #CECFCE",
"Z 	c #EFEBEF",
"` 	c #DED7C6",
" .	c #D6D3C6",
"..	c #F7F3E7",
"+.	c #FFFBFF",
"@.	c #BDB6B5",
"#.	c #CED3CE",
"$.	c #9C9A7B",
"%.	c #ADB29C",
"&.	c #D6D3BD",
"*.	c #F7F7E7",
"=.	c #848684",
"-.	c #F7F7FF",
";.	c #EFF3FF",
">.	c #E7EFF7",
",.	c #A5CBF7",
"'.	c #EFF3F7",
").	c #DED7BD",
"!.	c #FFF3E7",
"~.	c #CED3D6",
"{.	c #D6DBC6",
"].	c #ADAA9C",
"^.	c #D6CFC6",
"/.	c #DEDBBD",
"(.	c #BDC3B5",
"_.	c #F7F7F7",
":.	c #84A2D6",
"<.	c #DEDFE7",
"[.	c #EFEFF7",
"}.	c #A5A294",
"|.	c #84A6D6",
"1.	c #F7FBFF",
"2.	c #EFF3EF",
"3.	c #F7F7EF",
"4.	c #FF0400",
"5.	c #D6DBDE",
"6.	c #F7EFE7",
"7.	c #FFFBE7",
"8.	c #E7EBF7",
"9.	c #E7EFFF",
"0.	c #D6D7DE",
"a.	c #EFEFFF",
"b.	c #CECBCE",
"c.	c #E7EBE7",
"d.	c #B5BAAD",
"e.	c #F7FBE7",
"f.	c #FFFFAD",
"g.	c #E7D3BD",
"h.	c #ADAEA5",
"i.	c #CEC7BD",
"j.	c #738EC6",
"k.	c #ADB2A5",
"l.	c #DEE3E7",
"m.	c #EFE7E7",
"n.	c #F7BEBD",
"o.	c #9C9E8C",
"p.	c #DEDBC6",
"q.	c #9CC3EF",
"r.	c #B5B6BD",
"s.	c #E7EBEF",
"t.	c #F7E7DE",
"u.	c #B5BAA5",
"v.	c #CECFD6",
"w.	c #214184",
"x.	c #B5B6AD",
"y.	c #DECBBD",
"z.	c #A5C7F7",
"A.	c #94BAE7",
"B.	c #2A4391",
"C.	c #E7E7EF",
"D.	c #C6CBC6",
"E.	c #18387B",
"F.	c #B5B2B5",
"G.	c #8CAAD6",
"H.	c #7B96CE",
"I.	c #F7FBEF",
"J.	c #D6C7B5",
"K.	c #CED3C6",
"L.	c #C6C3B5",
"M.	c #CEC3AD",
"N.	c #BDBAA5",
"O.	c #C6CBBD",
"P.	c #8CB2DE",
"Q.	c #103073",
"R.	c #8C866B",
"S.	c #FFF7EF",
"T.	c #E6A29C",
"U.	c #000084",
"V.	c #DEDBDE",
"W.	c #5A79AD",
"X.	c #CEC7B5",
"Y.	c #DEDBCE",
"Z.	c #D6DBD6",
"`.	c #31518C",
" +	c #D6DBCE",
".+	c #F78284",
"++	c #E7514A",
"@+	c #BDBABD",
"#+	c #314D94",
"$+	c #84AAD6",
"%+	c #EFA2A5",
"&+	c #DEDBD6",
"*+	c #A5A2A5",
"=+	c #D6CBCE",
"-+	c #7BA2CE",
";+	c #73696B",
">+	c #94AEDE",
",+	c #A5CBEE",
"'+	c #8DA5D5",
")+	c #E71008",
"!+	c #E7E7D6",
"~+	c #313000",
"{+	c #ADA6A5",
"]+	c #5200AD",
"^+	c #C6CBB5",
"/+	c #8CA6DE",
"(+	c #310000",
"_+	c #EFCBCE",
":+	c #DE0000",
"<+	c #FFFBEF",
"[+	c #FFEFEF",
"}+	c #CECF9C",
"|+	c #D6DF52",
"1+	c #294984",
"2+	c #FFCF9C",
"3+	c #84A1CE",
"4+	c #7B59FF",
"5+	c #FFCFCE",
"6+	c #00FF00",
"7+	c #003000",
"8+	c #FF3000",
"9+	c #003031",
"0+	c #739AC6",
"a+	c #739ACE",
"b+	c #A5BEEF",
"c+	c #7B9ED6",
"d+	c #9CB6E7",
"e+	c #000031",
"f+	c #DEBFBA",
"g+	c #EA615D",
"h+	c #F7E7E7",
"i+	c #BDB6A5",
"j+	c #31659C",
"k+	c #316563",
"l+	c #F7AEAD",
"m+	c #00619C",
"n+	c #CE9A00",
"o+	c #9C6563",
"p+	c #FFEFE7",
"q+	c #5271A5",
"r+	c #63659C",
"s+	c #39559C",
"t+	c #639A63",
"u+	c #CE6563",
"v+	c #639ACE",
"w+	c #4A9A31",
"x+	c #4261A5",
"y+	c #9C6531",
"z+	c #003063",
"A+	c #FFFFCE",
"B+	c #63CF63",
"C+	c #00CFFF",
"D+	c #008684",
"E+	c #D6D3CE",
"F+	c #DEDFD6",
"G+	c #000000",
"G+G+G+G+G+G+G+G+G+G+G+G+G+G+G+G+",
"G+, , , , , , , , , , , , , , G+",
"G+, , , , , , , , , , , , , , G+",
"G+, , G+, G+, , G+G+G+G+G+, , G+",
"G+, , G+, G+, , , , , , , , , G+",
"G+, , G+G+G+, , , , , , , , , G+",
"G+, , *+*+*+, , , , , , , , , G+",
"G+, , G+, , , G+, G+G+G+G+, , G+",
"G+, , G+, , G++ , , , , , , , G+",
"G+, , , , + , , , , , , , , , G+",
"G+, , *+*+*+, , , , , , , , , G+",
"G+, , G+, , , G+, G+G+G+G+, , G+",
"G+, , G+, G++ , , , , , , , , G+",
"G+, , , , + , , , , , , , , , G+",
"G+, , , , , , , , , , , , , , G+",
"G+G+G+G+G+G+G+G+G+G+G+G+G+G+G+G+"};
