/* XPM */
static const char *question_xpm[] = {
/* columns rows colors chars-per-pixel */
"18 23 72 1",
"  c none",
". c #01060a",
"X c #020a0c",
"o c #020d11",
"O c #011116",
"+ c #00141a",
"@ c #081317",
"# c #001b22",
"$ c #022027",
"% c #01232c",
"& c #0a2025",
"* c #002431",
"= c #002835",
"- c #082932",
"; c #06323d",
": c #08323d",
"> c #0a3945",
", c #0e3e4a",
"< c #0f424f",
"1 c #0b4453",
"2 c #164450",
"3 c #1e4f5c",
"4 c #1b515e",
"5 c #0c5365",
"6 c #12586a",
"7 c #14677c",
"8 c #2f5f6b",
"9 c #3e5b62",
"0 c #2b6a7a",
"q c #33636f",
"w c #35707f",
"e c #416f7a",
"r c #387282",
"t c #427e8d",
"y c #557b85",
"u c #577e88",
"i c #597f89",
"p c #509aad",
"a c #59a4b7",
"s c #68878f",
"d c #698e97",
"f c #7b979f",
"g c #6398a7",
"h c #729fab",
"j c #64a5b6",
"k c #61a6b8",
"l c #66aabc",
"z c #72a0ac",
"x c #75afbe",
"c c #7db1be",
"v c #79b6c5",
"b c #869ea4",
"n c #8b9ea3",
"m c #8bb4be",
"M c #97aeb4",
"N c #95b3bb",
"B c #87bac7",
"V c #86bdcb",
"C c #8ac1cf",
"Z c #94c6d2",
"A c #98c7d3",
"S c #9fceda",
"D c #a5c6ce",
"F c #a1c6d0",
"G c #a6cbd4",
"H c #a8cbd4",
"J c #a6d3de",
"K c #b3d5de",
"L c #bcdee6",
"P c #c1dbe2",
"I c #c2e2eb",
"U c #cde6ed",
/* pixels */
"                  ",
"                  ",
"        ..        ",
"      XXXXXX.     ",
"     o+;euq%OX    ",
"    X#8GBpZD2+.   ",
"    O4IVkajZA;X   ",
"   X+mCGzwDvZsXX  ",
"   X+NUz=%6lkn..  ",
"    o#-$&%0vVhXX  ",
"     XXo#4PLL3o   ",
"      .+1KIIr#X   ",
"      X+zJJt#o    ",
"      X>Hxm=@.    ",
"      X>mZd+X     ",
"      X%571@      ",
"      X:gvyX.     ",
"      X<BFn.X     ",
"      .%sM9X      ",
"       X..XX      ",
"         X        ",
"                  ",
"                  "
};
