/* XPM */
static const char *right_xpm[] = {
"25 27 147 2",
" 	c None",
".  	c None",
"+ 	c None",
"@ 	c None",
"# 	c #010304",
"$ 	c #010506",
"% 	c #010607",
"& 	c #010405",
"* 	c None",
"= 	c #020B0D",
"- 	c #031115",
"; 	c #041418",
"> 	c #020C0F",
", 	c #010709",
"' 	c #02090B",
") 	c #04161B",
"! 	c #194D5B",
"~ 	c #082E37",
"{ 	c #082B34",
"] 	c #06232A",
"^ 	c #04181D",
"/ 	c #030F12",
"( 	c #01080A",
"_ 	c #030E11",
": 	c #062229",
"< 	c #7CA9B5",
"[ 	c #BAD9E0",
"} 	c #609DAD",
"| 	c #0E4B5A",
"1 	c #0A3742",
"2 	c #072830",
"3 	c #051B21",
"4 	c #020A0C",
"5 	c #07252D",
"6 	c #81AFBA",
"7 	c #75ABB9",
"8 	c #CBE3EA",
"9 	c #E2F2F7",
"0 	c #64A4B4",
"a 	c #196173",
"b 	c #0B3B47",
"c 	c #051E24",
"d 	c #031317",
"e 	c #020C0E",
"f 	c #061F26",
"g 	c #3D7B8B",
"h 	c #BEDCE4",
"i 	c #E5F4F8",
"j 	c #7DB7C6",
"k 	c #B0D5DF",
"l 	c #E4F5F9",
"m 	c #A1CCD7",
"n 	c #1C6679",
"o 	c #0B3E4B",
"p 	c #061F25",
"q 	c #010708",
"r 	c #07262E",
"s 	c #0B3C49",
"t 	c #468C9E",
"u 	c #C1E0E7",
"v 	c #E7F6FA",
"w 	c #7DB9C8",
"x 	c #B2D7E1",
"y 	c #BFDEE6",
"z 	c #448A9B",
"A 	c #082C35",
"B 	c #051D23",
"C 	c #09303A",
"D 	c #0C4250",
"E 	c #468EA0",
"F 	c #C2E1E9",
"G 	c #B3D8E2",
"H 	c #7AB7C7",
"I 	c #E1F2F7",
"J 	c #BBDDE5",
"K 	c #5E99A9",
"L 	c #0B3946",
"M 	c #0A3743",
"N 	c #0E4D5D",
"O 	c #20778E",
"P 	c #A6D2DE",
"Q 	c #C8E5EC",
"R 	c #28859C",
"S 	c #4F9CAF",
"T 	c #C2DFE6",
"U 	c #E1F1F6",
"V 	c #082A33",
"W 	c #031216",
"X 	c #031013",
"Y 	c #082E38",
"Z 	c #0C4452",
"` 	c #115D70",
" .	c #1A788F",
"..	c #93C8D6",
"+.	c #23849D",
"@.	c #136A80",
"#.	c #29798E",
"$.	c #E4F2F7",
"%.	c #0B404D",
"&.	c #115A6C",
"*.	c #66AABC",
"=.	c #E4F3F8",
"-.	c #CBE5EC",
";.	c #58A3B6",
">.	c #A3CEDA",
",.	c #DDF0F6",
"'.	c #9FC4CE",
").	c #07272F",
"!.	c #031114",
"~.	c #04191E",
"{.	c #1B6578",
"].	c #A0CBD6",
"^.	c #E2F3F7",
"/.	c #62AABC",
"(.	c #CBE4EB",
"_.	c #E0F4F8",
":.	c #609EAE",
"<.	c #165666",
"[.	c #2B7385",
"}.	c #A2CCD7",
"|.	c #B2D7E0",
"1.	c #7DB8C7",
"2.	c #C2E0E7",
"3.	c #62A1B1",
"4.	c #0E4A59",
"5.	c #09323D",
"6.	c #06242B",
"7.	c #07242C",
"8.	c #7FAEBA",
"9.	c #96C6D2",
"0.	c #B3D7E1",
"a.	c #A2CDD8",
"b.	c #458C9E",
"c.	c #09323C",
"d.	c #04171C",
"e.	c #87B2BD",
"f.	c #C9E2E9",
"g.	c #A1CBD6",
"h.	c #062027",
"i.	c #04161A",
"j.	c #020D10",
"k.	c #75A6B2",
"l.	c #5D97A6",
"m.	c #0F4A59",
"n.	c #0A3844",
"o.	c #072329",
"p.	c #062128",
". . . . . . . . . . . . . . . . . . . . . . . . . ",
". . . . . . . . . . . . . . . . . . . . . . . . . ",
". . . . . . . . . . . . . . . . . . . . . . . . . ",
". . . . . . + + . . . . . . . . . . . . . . . . . ",
". . . . @ # $ % & * + . . . . . . . . . . . . . . ",
". . . + $ = - ; - > , # @ . . . . . . . . . . . . ",
". . . * ' ) ! ~ { ] ^ / ( & @ . . . . . . . . . . ",
". . . # _ : < [ } | 1 2 3 - 4 $ * + . . . . . . . ",
". . . & / 5 6 7 8 9 0 a b { c d = % * + . . . . . ",
". . . * e f g h i j k l m n o ~ p ; e $ @ . . . . ",
". . . @ q d r s t u v w x i y z s A B / % @ . . . ",
". . . . * ( - f C D E F v G H I J K L B e # . . . ",
". . . . + * % > ) 5 M N O P Q R S T U V W $ + . . ",
". . . . . + # ( X B Y Z `  ...+.@.#.$.~ ; % + . . ",
". . . . + & ' W c ~ %.&.*.=.-.;.>.,.'.).!.& + . . ",
". . . + & e ~.V s {.].^.-./.(._.:.<.A ~.4 * . . . ",
". . . @ ' ~.C [.}.i |.1.i 2.3.4.5.6.) e & + . . . ",
". . . # _ 7.8.9 9.0.v a.b.D c.6.d._ , # + . . . . ",
". . . & X 2 e.f.9 g.n o Y h.i.j., # @ . . . . . . ",
". . . # j.h.k.l.m.n.V B d e q # + . . . . . . . . ",
". . . @ ( d o.7.p.~.!.4 $ * + . . . . . . . . . . ",
". . . + # , > _ e , & @ + . . . . . . . . . . . . ",
". . . . + @ # # * + . . . . . . . . . . . . . . . ",
". . . . . . . . . . . . . . . . . . . . . . . . . ",
". . . . . . . . . . . . . . . . . . . . . . . . . ",
". . . . . . . . . . . . . . . . . . . . . . . . . ",
". . . . . . . . . . . . . . . . . . . . . . . . . "};
