/* XPM */
static const char * rotx_xpm[] = {
"16 16 3 1",
" 	c None",
".	c red",
"*	c white",
"               .",
"             ...",
"           .....",
"            ..  ",
"    *      .*   ",
"    **    .**   ",
"    ***  .***   ",
"    *********   ",
"  *****.. ****  ",
" *  **..   ** * ",
"*   *..     *  *",
" *  ..        * ",
"  *..       **  ",
"  ..********    ",
" ..             ",
"..              "};
