/* XPM */
static const char * roty_xpm[] = {
"16 16 3 1",
" 	c None",
".	c red",
"*	c white",
"                ",
"         *      ",
"        * *     ",
"       *   *    ",
"   ******* *    ",
"    *****   *   ",
"     ***    *   ",
" .....*........ ",
" .....*........ ",
"     ***    *   ",
"    *****   *   ",
"   ******* *    ",
"       *   *    ",
"        * *     ",
"         *      ",
"                "};
