/* XPM */
static const char * rotz_xpm[] = {
"16 16 3 1",
" 	c None",
".	c red",
"*	c white",
"       ..       ",
"      ....      ",
"     ......     ",
"       ..       ",
"   *   ..   *   ",
"   **  ..  **   ",
"   *** .. ***   ",
"   ****..****   ",
"  **** .. ****  ",
" * **  ..  ** * ",
"*  *   ..   *  *",
" *     ..     * ",
"  **   ..   **  ",
"    ********    ",
"       ..       ",
"       ..       "};
