/* XPM */
static const char * rotzleft_xpm[] = {
"16 16 3 1",
" 	c None",
".	c red",
"*	c white",
"       ..       ",
"      ....      ",
"     ......     ",
"       ..       ",
"       ..   *   ",
"       ..  **   ",
"       .. ***   ",
"    ***..****   ",
"  **   .. ****  ",
" *     ..  ** * ",
"*      ..   *  *",
" *     ..     * ",
"  **   ..   **  ",
"    ********    ",
"       ..       ",
"       ..       "};
