/* XPM */
static const char *sandbox_xpm[] = {
/* columns rows colors chars<per-pixel */
"16 16 29 1 ",
"  c None",
"= c black",
"- c yellow",
". c #F2A683",
"X c #F6BEA6",
"o c #F6BFA6",
"O c #B3BEC7",
"+ c #BBC4CC",
"@ c #C0C9D0",
"# c #C2CBD2",
"$ c #D3DADF",
"% c #FADCCF",
"& c #F6E1D9",
"* c #F7E3DA",
"? c #FCE7DE",
"< c #D5DBE0",
"; c #D8DDE2",
": c #D9DEE2",
"> c #ECEEF0",
", c #EDEFF1",
"0 c #EFF1F3",
"1 c #F0F2F4",
"2 c #F3F4F6",
"3 c #F4F5F6",
"4 c #F5F6F7",
"5 c #F9F6F5",
"6 c #FEF7F4",
"7 c #FCF9F7",
"8 c #F7F8F9",
/* pixels */
"                ",
"                ",
"       66       ",
"      ?oo?      ",
" =====%..%===== ",
" =----7**6----= ",
" =--;;<$#O+#8-= ",
" =--22220,,0--= ",
" ============== ",
" ============== ",
" ============== ",
"   ==========   ",
"   ==========   ",
"   ==========   ",
"                ",
"                "
};
