/* XPM */
static const char *settings_xpm[] = {
/* columns rows colors chars-per-pixel */
"71 22 72 1",
"  c none",
". c #010e11",
"X c #011419",
"o c #011c24",
"O c #01222b",
"+ c #022b35",
"@ c #07323c",
"# c #053946",
"$ c #003d50",
"% c #133d48",
"& c #08414f",
"* c #0a4656",
"= c #16424d",
"- c #164b59",
"; c #1a505e",
": c #004f64",
"> c #0c5466",
", c #0a5d72",
"< c #195767",
"1 c #1a6679",
"2 c #235a68",
"3 c #24606f",
"4 c #296777",
"5 c #326b79",
"6 c #3c707e",
"7 c #1b6c80",
"8 c #2e778a",
"9 c #3b7988",
"0 c #457d8b",
"q c #407f90",
"w c #2f849a",
"e c #36869b",
"r c #2a89a0",
"t c #4a818f",
"y c #488594",
"u c #50818e",
"i c #538a98",
"p c #5d929f",
"a c #4892a6",
"s c #5995a4",
"d c #659ba9",
"f c #6aa0ad",
"g c #69a4b3",
"h c #75abb8",
"j c #7ab0be",
"k c #6db0c2",
"l c #75b3c3",
"z c #71bfd3",
"x c #83adb7",
"c c #87b2bc",
"v c #94b6bf",
"b c #88b9c6",
"n c #95bac4",
"m c #8ac1cf",
"M c #89c5d4",
"N c #98c2cc",
"B c #9acad7",
"V c #98d0df",
"C c #9cd2e1",
"Z c #a9c6ce",
"A c #a9cbd4",
"S c #a8d1dc",
"D c #b4ced5",
"F c #b7d4db",
"G c #aad7e2",
"H c #badce4",
"J c #bde0e9",
"K c #c3d5da",
"L c #c4dde3",
"P c #c9e2e8",
"I c #d3e6ea",
"U c None",
/* pixels */
"                                                                       ",
"                                                                       ",
"                                                                       ",
"                                    .                                  ",
"    ..O++OX                        XoX                                 ",
"   .O2hnnx-.          XOO.  .oOX  .2x2.                                ",
"   .3GHhgHt.         .@giO .ouh=. .5G0.                                ",
"   OfLe$+<=.   .X..  .*Gn$XX@jL<o.X@<%.  ......     .......   .XXX.    ",
"   +jM4OX..  .O<tt-X.@sVSs0*8MGgu;o=9-X.%9-+20-o  .o&04#26O..O-tt0%.   ",
"   oyPc<+X  .O0AHFb<o=SzVKn1hCzKDtO9JtoX9PsybPA3X.o6NFjsNV<.X5AIDK9.   ",
"   .@gIFs%o.X<Fb,1nc#O1GN,%@*bL8&+O9Huoo0VGs<yLh+X;BA1-dVk2.@xPw>4=.   ",
"    .#yBPn4OOsIw,,kF2o<Sc#..@hF<o.X9HuooeHl*O>Bn#O9Ha+o&lM<X@bHa>+X    ",
"     .o-dGM3#jMHAAHV4X-Sc@..+hF<. o9LtooqPyoX&Bv#OsV5X.@gb2Xo9HHme@.   ",
"      .X&jGy&jGkspiy=X-Sc@ .+hF2X X9JuooqL0o.=Bn#+sM5X.+gb2..@4hHHpo   ",
"   .XXXX#iPy#sIr$@+oXX*Sc$..+hS<X.XqHiooyH0o.*Bn#+iS8OX%km2..o+*wGD@   ",
"   o00<*4AS2o<ZK8--2%.&SF4%OOgIi*+OqLuoo9L0o.=Bn#o<HN1-eBb2.O04>ePn+.  ",
"   XdPFAFA4o.o<NLAZb;.OiLKN;o2SLF0o9HtoX9J0X.%Bn@XO9LKcwkM2XOgLFIN;X   ",
"   .@5yy0&o. .X&9uy2o..+4t0@Xo<00-X%9=..%0=. O53X .+4i8:lB-.X%9tt-o.   ",
"    ..XX..     .XXX.   ..X.   .X......   ..   ... .O+@#7HdO. .XX..     ",
"                                                  OiddgDF3X            ",
"                                                  OiDKFx<o             ",
"                                                  .X@#@OX              "
};
