/* XPM */
static const char *tools_xpm[] = {
/* columns rows colors chars-per-pixel */
"51 21 114 2",
"   c none",
".  c #010709",
"X  c #010a0c",
"o  c #010e12",
"O  c #011115",
"+  c #00141a",
"@  c #01191f",
"#  c #091416",
"$  c #001c24",
"%  c #001f28",
"&  c #032027",
"*  c #00222b",
"=  c #09272e",
"-  c #012731",
";  c #032934",
":  c #012c39",
">  c #0a2a32",
",  c #04313d",
"<  c #09333d",
"1  c #033542",
"2  c #073844",
"3  c #023b4b",
"4  c #0a3540",
"5  c #0a3a46",
"6  c #0a3d4a",
"7  c #133d48",
"8  c #004354",
"9  c #00465a",
"0  c #0e4553",
"q  c #14424e",
"w  c #154653",
"e  c #154956",
"r  c #134d5b",
"t  c #194c59",
"y  c #044f63",
"u  c #0c576a",
"i  c #1b5462",
"p  c #1b5a69",
"a  c #166073",
"s  c #1c6274",
"d  c #20505c",
"f  c #295f6c",
"g  c #26606f",
"h  c #2b6574",
"j  c #2c6b7b",
"k  c #336775",
"l  c #306876",
"z  c #0c6a82",
"x  c #2b7183",
"c  c #367484",
"v  c #37798a",
"b  c #3c7685",
"n  c #3d7b8b",
"m  c #417684",
"M  c #437885",
"N  c #417d8c",
"B  c #487e8c",
"V  c #39869a",
"C  c #408394",
"Z  c #498594",
"A  c #4c8a99",
"S  c #528592",
"D  c #578e9d",
"F  c #5d919f",
"G  c #4d90a2",
"H  c #5394a5",
"J  c #5e94a2",
"K  c #5d99a8",
"L  c #6195a2",
"P  c #6299a7",
"I  c #639dac",
"U  c #66a0af",
"Y  c #6ea0ad",
"T  c #64a1b0",
"R  c #6fabba",
"E  c #71a0ab",
"W  c #72a5b2",
"Q  c #74adbc",
"!  c #7da7b1",
"~  c #7aaab5",
"^  c #6dafc0",
"/  c #76b1c0",
"(  c #7ebac9",
")  c #83afba",
"_  c #86b4bf",
"`  c #8db3bd",
"'  c #84bbca",
"]  c #8dbeca",
"[  c #90b6c0",
"{  c #91bbc6",
"}  c #9dbfc7",
"|  c #87c0cf",
" . c #8fc4d1",
".. c #91c3cf",
"X. c #9bc3cd",
"o. c #93c6d2",
"O. c #9bcad6",
"+. c #a6c7d0",
"@. c #a3cbd6",
"#. c #acccd3",
"$. c #aad5df",
"%. c #b3cfd6",
"&. c #b5d3da",
"*. c #bbd0d5",
"=. c #acd6e1",
"-. c #afd9e3",
";. c #b6dbe4",
":. c #badae1",
">. c #bbdfe8",
",. c #c4d6db",
"<. c #c2dee5",
"1. c #c4e1e8",
"2. c #cce5eb",
"3. c #d1e4e9",
/* pixels */
"                                                                                                      ",
"                                                                                                      ",
"                          .                                           . .                             ",
"      . X o + + O + @ + o o X .                                       o > = o                         ",
"      @ k m m m b b M M m m d o                                     . 4 _ E * .                       ",
"      = W X.X.@.=.-.&.o.X.X.Z +                                     . w ' Q < .                       ",
"      o ; 2 6 y ^ 1.n 8 5 1 = X . . X X . .           . X X . .     . e ( R < .   . . . X . .         ",
"        . X o ; T :.h $ X .   X + ; r r 0 $ X .   . o - e r 0 * o . X w ( R < . . + 1 r r w $ .       ",
"            . & I :.f o     X $ i W &.&.+.N , o . + e L #.%.%.D 5 + o e ( Q 1 o @ h { :.&.@.t X       ",
"            . % I :.h o .   o e X.&.Z b E ,.J ; # 6 ..*.Z b P <.E < o t ( R 4 o 5 ] <.H M J q .       ",
"            . * K :.f o     @ b 3.G ; * 8 { &.i % j 1.P 1 & 3 / :.p @ t ( R 4 o t o.| z 3 ; @         ",
"              * I :.h o   . % E ;.g @ X * D 1.v : K 1.j $ X $ C <.B $ t ( R < o : / >.X.G r @ .       ",
"              * I :.f o   . - ! =.p o . $ S 1.n , T :.h + . @ v >.S * t ( R < X @ i I @.<.o.i o       ",
"            . * I :.g O   . % F 1.x $ # : I 1.h - A 2.n % # * H <.c $ t ( Q < X o $ 1 s R 3.I $ .     ",
"            . * K :.f o   . + h <.Q 8 1 a %.X.6 @ p :.` 9 1 u @.%.0 + e ( R 4 o < h 0 9 V 3.I $       ",
"              $ I <.f X     X < E 2.X.` &.%.j $ o ; I <.} ` %.<.n * o w o./ : o 7 O.+.` ,.X.i o       ",
"            . o k I 7 .     . o 5 N ) ) W p $ .   o : c ~ ) ~ h * o . > D Z $ o $ k ~ ) W i @ .       ",
"              . o @ o           X @ % % $ o X       X + $ * $ + .     X @ o X   . O % * $ o .         ",
"                .                   .   .                 . .                       X . .             ",
"                                                                                                      ",
"                                                                                                      "
};
