/* XPM */
static const char * toolbox_xpm[] = {
"18 18 192 2",
"  	c None",
". 	c #ADB8BA",
"+ 	c #C7D5D7",
"@ 	c #ADB3B4",
"# 	c #A7AAAA",
"$ 	c #C0CED1",
"% 	c #C8D7D9",
"& 	c #ACB0B1",
"* 	c #ADAFAF",
"= 	c #BAC6C8",
"- 	c #C7B3AA",
"; 	c #D39A7F",
"> 	c #D7A083",
", 	c #D0977D",
"' 	c #C2B7B2",
") 	c #BBC7CA",
"! 	c #B9C5C7",
"~ 	c #BCC3C4",
"{ 	c #E4E4E4",
"] 	c #CFCFCF",
"^ 	c #B1BFC1",
"/ 	c #D8E9EC",
"( 	c #C6C7C7",
"_ 	c #E9E9E9",
": 	c #BABCBD",
"< 	c #CBDBDE",
"[ 	c #D7E2E3",
"} 	c #EBA67F",
"| 	c #FEDEB3",
"1 	c #FFE0B3",
"2 	c #FFDFB3",
"3 	c #FEDDB3",
"4 	c #DB9774",
"5 	c #BECBCD",
"6 	c #ADB7B9",
"7 	c #CECECE",
"8 	c #D1D1D1",
"9 	c #ABB8BA",
"0 	c #C5C6C6",
"a 	c #E1E1E1",
"b 	c #A8B0B1",
"c 	c #D6CFCA",
"d 	c #F4B682",
"e 	c #FFD597",
"f 	c #EBA270",
"g 	c #A9B0B1",
"h 	c #9FA5A7",
"i 	c #E0E0E0",
"j 	c #E7E7E7",
"k 	c #D6D6D6",
"l 	c #A9B4B6",
"m 	c #D2E2E5",
"n 	c #C8C8C8",
"o 	c #A4A7A8",
"p 	c #D2CAC5",
"q 	c #F4AA67",
"r 	c #FFC977",
"s 	c #FFC976",
"t 	c #FFBF60",
"u 	c #EA904B",
"v 	c #A7AEAE",
"w 	c #9EA4A5",
"x 	c #DCDCDC",
"y 	c #BFC0C0",
"z 	c #BEC1C1",
"A 	c #DEDEDE",
"B 	c #DFDFDF",
"C 	c #D8D8D8",
"D 	c #9B9E9E",
"E 	c #CEC6C1",
"F 	c #F29741",
"G 	c #FFB951",
"H 	c #FFB647",
"I 	c #FFA41B",
"J 	c #FF9A04",
"K 	c #E66C05",
"L 	c #A2AAAB",
"M 	c #DBDBDB",
"N 	c #CDCDCD",
"O 	c #C4C4C4",
"P 	c #8A8E8F",
"Q 	c #F18113",
"R 	c #FFA319",
"S 	c #FFA419",
"T 	c #E77212",
"U 	c #B6C2C4",
"V 	c #ABAEAE",
"W 	c #D4D4D4",
"X 	c #DADADA",
"Y 	c #D3D3D3",
"Z 	c #CBCBCB",
"` 	c #ABACAC",
" .	c #959FA1",
"..	c #D6CECA",
"+.	c #F28D2D",
"@.	c #FFB13B",
"#.	c #FFB03B",
"$.	c #E87D27",
"%.	c #C1CFD1",
"&.	c #B0B0B0",
"*.	c #CCCCCC",
"=.	c #BCBCBC",
"-.	c #84898A",
";.	c #CBDBDD",
">.	c #F29B4A",
",.	c #FFC062",
"'.	c #FFC163",
").	c #E9893F",
"!.	c #AFB4B5",
"~.	c #9E9F9F",
"{.	c #B5C4C6",
"].	c #D7DDDC",
"^.	c #EB9354",
"/.	c #FECD86",
"(.	c #FFCF89",
"_.	c #FECB84",
":.	c #D98049",
"<.	c #AAB5B6",
"[.	c #B2B8B9",
"}.	c #999B9B",
"|.	c #C8D8DB",
"1.	c #CEA591",
"2.	c #E28F5B",
"3.	c #EC9D67",
"4.	c #EB9C67",
"5.	c #D98654",
"6.	c #9F7F71",
"7.	c #C3D1D4",
"8.	c #B3B9BA",
"9.	c #D0D0D0",
"0.	c #D5D5D5",
"a.	c #9B9D9D",
"b.	c #C9D9DB",
"c.	c #D7E8EB",
"d.	c #B3B0AE",
"e.	c #A09D9C",
"f.	c #A6B3B5",
"g.	c #D3E3E6",
"h.	c #C8D7DA",
"i.	c #B5BBBD",
"j.	c #D9D9D9",
"k.	c #D7D7D7",
"l.	c #9EA0A0",
"m.	c #C9D7DA",
"n.	c #B8B8B8",
"o.	c #A3A4A4",
"p.	c #BDCCCF",
"q.	c #B7BEBF",
"r.	c #DDDDDD",
"s.	c #A1A3A3",
"t.	c #C6D4D6",
"u.	c #C2C2C2",
"v.	c #ADADAD",
"w.	c #BDCCCE",
"x.	c #BAC0C1",
"y.	c #C9C9C9",
"z.	c #A5A6A7",
"A.	c #D0DFE2",
"B.	c #B2B3B3",
"C.	c #A7AAAB",
"D.	c #D0E0E3",
"E.	c #BBC1C2",
"F.	c #898F90",
"G.	c #AAB5B7",
"H.	c #D2D2D2",
"I.	c #A5A7A7",
"J.	c #C9D9DC",
"K.	c #C8D6D8",
"L.	c #E3E3E3",
"M.	c #AFB0B0",
"N.	c #BAC8CB",
"O.	c #BAC2C4",
"P.	c #ADB1B2",
"Q.	c #B9C0C2",
"R.	c #979A9A",
"S.	c #D5E5E8",
"T.	c #BDBEBF",
"U.	c #CCDBDE",
"V.	c #B5B7B7",
"W.	c #B4B4B5",
"X.	c #B7BCBD",
"Y.	c #909697",
"Z.	c #D6E7EA",
"`.	c #BAC7C9",
" +	c #949C9D",
".+	c #898F91",
"++	c #97A1A3",
"@+	c #C4D2D4",
"#+	c #B1BDBF",
"$+	c #8D9496",
"%+	c #8C9395",
"&+	c #A0ABAC",
". + @ # $ % & * = % % - ; > > , ' ) ",
"! ~ { ] ^ / ( _ : < [ } | 1 2 3 4 5 ",
"6 7 _ 8 9 / 0 _ a b c d e e e e f g ",
"h i j k l m n j { o p q r r s t u v ",
"w x { a y z A B C D E F G H I J K v ",
"L ] i i B M 8 N O P p Q R S S R T v ",
"U V W X Y N N Z `  ...+.@.@.@.#.$.v ",
"! %.&.*.N N N =.-.;.c >.,.'.'.,.).v ",
"! / !.Z ] ] N ~.{./ ].^./.(.(._.:.<.",
"! / [.*.8 8 ] }.|./ / 1.2.3.4.5.6.7.",
"! / 8.9.0.0.Y a.b./ / c.= d.e.f.g.h.",
"! / i.0.j.j.k.l.b./ / / m.n.o.p./ h.",
"! / q.X r.r.x s.b./ / / t.u.v.w./ h.",
"! / x.r.7 y.A z.b./ / A.B.X W C.D.h.",
"! / E.x F.G.H.I.J./ / K.y.{ L.M.N.h.",
"! / O.A P.Q.X R.D./ / S.T._ j D J.h.",
"! / U.V.M x W. .c./ / / X.i M Y.Z.h.",
". % % `. +.+++@+% % % % #+$+%+&+% ) "};
