/* XPM */
static const char * transx_xpm[] = {
"16 16 3 1",
" 	c None",
".	c red",
"*	c white",
"             *  ",
"           ***  ",
"          ****  ",
"         *****  ",
"       ******** ",
"      ********* ",
"        ****    ",
".......****.....",
"......****......",
"     ****       ",
" *********      ",
" ********       ",
"  *****         ",
"  ****          ",
"  ***           ",
"  *             "};
