/* XPM */
static const char * transyleft_xpm[] = {
"16 16 3 1",
" 	c None",
".	c red",
"*	c white",
"                ",
"        ..      ",
"        ..      ",
"        ..      ",
"    *   ..      ",
"   **   ..      ",
"  ***   ..      ",
" ************** ",
" ************** ",
"  ***   ..      ",
"   **   ..      ",
"    *   ..      ",
"        ..      ",
"        ..      ",
"        ..      ",
"                "};
