/* XPM */
static const char * transy_xpm[] = {
"16 16 3 1",
" 	c None",
".	c red",
"*	c white",
"       ..       ",
"       ..       ",
"       ..       ",
"       ..       ",
"    *  ..  *    ",
"   **  ..  **   ",
"  ***  ..  ***  ",
" ************** ",
"****************",
" ************** ",
"  ***  ..  ***  ",
"   **  ..  **   ",
"    *  ..  *    ",
"       ..       ",
"       ..       ",
"       ..       "};
