/* XPM */
static const char * transXZ_xpm[] = {
"32 32 5 1",
" 	c None",
".	c #808080",
"+	c #000000",
"@	c #7F7F7F",
"#	c #FFFFFF",
"                                ",
"                      .+.       ",
"                     ++++       ",
"                   .+++++.      ",
"                  ++++++++      ",
"                .+++++++++.     ",
"                   ++++         ",
"                  .+++.         ",
"                  ++++          ",
"                 .+++.          ",
"                 ++++           ",
"     +          @+++.     +     ",
"    ++          ++++      ++    ",
"   +++         .+++.      +++   ",
"  ++++++++++++++++++++++++++++  ",
"#++++++++++++++++++++++++++++++ ",
" ++++++++++++++++++++++++++++++ ",
"  ++++++++++++++++++++++++++++  ",
"   +++       ++++         +++   ",
"    ++      .+++.         ++    ",
"     +      ++++          +     ",
"           .+++.                ",
"           ++++                 ",
"          .+++.                 ",
"          ++++                  ",
"         .+++.                  ",
"      ++++++++++                ",
"      .+++++++.                 ",
"       ++++++                   ",
"       .+++.                    ",
"        ++                      ",
"                                "};
