/* XPM */
static const char *up_xpm[] = {
"25 24 130 2",
"  	c None",
". 	c None",
"+ 	c None",
"@ 	c None",
"# 	c None",
"$ 	c #010607",
"% 	c #02090B",
"& 	c #020B0D",
"* 	c #020A0C",
"= 	c #010708",
"- 	c #010304",
"; 	c #031216",
"> 	c #051A20",
", 	c #051E24",
"' 	c #051B21",
") 	c #041418",
"! 	c #010405",
"~ 	c #04161A",
"{ 	c #07272F",
"] 	c #246170",
"^ 	c #276676",
"/ 	c #246171",
"( 	c #082D36",
"_ 	c #04181D",
": 	c #010506",
"< 	c #031115",
"[ 	c #07262E",
"} 	c #3E7E8E",
"| 	c #D8EEF3",
"1 	c #82B5C2",
"2 	c #BADAE2",
"3 	c #5894A3",
"4 	c #072932",
"5 	c #031317",
"6 	c #051C22",
"7 	c #0A3945",
"8 	c #6CACBC",
"9 	c #13687E",
"0 	c #519AAD",
"a 	c #BADBE3",
"b 	c #0B3C49",
"c 	c #061F26",
"d 	c #020C0E",
"e 	c #082B34",
"f 	c #1C6476",
"g 	c #E2F2F7",
"h 	c #4196AC",
"i 	c #3593AB",
"j 	c #3F95AB",
"k 	c #E2F3F7",
"l 	c #458B9C",
"m 	c #082F39",
"n 	c #041519",
"o 	c #0B3C48",
"p 	c #A0CBD6",
"q 	c #B2D6E0",
"r 	c #E5F5F8",
"s 	c #8DC5D4",
"t 	c #7CB9C9",
"u 	c #C1DFE7",
"v 	c #0C414F",
"w 	c #062027",
"x 	c #1B6578",
"y 	c #E4F3F8",
"z 	c #7FBCCB",
"A 	c #C5E3EA",
"B 	c #146D84",
"C 	c #A7D3DE",
"D 	c #B3D8E2",
"E 	c #E5F4F8",
"F 	c #458D9E",
"G 	c #09303A",
"H 	c #A1CCD6",
"I 	c #B2D7E1",
"J 	c #4997AB",
"K 	c #10586A",
"L 	c #1F758B",
"M 	c #C1E0E7",
"N 	c #031013",
"O 	c #072830",
"P 	c #1B6375",
"Q 	c #7EBAC9",
"R 	c #C2E0E8",
"S 	c #0E4C5C",
"T 	c #0B3F4C",
"U 	c #0D4A5A",
"V 	c #C0E0E8",
"W 	c #7BB8C8",
"X 	c #E7F6FA",
"Y 	c #09313B",
"Z 	c #9FC8D3",
"` 	c #B2D5DE",
" .	c #E7F5F8",
"..	c #478FA2",
"+.	c #0A3742",
"@.	c #072931",
"#.	c #0A3540",
"$.	c #458C9E",
"%.	c #7AB5C4",
"&.	c #BFDDE4",
"*.	c #0A3641",
"=.	c #010709",
"-.	c #10424F",
";.	c #DCF0F6",
">.	c #79AFBD",
",.	c #DFF2F6",
"'.	c #0C414E",
").	c #07242C",
"!.	c #062229",
"~.	c #0B3D4A",
"{.	c #BDDCE4",
"].	c #77AEBC",
"^.	c #DDF0F6",
"/.	c #357384",
"(.	c #01080A",
"_.	c #3E7C8B",
":.	c #B6D8E0",
"<.	c #5994A3",
"[.	c #082A33",
"}.	c #020C0F",
"|.	c #3C7B8C",
"1.	c #B6D7DF",
"2.	c #407D8D",
"3.	c #062128",
"4.	c #07272E",
"5.	c #04161B",
"6.	c #082C35",
"7.	c #020D10",
"8.	c #031114",
"9.	c #030E11",
". . . . . . . . . . . . . . . . . . . . . . . . . ",
". . . . . . . . . . . . . . . . . . . . . . . . . ",
". . . . . . . . . . . . . . . . . . . . . . . . . ",
". . . . . . . . . . + @ @ @ + + . . . . . . . . . ",
". . . . . . . . + # $ % & * = - + . . . . . . . . ",
". . . . . . . + - % ; > , ' ) & ! + . . . . . . . ",
". . . . . . . # % ~ { ] ^ / ( _ * # . . . . . . . ",
". . . . . . + : < [ } | 1 2 3 4 5 $ + . . . . . . ",
". . . . . . # * 6 7 2 8 9 0 a b c d - . . . . . . ",
". . . . . + : < e f g h i j k l m n $ + . . . . . ",
". . . . . @ * 6 o p q r s r t u v w d - . . . . . ",
". . . . + : < e x y z A B C D E F G n $ + . . . . ",
". . . . @ % 6 o H I E J K L E t M v w d # . . . . ",
". . . . ! N O P y Q R S T U V W X l ( ; : + . . . ",
". . . + $ ) Y Z `  ...+.@.#.$.E %.&.*._ =.@ . . . ",
". . . + $ n -.;.>.,.'.)._ !.~.{.].^./._ (.@ . . . ",
". . . + ! N )._.:.<.[.~ }.) { |.1.2.O ; $ + . . . ",
". . . . # (.) 3.@.4.5.* $ % ) 3.6.!.~ * - . . . . ",
". . . . + # =.7.8.9.% ! @ - =.7.8.9.(.- + . . . . ",
". . . . . + @ - ! ! # + . + @ - ! - @ + . . . . . ",
". . . . . . . . . . . . . . . . . . . . . . . . . ",
". . . . . . . . . . . . . . . . . . . . . . . . . ",
". . . . . . . . . . . . . . . . . . . . . . . . . ",
". . . . . . . . . . . . . . . . . . . . . . . . . "};
