/* XPM */
static const char * updown_xpm[] = {
"14 27 24 1",
" 	c None",
".	c #27279C",
"+	c #000092",
"@	c #00009A",
"#	c #364EFF",
"$	c #2B3EFF",
"%	c #00ACC6",
"&	c #FDFDFE",
"*	c #0072C2",
"=	c #748EFF",
"-	c #D5E7FE",
";	c #617BFF",
">	c #0037B6",
",	c #001CAE",
"'	c #001DB2",
")	c #0000A0",
"!	c #7F9AFF",
"~	c #0010EA",
"{	c #00C8C5",
"]	c #A3BAFE",
"^	c #C3D8FE",
"/	c #1223FF",
"(	c #0013D4",
"_	c #4B64FF",
"      ..      ",
"     +@@+     ",
"    +@#$@+    ",
"    @%&&*+    ",
"   .@=--;@.   ",
"   +>&$#&,+   ",
"  .@#&'>&$@.  ",
"  +)-=@@!-)+  ",
" .@~&%@@{&~@. ",
" +@]^)++)^]@+ ",
" +*&/@  @/&*+ ",
" @(_,+  +,_(@ ",
"  @@@    @@@  ",
"              ",
"  @@@    @@@  ",
" @(_,+  +,_(@ ",
" +*&/@  @/&*+ ",
" +@]^)++)^]@+ ",
" .@~&{@@%&~@. ",
"  +)-!@@=-)+  ",
"  .@$&>'&#@.  ",
"   +,&#$&>+   ",
"   .@;--=@.   ",
"    +*&&%@    ",
"    +@$#@+    ",
"     +@@+.    ",
"      ..      "};
