/* XPM */
static const char *view_xpm[] = {
/* columns rows colors chars-per-pixel */
"45 21 65 1",
"  c None",
". c #010e11",
"X c #011319",
"o c #001b22",
"O c #01232c",
"+ c #022a35",
"@ c #06323d",
"# c #073a47",
"$ c #0e414e",
"% c #0a4554",
"& c #13424e",
"* c #144b58",
"= c #18505e",
"- c #004d62",
"; c #06566a",
": c #005870",
"> c #195766",
", c #1c6a7e",
"< c #255a68",
"1 c #28606f",
"2 c #276676",
"3 c #336a78",
"4 c #38707e",
"5 c #137791",
"6 c #3b7786",
"7 c #427b8a",
"8 c #2a869d",
"9 c #2a89a1",
"0 c #46808e",
"q c #4b8695",
"w c #558b99",
"e c #5a919f",
"r c #439bb2",
"t c #5995a4",
"y c #659aa8",
"u c #719ca7",
"i c #6da0ad",
"p c #6aa5b4",
"a c #77aab7",
"s c #7bb0bd",
"d c #5eaec3",
"f c #65b7cc",
"g c #7ab4c3",
"h c #7cc0d2",
"j c #81aeb9",
"k c #82b1bc",
"l c #89bac7",
"z c #93bbc6",
"x c #88c1cf",
"c c #88c5d4",
"v c #98c2cc",
"b c #99c9d5",
"n c #9ed1dd",
"m c #9ad5e4",
"M c #a2c2cb",
"N c #a7cdd7",
"B c #a8d2dd",
"V c #b2cfd6",
"C c #b5d4db",
"Z c #a9d7e3",
"A c #badbe3",
"S c #c3dde4",
"D c #cee6ec",
"F c #d1e7ed",
"G c None",
/* pixels */
"                                             ",
"                                             ",
"    .           .                            ",
"   .XX.     .XXXoX                           ",
"   Ouy@.   .<y#&i4X                          ",
"   OkA6X  .Oaz@<beX                          ",
"   X2Ai+. .*NqO@>$X   .XX.   .    ..   . .   ",
"   .#lb>. oqN*X#6=X .o*67#XX*<X..+3*X X#1X   ",
"    OtZ6o.+aj+X<ZtX.o6MCVk=O0N*.o6Zi+X+gjO   ",
"    X2Bp@X*M7o.1xtOX=Bz,2zg#>B3o+phl*o1C6X   ",
"    .$lb>O6b>..1ctOOqF9::pS2#it+-zcz2@tC*.   ",
"     OtDq#paO..1ct+@pcCzvAZ4+wM;6C5jw-zk@    ",
"     .>Zl5B6o .1ct+@pclpuyt&o1S8sl;ta8A0o    ",
"     .@gZnB*X .1ctOOtD9%@+OXX#zcAi#6BfZ>.    ",
"      oedrs+. .1xtOX>NV,%#=@.+ycZ6O<bcs@     ",
"      .<cc6X  .<Byo.o<NSMvb=.X6Zg$X@gm6X.    ",
"       +w7O.   @w1X .X*tii4O X#e3X o7w@.     ",
"       ....    .X.    XXooX   .XX  .X..      ",
"                                             ",
"                                             ",
"                                             "
};
