/* XPM */
static const char *wood_xpm[] = {
/* columns rows colors chars-per-pixel */
"32 32 98 2",
"   c #844f1c",
".  c #87521f",
"X  c #944f0b",
"o  c #96510c",
"O  c #9e530c",
"+  c #9c5614",
"@  c #9a571a",
"#  c #9f5a16",
"$  c #9d5a1a",
"%  c #8b5522",
"&  c #975c24",
"*  c #9b6531",
"=  c #a3550c",
"-  c #ad5a0e",
";  c #a25612",
":  c #a55a14",
">  c #a45d1b",
",  c #ab5d14",
"<  c #aa5e1a",
"1  c #a05f23",
"2  c #a6611e",
"3  c #ae6015",
"4  c #ac621d",
"5  c #b36215",
"6  c #b3641b",
"7  c #b7681e",
"8  c #b8671c",
"9  c #bc691d",
"0  c #a56222",
"q  c #a56529",
"w  c #a6682a",
"e  c #ac6523",
"r  c #aa672b",
"t  c #ae6926",
"y  c #ad6b2c",
"u  c #a76c31",
"i  c #a56d3c",
"p  c #ac6e34",
"a  c #af7136",
"s  c #ad723c",
"d  c #b26622",
"f  c #b46a25",
"g  c #b46d2b",
"h  c #bb6d24",
"j  c #bb6e2a",
"k  c #b56e30",
"l  c #b6712d",
"z  c #bd7026",
"x  c #bc722d",
"c  c #b47233",
"v  c #b5753a",
"b  c #b4793f",
"n  c #bc7533",
"m  c #bc7738",
"M  c #bf7835",
"N  c #bc793c",
"B  c #af7540",
"V  c #af7943",
"C  c #b47b42",
"Z  c #bc7d41",
"A  c #c26b1c",
"S  c #c26e21",
"D  c #c47226",
"F  c #c3742d",
"G  c #c4782e",
"H  c #c9772d",
"J  c #ca792f",
"K  c #c27632",
"L  c #c07738",
"P  c #c47a35",
"I  c #c37d3c",
"U  c #ca7c34",
"Y  c #ca7f3a",
"T  c #d07e35",
"R  c #c67f42",
"E  c #bf8045",
"W  c #be8451",
"Q  c #c6803e",
"!  c #cd8037",
"~  c #ca813b",
"^  c #d0833a",
"/  c #c58243",
"(  c #c4854c",
")  c #cb8444",
"_  c #ca874a",
"`  c #cf8847",
"'  c #cd8a4d",
"]  c #cc8d53",
"[  c #ce925c",
"{  c #d18744",
"}  c #d28b4b",
"|  c #d48f52",
" . c #d8904d",
".. c #d39055",
"X. c #d49359",
"o. c #d99255",
"O. c #d8955a",
"+. c #d09661",
/* pixels */
"' ' o.X._ I c > o e 3 6 f t < f z z F g e Q c N ~ x n C Q n Q N ",
"I K c F : e D h g 9 F P K 0 < H G 9 S @ @ g K U K K 0 O 8 F c c ",
"n d z F z h L _  .{ ` K x > = h 7 2 . 2 - , < d n x < 6 1 v U R ",
"K U x v y e > 0 e > 6 f 2 0 f e @ 6 z - o > h n ~ x < < U K K P ",
"q > > e f 2 , : - 7 g z J F K j 8 5 - h ! ~ ' ( Y d : d h f I k ",
"5 3 f K h h 6 z 8 : 4 5 , 4 4 x Q / ..[ Z n c g F h < n U f & g ",
"h t 7 g f D z n h g P J z / _ / Z a i s } N V [ L n v I p q F U ",
"n x g z z D D U H J H D A h 8 f n x K 7 5 D P Z h H I T K f R j ",
"K l z x g z l g t t g 2 > , ; : e P R P C n ~ Q n n n g L ] N L ",
"I / / / E Q c 3 4 l z > : 6 4 1 6 j c L n C C K F x n v * t I g ",
"v w y a n e g K g > < g j x d d y y y j N c k x x h f v v r c u ",
"' v W N v v g 4 j n , O = 4 D e e g y N y L R n g | Q _ O.| C b ",
"x N P H I Q N F j x 7 9 U h 9 K ~ P ) ) ! } ) ( _ / ( _ I U K U ",
"I P ( _ L I K K h F F F L D z m F ~ ' Q ' / g J A R ( / x n F L ",
"} } o.[ / I c 2 o d 4 6 g d < h x h G f 0 I c I Y n v v Y n I v ",
"I n g F , e D D c S K U K e < J G 9 9 @ @ f K F K F < = 6 K c n ",
"x e x F x z M ( } { ) x g > = h 4 2 . 2 - , < t n x < 4 e v U R ",
"P U j v y 0 # > 0 : 6 f e 0 x 0 : 6 z - ; > h M I x < < U L K P ",
"1 > > e f 4 3 : 5 6 j j D F z D 9 6 - x ~ ~ } ( Y d ; f h f I k ",
"5 4 h K h S 4 z 7 : 6 5 , e e n Q / X.[ E c g l x z 4 n U e & g ",
"z f f f g z z M h f Y U F / ) / Z u i a { N V +.L F v R p q H J ",
"x x g h z D D U F U H A A 9 5 f L M K 9 5 D I N j H I T K j R j ",
"K n F x l z g f t r g > > : ; $ 0 P R I Z c Q ~ n n n g n ] N m ",
"I Z / / E Q c 5 4 g x 2 < 6 6 0 8 f y m n C C K F x n B * 0 P g ",
"v w y a c e f n y > < f f x d e k r y F N g k x j h f n Z y v u ",
"' v W N N b g 6 j n 3 = = 4 D e r g y L k L _ m c ../ _ O...C b ",
"x n K H I I N K j x 9 9 T h 9 K ~ U ) / ~ _ ) _ { / ( _ L U F H ",
"/ I ] ] I I K K h K F F L F D m F I _ Y ' / g F 9 R ( / F L n L ",
"' } o.| Q L c 2 o 4 4 6 g t , h z 9 H t 0 I c L Y K n k I F I n ",
"I x y z , 4 D F M D P Y G 4 4 H G 9 6 $ @ d F F F K 1 ; 3 n c v ",
"x d z K x z n ( } ~ ~ n g # O f 4 4 % < = , < f L x < 6 r c U R ",
"P Y g v y 0 $ : 2 ; 6 d 4 e n 4 # 4 D , + > f n P j < 3 L K F L "
};
