/* XPM */
static const char *world_xpm[] = {
/* width height num_colors chars_per_pixel */
"    19    19       50            1",
/* colors */
". c none",
"# c #020039",
"a c #15196a",
"b c #33377e",
"c c #3c4372",
"d c #515270",
"e c #494375",
"f c #4d5087",
"g c #104138",
"h c #000224",
"i c #130f52",
"j c #1b276e",
"k c #243370",
"l c #43508b",
"m c #6b6d9d",
"n c #72799f",
"o c #5a689d",
"p c #41529b",
"q c #545c99",
"r c #585c8b",
"s c #1c4d93",
"t c #020456",
"u c #2b2b5a",
"v c #284193",
"w c #364a8f",
"x c #9594b9",
"y c #807fa5",
"z c #6e758f",
"A c #001854",
"B c #1c378b",
"C c #8e91ab",
"D c #9f97b8",
"E c #7e7b8f",
"F c #7589a7",
"G c #aba3c5",
"H c #aba8b7",
"I c #092773",
"J c #696587",
"K c #8e83a2",
"L c #172c56",
"M c #001370",
"N c #b3b2cb",
"O c #052182",
"P c #bebeca",
"Q c #9e99a6",
"R c #130c45",
"S c #c2c1db",
"T c #dcdbe8",
"U c #cfc8da",
"V c #001039",
/* pixels */
"...................",
"......tjbwwy.......",
"....hifBewyyDm.....",
"...huIBMmOCOOpxs...",
"...cccyCPQjxbBpp...",
"..hebcjffJeCGxwpx..",
"..ArffbGzCTxTPBPmG.",
".hAfbkOfxJTmTNdlxx.",
".ijAEMjMMJCPSxBBpq.",
".ujbyKbmbHCNPfOpsm.",
".trfQxNGJdkTPqwBBG.",
".#rKMQNNmBmSTNbqBp.",
".#knyDGSylGCmrmbmx.",
"..uzynJHGPCPFSxxws.",
"..#fyCGNTUSGNUKNy..",
"...bnDNPSTTGGNGy...",
"....cyDNSSUfGGx....",
".....unCDGNxx......",
"..................."};
