/* XPM */
static const char * zoomin_xpm[] = {
"16 16 55 1",
" 	c None",
".	c #B6B6B6",
"+	c #404040",
"@	c #373737",
"#	c #A3A3A3",
"$	c #939393",
"%	c #616161",
"&	c #E9E9E9",
"*	c #535353",
"=	c #727272",
"-	c #A4A4A4",
";	c #5D5D5D",
">	c #2E2E2E",
",	c #515151",
"'	c #707070",
")	c #787878",
"!	c #606060",
"~	c #ADADAD",
"{	c #575757",
"]	c #2B2B2B",
"^	c #8F8F8F",
"/	c #484848",
"(	c #2C2C2C",
"_	c #8C8C8C",
":	c #6D6D6D",
"<	c #6B6B6B",
"[	c #4D4D4D",
"}	c #7E7E7E",
"|	c #363636",
"1	c #A7A7A7",
"2	c #444444",
"3	c #747474",
"4	c #525252",
"5	c #848484",
"6	c #3E3E3E",
"7	c #393939",
"8	c #303030",
"9	c #9C9C9C",
"0	c #AAAAAA",
"a	c #626262",
"b	c #8A8A8A",
"c	c #A6A6A6",
"d	c #585858",
"e	c #434343",
"f	c #9F9F9F",
"g	c #BEBEBE",
"h	c #5F5F5F",
"i	c #494949",
"j	c #B9B9B9",
"k	c #595959",
"l	c #4B4B4B",
"m	c #B3B3B3",
"n	c #B8B8B8",
"o	c #7A7A7A",
"p	c #ACACAC",
"                ",
"    .++@#       ",
"   $%&&&*=      ",
"  -;&&>&&,'     ",
"  =)&&!&&&@~    ",
"  {&>>>>>&]^    ",
"  {&&&/&&&(_    ",
"  :<&&[&&}|#    ",
"  123&&&&+4     ",
"   567+@>8@9    ",
"    03{abcdef   ",
"          ghic  ",
"           jklm ",
"            nop ",
"                ",
"                "};
