/* XPM */
static const char * zoomout_xpm[] = {
"16 16 52 1",
" 	g None",
".	g #B6B6B6",
"+	g #404040",
"@	g #373737",
"#	g #A3A3A3",
"$	g #939393",
"%	g #616161",
"&	g #E9E9E9",
"*	g #535353",
"=	g #727272",
"-	g #A4A4A4",
";	g #5D5D5D",
">	g #515151",
",	g #707070",
"'	g #787878",
")	g #ADADAD",
"!	g #575757",
"~	g #2E2E2E",
"{	g #2B2B2B",
"]	g #8F8F8F",
"^	g #2C2C2C",
"/	g #8C8C8C",
"(	g #6D6D6D",
"_	g #6B6B6B",
":	g #7E7E7E",
"<	g #363636",
"[	g #A7A7A7",
"}	g #444444",
"|	g #747474",
"1	g #525252",
"2	g #848484",
"3	g #3E3E3E",
"4	g #393939",
"5	g #303030",
"6	g #9C9C9C",
"7	g #AAAAAA",
"8	g #626262",
"9	g #8A8A8A",
"0	g #A6A6A6",
"a	g #585858",
"b	g #434343",
"c	g #9F9F9F",
"d	g #BEBEBE",
"e	g #5F5F5F",
"f	g #494949",
"g	g #B9B9B9",
"h	g #595959",
"i	g #4B4B4B",
"j	g #B3B3B3",
"k	g #B8B8B8",
"l	g #7A7A7A",
"m	g #ACACAC",
"                ",
"    .++@#       ",
"   $%&&&*=      ",
"  -;&&&&&>,     ",
"  ='&&&&&&@)    ",
"  !&~~~~~&{]    ",
"  !&&&&&&&^/    ",
"  (_&&&&&:<#    ",
"  [}|&&&&+1     ",
"   234+@~5@6    ",
"    7|!890abc   ",
"          def0  ",
"           ghij ",
"            klm ",
"                ",
"                "};
