/* XPM */
static const char *zoom_xpm[] = {
/* width height num_colors chars_per_pixel */
"    22    18        5            1",
/* colors */
"a c None",
". c #ffffff",
"# c #808080",
"b c #ffffff",
"c c #ffffff",
/* pixels */
"aaaaaaaaaaaaaaaaaaaaaa",
"aaaaaaaaaaaaaaaaaaaaaa",
"aaaaaaa...aaaaaaaaaaaa",
"aaaaa..aaa..aaaaaaaaaa",
"aaaa.aaaaaaa.aaaaaaaaa",
"aaaa.aaaaaaa.aaaaaaaaa",
"aaa.abbbbbbba.aaaaaaaa",
"aaa.aaaaaaaaa.aaaaaaaa",
"aaa.abbbbbbba.aaaaaaaa",
"aaaa.aaaaaaa..aaaaaaaa",
"aaaa..aaaaaa.aaaaaaaaa",
"aaaaa..aaa....#aaaaaaa",
"aaaaaaa....a...#aaaaaa",
"aaaaaaaaaaaa#...#aaaaa",
"aaaaaaaaaaaaa#...caaaa",
"aaaaaaaaaaaaaa#.ccaaaa",
"aaaaaaaaaaaaaaaccaaaaa",
"aaaaaaaaaaaaaaaaaaaaaa"
};
