# These .obj files are copyright (c) 2002 Lucas Walter
# and are for distribution with the 'lwBVH' demo
# program only, and are not for commercial use.
#
# lucasw@u.washington.edu
# http://students.washington.edu
#
# These .obj files are copyright (c) 2002 Lucas Walter
# and are for distribution with the 'lwBVH' demo
# program only, and are not for commercial use.
#
# lucasw@u.washington.edu
# http://students.washington.edu
#
# Exported from Wings 3D 0.98
mtllib chest.mtl
o cube1_cut9
#195 vertices, 337 faces
v 0.00000e+0 -0.923570 0.693498
v 0.00000e+0 -0.670000 -0.534000
v -0.934000 -0.772000 -0.373739
v -0.913581 -0.764479 0.398403
v -1.00000 -0.842000 0.00000e+0
v 0.00000e+0 -4.80000e-2 0.314000
v 0.00000e+0 0.142000 -0.358000
v -0.852000 -2.40000e-2 -0.251739
v -0.916000 2.00000e-2 0.00000e+0
v -0.804000 -0.106000 0.246837
v -1.04404 -0.658989 -0.319178
v -1.06023 -0.708496 6.65118e-3
v -1.06222 -0.663985 0.268844
v -0.260107 0.212515 -0.295791
v -0.110000 -3.40000e-2 0.201419
v -0.314000 3.00000e-2 -8.52255e-2
v -0.882000 -0.326000 0.412837
v -0.947111 -0.658993 0.328840
v -0.969955 -0.361607 0.390237
v -0.782000 -0.326000 -0.453739
v -1.00817 -0.609746 -0.325512
v 0.00000e+0 -0.518000 -0.526000
v -0.298000 0.186000 -0.172548
v 0.00000e+0 -1.13300 0.619000
v -0.848000 -1.03300 0.435549
v -0.514000 -0.670000 -0.521870
v -0.709000 -0.354000 -0.472870
v 0.00000e+0 -1.04900 -0.463000
v -0.659000 -1.41900 -0.278311
v -0.811000 -1.67100 7.50000e-3
v -0.231500 -1.10100 -0.430156
v -0.608582 -0.835570 0.658917
v -0.604000 -1.16900 0.558274
v 0.00000e+0 -0.450570 0.533498
v -0.591582 -0.334070 0.492917
v -0.850000 -0.740000 0.492128
v -0.720000 -1.10700 0.536912
v -0.762500 -0.334250 0.428128
v 0.00000e+0 -1.39350 0.537500
v -0.735000 -1.79950 0.340905
v -0.435500 -1.66550 0.516702
v 0.00000e+0 -1.31925 0.622250
v -0.811500 -1.59525 0.379227
v -0.540750 -1.52825 0.580488
v -0.323020 -1.60386 0.537041
v -0.125645 -1.42636 0.541240
v 0.00000e+0 -1.40450 -0.436500
v -0.490250 -1.43250 -0.387299
v -0.309125 -1.44150 -0.402899
v -0.264563 -1.42000 -0.410700
v -3.42812e-2 -1.40925 -0.414600
v -0.626500 -0.346000 -0.482435
v -0.259703 -0.673298 -0.579693
v -0.118183 -1.07907 -0.472142
v -1.71406e-2 -1.40388 -0.434550
v -0.669215 -0.345286 -0.503180
v -0.811500 -1.08050 -0.317025
v -0.963500 -1.17550 3.75000e-3
v -0.922278 -0.288998 0.388088
v -1.05122 -0.700241 -0.185541
v -0.884000 -1.30000e-2 0.132418
v -0.669000 7.50000e-2 -0.261804
v -0.731000 9.70000e-2 -6.92738e-2
v -0.723000 8.50000e-3 6.35965e-2
v -0.518500 1.92500e-2 2.91855e-2
v -0.306000 0.102000 -0.111887
v -0.500250 7.66250e-2 -4.13505e-2
v -0.514500 0.135500 -0.103911
v 0.00000e+0 -0.624070 0.636498
v -0.600082 -0.615820 0.601917
v -0.847250 -0.617125 0.460128
v -0.112291 -0.923570 0.716208
v -0.110000 -1.16900 0.601637
v -0.103791 -0.378320 0.550208
v -0.108041 -0.619945 0.659208
v 0.00000e+0 -1.07828 0.656249
v -0.606291 -1.02628 0.614596
v -0.111146 -1.11428 0.658922
v -0.347687 -0.338195 0.542562
v -0.360437 -0.879570 0.708562
v -0.357000 -1.16900 0.579956
v -0.354062 -0.617882 0.651562
v -0.358718 -1.07028 0.650759
v -7.10004e-2 -5.50000e-2 0.257709
v -2.85004e-2 -5.15000e-2 0.267855
v -0.886506 1.12808e-2 -0.129522
v -0.823812 -0.110834 -0.367302
v 0.00000e+0 -3.20000e-2 -0.514000
v -0.837906 -6.74171e-2 -0.318520
v -0.277250 -0.432000 -0.547217
v -0.424097 -3.68737e-2 -0.485322
v -0.144533 -3.02398e-2 -0.516286
v -7.06250e-2 -0.475000 -0.549609
v -0.802906 -0.218417 -0.448520
v 0.00000e+0 -0.261000 -0.558000
v -0.350673 -0.220437 -0.554269
v -0.107579 -0.238620 -0.570947
v 0.00000e+0 -0.201285 0.435749
v -0.843000 -0.162000 0.280837
v 0.00000e+0 -0.271927 0.484624
v -9.80000e-2 -0.153642 0.428293
v -0.117500 -0.216964 0.440730
v -0.887250 -1.50425 5.62500e-3
v -0.453500 0.124500 -0.266837
v -0.135295 0.160043 -0.382321
v -0.788900 -1.73689 0.173488
v 0.934000 -0.772000 -0.373739
v 0.913581 -0.764479 0.398403
v 1.00000 -0.842000 0.00000e+0
v 0.852000 -2.40000e-2 -0.251739
v 0.916000 2.00000e-2 0.00000e+0
v 0.804000 -0.106000 0.246837
v 1.04404 -0.658989 -0.319178
v 1.06023 -0.708496 6.65118e-3
v 1.06222 -0.663985 0.268844
v 0.260107 0.212515 -0.295791
v 0.110000 -3.40000e-2 0.201419
v 0.314000 3.00000e-2 -8.52255e-2
v 0.882000 -0.326000 0.412837
v 0.947111 -0.658993 0.328840
v 0.969955 -0.361607 0.390237
v 0.782000 -0.326000 -0.453739
v 1.00817 -0.609746 -0.325512
v 0.298000 0.186000 -0.172548
v 0.848000 -1.03300 0.435549
v 0.514000 -0.670000 -0.521870
v 0.709000 -0.354000 -0.472870
v 0.659000 -1.41900 -0.278311
v 0.811000 -1.67100 7.50000e-3
v 0.231500 -1.10100 -0.430156
v 0.608582 -0.835570 0.658917
v 0.604000 -1.16900 0.558274
v 0.591582 -0.334070 0.492917
v 0.850000 -0.740000 0.492128
v 0.720000 -1.10700 0.536912
v 0.762500 -0.334250 0.428128
v 0.735000 -1.79950 0.340905
v 0.435500 -1.66550 0.516702
v 0.811500 -1.59525 0.379227
v 0.540750 -1.52825 0.580488
v 0.323020 -1.60386 0.537041
v 0.125645 -1.42636 0.541240
v 0.490250 -1.43250 -0.387299
v 0.309125 -1.44150 -0.402899
v 0.264563 -1.42000 -0.410700
v 3.42812e-2 -1.40925 -0.414600
v 0.626500 -0.346000 -0.482435
v 0.259703 -0.673298 -0.579693
v 0.118183 -1.07907 -0.472142
v 1.71406e-2 -1.40388 -0.434550
v 0.669215 -0.345286 -0.503180
v 0.811500 -1.08050 -0.317025
v 0.963500 -1.17550 3.75000e-3
v 0.922278 -0.288998 0.388088
v 1.05122 -0.700241 -0.185541
v 0.884000 -1.30000e-2 0.132418
v 0.669000 7.50000e-2 -0.261804
v 0.731000 9.70000e-2 -6.92738e-2
v 0.723000 8.50000e-3 6.35965e-2
v 0.518500 1.92500e-2 2.91855e-2
v 0.306000 0.102000 -0.111887
v 0.500250 7.66250e-2 -4.13505e-2
v 0.514500 0.135500 -0.103911
v 0.600082 -0.615820 0.601917
v 0.847250 -0.617125 0.460128
v 0.112291 -0.923570 0.716208
v 0.110000 -1.16900 0.601637
v 0.103791 -0.378320 0.550208
v 0.108041 -0.619945 0.659208
v 0.606291 -1.02628 0.614596
v 0.111146 -1.11428 0.658922
v 0.347687 -0.338195 0.542562
v 0.360437 -0.879570 0.708562
v 0.357000 -1.16900 0.579956
v 0.354062 -0.617882 0.651562
v 0.358718 -1.07028 0.650759
v 7.10004e-2 -5.50000e-2 0.257709
v 2.85004e-2 -5.15000e-2 0.267855
v 0.886506 1.12808e-2 -0.129522
v 0.823812 -0.110834 -0.367302
v 0.837906 -6.74171e-2 -0.318520
v 0.277250 -0.432000 -0.547217
v 0.424097 -3.68737e-2 -0.485322
v 0.144533 -3.02398e-2 -0.516286
v 7.06250e-2 -0.475000 -0.549609
v 0.802906 -0.218417 -0.448520
v 0.350673 -0.220437 -0.554269
v 0.107579 -0.238620 -0.570947
v 0.843000 -0.162000 0.280837
v 9.80000e-2 -0.153642 0.428293
v 0.117500 -0.216964 0.440730
v 0.887250 -1.50425 5.62500e-3
v 0.453500 0.124500 -0.266837
v 0.135295 0.160043 -0.382321
v 0.788900 -1.73689 0.173488
vn 9.63035e-18 4.56228e-2 0.998959
vn 2.14667e-17 -8.89868e-2 -0.996033
vn -0.294351 0.248727 -0.922764
vn -0.879061 -3.99073e-2 0.475035
vn -0.941958 -0.332586 -4.58442e-2
vn 0.209770 0.455640 0.865095
vn 0.377816 0.816932 -0.435750
vn -0.309032 0.887304 -0.342332
vn -0.145280 0.981092 0.127879
vn -3.45750e-2 0.811873 0.582809
vn 0.750494 0.619030 0.231432
vn -0.991580 9.16016e-2 -9.15323e-2
vn -0.916027 -0.221672 0.334299
vn -0.103174 0.967716 -0.229959
vn 0.143330 0.861257 0.487538
vn 0.396469 0.641617 0.656613
vn -0.402739 0.342112 0.848976
vn -0.730412 -5.51948e-2 0.680773
vn -0.221296 0.499977 0.837288
vn -0.210288 0.388778 -0.897012
vn -0.894427 0.447214 0.00000e+0
vn 7.30272e-18 -3.70065e-2 -0.999315
vn 6.18921e-2 0.899942 0.431594
vn 9.98205e-18 -0.449730 0.893165
vn -0.858751 -0.132636 0.494928
vn -0.299644 -0.212640 -0.930053
vn -0.400640 -0.120553 -0.908270
vn 2.33059e-18 -0.114477 -0.993426
vn -0.580462 -0.540171 -0.609327
vn -0.283704 -0.811378 -0.511056
vn -0.179722 -0.173732 -0.968255
vn -0.364573 2.77548e-2 0.930761
vn -0.275923 -0.267907 0.923088
vn 0.00000e+0 0.396791 0.917909
vn -0.211123 0.556973 0.803249
vn -0.667329 4.24408e-2 0.743553
vn -0.510164 -0.199233 0.836683
vn -0.265822 0.393277 0.880154
vn 0.00000e+0 -0.958007 0.286745
vn -0.436092 -0.827013 0.354787
vn 0.111964 -0.848162 0.517770
vn 6.24782e-18 -0.302659 0.953099
vn -0.753881 -0.289394 0.589843
vn -0.113056 -0.296614 0.948282
vn 0.483369 -0.852093 0.200728
vn 0.330468 -0.879854 0.341537
vn 1.00736e-17 -0.730143 -0.683294
vn -0.271791 -0.433436 -0.859222
vn 0.152503 -0.812670 -0.562415
vn 0.105227 -0.692575 -0.713630
vn -0.121001 -0.863305 -0.489963
vn 2.43952e-2 0.272098 -0.961960
vn -1.88733e-2 -8.93215e-3 -0.999782
vn -0.152180 -0.234134 -0.960220
vn -0.229693 -0.414328 -0.880667
vn -0.157161 0.183203 -0.970431
vn -0.588741 -0.285415 -0.756256
vn -0.966496 -0.200986 -0.159655
vn -0.197142 0.839224 0.506792
vn -0.269422 0.787450 -0.554377
vn 5.42609e-2 0.972268 0.227490
vn -0.316729 0.851973 -0.416923
vn -0.220337 0.952212 0.211527
vn 1.47615e-2 0.866082 0.499684
vn 4.79602e-2 0.860912 0.506489
vn 0.344701 0.508550 0.789024
vn 0.151081 0.667608 0.729023
vn -8.64682e-2 0.943302 0.320475
vn 7.19446e-18 0.354276 0.935141
vn -0.338423 0.293662 0.893998
vn -0.552483 0.167907 0.816437
vn 5.88588e-2 -0.125312 0.990370
vn -5.05511e-2 -0.372493 0.926657
vn 0.126023 0.429131 0.894408
vn 0.137576 0.297889 0.944635
vn -4.75658e-18 -0.365503 0.930810
vn -0.283894 -0.287916 0.914608
vn 2.86809e-2 -0.539845 0.841276
vn -7.82804e-2 0.493482 0.866226
vn -0.116948 -3.22724e-2 0.992614
vn -9.52993e-2 -0.307132 0.946883
vn -9.21504e-2 0.304700 0.947980
vn -0.126452 -0.402821 0.906502
vn 0.222693 0.537220 0.813512
vn -0.204922 -0.252662 0.945605
vn -0.250025 0.940367 -0.230646
vn -0.218259 0.780481 -0.585843
vn -4.04387e-18 0.432452 -0.901657
vn -0.268172 0.792651 -0.547530
vn -8.99241e-2 -3.16364e-4 -0.995949
vn -0.253168 0.588315 -0.767979
vn -4.57436e-2 0.398837 -0.915880
vn 0.144296 -2.02107e-2 -0.989328
vn -0.205306 0.364622 -0.908240
vn -4.74750e-18 -2.24120e-3 -0.999997
vn -0.150202 0.102217 -0.983357
vn 2.13493e-2 7.82543e-2 -0.996705
vn 1.25476e-17 0.468665 0.883376
vn -0.119806 0.760411 0.638296
vn -9.53889e-18 0.473024 0.881050
vn -7.76114e-2 0.705981 0.703965
vn -7.45769e-2 0.537793 0.839772
vn -0.919517 -0.314657 -0.235540
vn -0.314697 0.901406 -0.297378
vn 0.177262 0.736123 -0.653223
vn -0.321282 -0.912054 -0.254826
vn 0.576150 -0.101029 -0.811076
vn 0.879061 -3.99073e-2 0.475035
vn 0.916637 -0.397236 4.45061e-2
vn 0.309032 0.887304 -0.342332
vn 0.145280 0.981092 0.127879
vn 3.45750e-2 0.811873 0.582809
vn 0.750494 -0.619030 -0.231432
vn 0.991580 9.16016e-2 -9.15323e-2
vn 0.916027 -0.221672 0.334299
vn 0.551072 0.811851 -0.192921
vn 0.271936 0.837447 0.474060
vn 2.36818e-2 0.698696 0.715026
vn 0.456874 0.491302 0.741545
vn 0.761840 9.52359e-2 0.640727
vn -4.42580e-2 0.984984 -0.166879
vn 0.210288 0.388778 -0.897012
vn -0.894427 -0.447214 0.00000e+0
vn 0.393277 0.829014 0.397578
vn 0.858751 -0.132636 0.494928
vn 0.299644 -0.212640 -0.930053
vn 0.400640 -0.120553 -0.908270
vn 0.580462 -0.540171 -0.609327
vn 0.283704 -0.811378 -0.511056
vn 0.179722 -0.173732 -0.968255
vn 0.364573 2.77548e-2 0.930761
vn 0.275923 -0.267907 0.923088
vn 0.211123 0.556973 0.803249
vn 0.667329 4.24408e-2 0.743553
vn 0.510164 -0.199233 0.836683
vn 0.265822 0.393277 0.880154
vn 0.436092 -0.827013 0.354787
vn -0.111964 -0.848162 0.517770
vn 0.753881 -0.289394 0.589843
vn 0.113056 -0.296614 0.948282
vn -0.483369 -0.852093 0.200728
vn -0.330468 -0.879854 0.341537
vn 0.271791 -0.433436 -0.859222
vn -0.152503 -0.812670 -0.562415
vn -0.105227 -0.692575 -0.713630
vn 0.121001 -0.863305 -0.489963
vn -2.43952e-2 0.272098 -0.961960
vn 1.88733e-2 -8.93215e-3 -0.999782
vn 0.152180 -0.234134 -0.960220
vn 0.229693 -0.414328 -0.880667
vn 0.157161 0.183203 -0.970431
vn 0.588741 -0.285415 -0.756256
vn 0.966496 -0.200986 -0.159655
vn 0.00000e+0 0.00000e+0 0.00000e+0
vn 0.930752 -0.120707 0.345152
vn -5.42609e-2 0.972268 0.227490
vn 0.316729 0.851973 -0.416923
vn 0.220337 0.952212 0.211527
vn -1.47615e-2 0.866082 0.499684
vn -4.79602e-2 0.860912 0.506489
vn 5.25937e-2 0.541003 0.839375
vn -0.151081 0.667608 0.729023
vn 8.64682e-2 0.943302 0.320475
vn 0.338423 0.293662 0.893998
vn 0.552483 0.167907 0.816437
vn -5.88588e-2 -0.125312 0.990370
vn 5.05511e-2 -0.372493 0.926657
vn -0.126023 0.429131 0.894408
vn -0.137576 0.297889 0.944635
vn 0.283894 -0.287916 0.914608
vn -2.86809e-2 -0.539845 0.841276
vn 7.82804e-2 0.493482 0.866226
vn 0.116948 -3.22724e-2 0.992614
vn 9.52993e-2 -0.307132 0.946883
vn 9.21504e-2 0.304700 0.947980
vn 0.126452 -0.402821 0.906502
vn 0.516607 0.632719 0.576874
vn 1.00000 0.00000e+0 0.00000e+0
vn 0.250025 0.940367 -0.230646
vn 0.218259 0.780481 -0.585843
vn 0.268172 0.792651 -0.547530
vn 8.99241e-2 -3.16364e-4 -0.995949
vn 0.253168 0.588315 -0.767979
vn 4.57436e-2 0.398837 -0.915880
vn -0.144296 -2.02107e-2 -0.989328
vn 0.205306 0.364622 -0.908240
vn 0.150202 0.102217 -0.983357
vn -2.13493e-2 7.82543e-2 -0.996705
vn 0.119806 0.760411 0.638296
vn 6.32430e-2 0.755944 0.651574
vn 7.45769e-2 0.537793 0.839772
vn 0.919517 -0.314657 -0.235540
vn 0.314697 0.901406 -0.297378
vn 0.214509 0.730557 -0.648284
vn 0.321282 -0.912054 -0.254826
g cube1_cut9_default
usemtl default
f 1//1 72//72 76//76
f 1//1 76//76 166//166
f 2//2 185//185 148//148
f 3//3 26//26 57//57
f 3//3 57//57 5//5
f 4//4 5//5 25//25
f 4//4 17//17 18//18
f 4//4 18//18 5//5
f 4//4 25//25 36//36
f 4//4 71//71 17//17
f 5//5 58//58 25//25
f 7//7 88//88 105//105
f 7//7 194//194 88//88
f 8//8 62//62 89//89
f 8//8 86//86 63//63
f 9//9 63//63 86//86
f 10//10 101//101 65//65
f 11//11 21//21 3//3 5//5 60//60
f 12//12 5//5 13//13
f 12//12 13//13 18//18 19//19 59//59 17//17 99//99 10//10 61//61 9//9 86//86 8//8 89//89 87//87 94//94 20//20 3//3 60//60
f 12//12 60//60 5//5
f 14//14 104//104 23//23
f 14//14 105//105 91//91
f 15//15 65//65 101//101
f 15//15 101//101 84//84
f 16//16 65//65 15//15
f 17//17 38//38 99//99
f 18//18 13//13 5//5
f 18//18 17//17 19//19
f 20//20 27//27 3//3
f 20//20 94//94 27//27
f 21//21 11//11 3//3
f 22//22 2//2 93//93
f 22//22 93//93 95//95
f 22//22 95//95 185//185
f 22//22 185//185 2//2
f 23//23 68//68 66//66
f 24//24 42//42 167//167
f 24//24 73//73 42//42
f 25//25 43//43 37//37
f 25//25 58//58 43//43
f 26//26 3//3 27//27
f 26//26 31//31 57//57
f 26//26 53//53 31//31
f 27//27 56//56 26//26
f 28//28 2//2 149//149
f 28//28 54//54 2//2
f 29//29 49//49 30//30
f 29//29 57//57 48//48
f 30//30 49//49 45//45
f 30//30 103//103 29//29
f 30//30 106//106 103//103
f 31//31 48//48 57//57
f 31//31 54//54 51//51
f 32//32 70//70 36//36
f 32//32 77//77 80//80
f 33//33 44//44 81//81
f 33//33 77//77 37//37
f 34//34 100//100 74//74
f 34//34 168//168 100//100
f 35//35 38//38 70//70
f 35//35 70//70 79//79
f 36//36 37//37 32//32
f 36//36 71//71 4//4
f 37//37 36//36 25//25
f 37//37 43//43 33//33
f 38//38 17//17 71//71
f 38//38 35//35 99//99
f 39//39 42//42 46//46
f 39//39 142//142 42//42
f 39//39 146//146 142//142
f 40//40 41//41 43//43
f 40//40 43//43 106//106
f 40//40 106//106 41//41
f 41//41 45//45 44//44
f 41//41 106//106 45//45
f 42//42 142//142 140//140
f 44//44 33//33 43//43
f 44//44 42//42 81//81
f 44//44 43//43 41//41
f 44//44 46//46 42//42
f 45//45 46//46 44//44
f 45//45 49//49 46//46
f 46//46 51//51 39//39
f 47//47 28//28 150//150
f 47//47 55//55 28//28
f 48//48 31//31 49//49
f 48//48 49//49 29//29
f 49//49 50//50 46//46
f 50//50 49//49 31//31
f 51//51 46//46 50//50
f 51//51 47//47 146//146
f 51//51 50//50 31//31
f 51//51 146//146 39//39
f 52//52 90//90 53//53
f 53//53 2//2 54//54
f 53//53 26//26 56//56
f 53//53 93//93 2//2
f 54//54 28//28 55//55
f 54//54 31//31 53//53
f 55//55 47//47 51//51
f 55//55 51//51 54//54
f 56//56 27//27 94//94
f 56//56 52//52 53//53
f 56//56 94//94 52//52
f 57//57 29//29 58//58
f 58//58 5//5 57//57
f 59//59 19//19 17//17
f 60//60 3//3 11//11
f 61//61 10//10 64//64
f 61//61 64//64 9//9
f 62//62 8//8 63//63
f 63//63 9//9 64//64
f 63//63 68//68 62//62
f 64//64 10//10 65//65
f 64//64 65//65 63//63
f 65//65 16//16 67//67
f 65//65 67//67 63//63
f 66//66 67//67 16//16
f 67//67 66//66 68//68
f 68//68 23//23 104//104
f 68//68 63//63 67//67
f 69//69 1//1 169//169
f 69//69 34//34 75//75
f 69//69 75//75 1//1
f 69//69 169//169 34//34
f 70//70 32//32 82//82
f 71//71 36//36 70//70
f 71//71 70//70 38//38
f 72//72 1//1 75//75
f 72//72 75//75 80//80
f 73//73 24//24 78//78
f 73//73 78//78 81//81
f 73//73 81//81 42//42
f 74//74 75//75 34//34
f 75//75 74//74 82//82
f 76//76 24//24 171//171
f 76//76 78//78 24//24
f 77//77 32//32 37//37
f 77//77 33//33 83//83
f 78//78 72//72 83//83
f 78//78 76//76 72//72
f 79//79 74//74 102//102
f 79//79 82//82 74//74
f 79//79 102//102 35//35
f 80//80 82//82 32//32
f 80//80 83//83 72//72
f 81//81 83//83 33//33
f 82//82 79//79 70//70
f 82//82 80//80 75//75
f 83//83 80//80 77//77
f 83//83 81//81 78//78
f 85//85 6//6 84//84
f 85//85 84//84 101//101 6//6
f 89//89 62//62 91//91
f 89//89 91//91 87//87
f 90//90 52//52 96//96
f 90//90 93//93 53//53
f 91//91 92//92 96//96
f 91//91 105//105 92//92
f 92//92 88//88 97//97
f 92//92 105//105 88//88
f 93//93 90//90 97//97
f 94//94 87//87 91//91
f 94//94 96//96 52//52
f 95//95 88//88 188//188
f 95//95 97//97 88//88
f 96//96 94//94 91//91
f 96//96 97//97 90//90
f 97//97 95//95 93//93
f 97//97 96//96 92//92
f 98//98 6//6 101//101
f 98//98 190//190 6//6
f 99//99 102//102 10//10
f 100//100 98//98 102//102
f 100//100 102//102 74//74
f 100//100 168//168 191//191
f 100//100 191//191 98//98
f 101//101 10//10 102//102
f 101//101 102//102 98//98
f 102//102 99//99 35//35
f 103//103 43//43 58//58
f 103//103 58//58 29//29
f 103//103 106//106 43//43
f 104//104 14//14 91//91
f 104//104 62//62 68//68
f 104//104 91//91 62//62
f 106//106 30//30 45//45
f 107//107 109//109 152//152
f 107//107 113//113 155//155 109//109
f 107//107 152//152 126//126
f 108//108 109//109 120//120
f 108//108 120//120 119//119
f 108//108 125//125 109//109
f 108//108 134//134 125//125
f 110//110 181//181 157//157
f 111//111 179//179 158//158
f 113//113 123//123 107//107 155//155
f 114//114 109//109 155//155
f 114//114 115//115 109//109
f 116//116 124//124 193//193
f 117//117 118//118 161//161 124//124 116//116 194//194 7//7 105//105 14//14 23//23 66//66 16//16 15//15 84//84 6//6 177//177
f 118//118 117//117 160//160
f 119//119 165//165 108//108
f 119//119 189//189 136//136
f 120//120 109//109 115//115
f 120//120 115//115 114//114 155//155 107//107 122//122 186//186 180//180 181//181 110//110 179//179 111//111 156//156 112//112 189//189 119//119 121//121
f 121//121 154//154 119//119 120//120
f 122//122 107//107 127//127
f 122//122 127//127 186//186
f 123//123 113//113 107//107
f 124//124 161//161 163//163
f 125//125 135//135 139//139
f 125//125 139//139 153//153
f 126//126 127//127 107//107
f 126//126 130//130 148//148
f 126//126 152//152 130//130
f 127//127 126//126 151//151
f 127//127 151//151 186//186
f 128//128 143//143 152//152
f 129//129 128//128 192//192
f 129//129 141//141 144//144
f 129//129 144//144 128//128
f 129//129 192//192 195//195
f 130//130 146//146 149//149
f 131//131 134//134 164//164
f 131//131 170//170 135//135
f 131//131 173//173 170//170
f 132//132 135//135 170//170
f 132//132 139//139 135//135
f 132//132 174//174 140//140
f 133//133 136//136 189//189
f 133//133 164//164 136//136
f 133//133 172//172 164//164
f 133//133 191//191 172//172
f 134//134 108//108 165//165
f 134//134 131//131 135//135
f 135//135 125//125 134//134
f 136//136 165//165 119//119
f 137//137 138//138 195//195
f 137//137 139//139 138//138
f 137//137 195//195 139//139
f 138//138 140//140 141//141
f 139//139 195//195 192//192
f 140//140 138//138 139//139
f 140//140 139//139 132//132
f 140//140 174//174 42//42
f 141//141 142//142 144//144
f 141//141 195//195 138//138
f 142//142 141//141 140//140
f 143//143 128//128 144//144
f 143//143 130//130 152//152
f 143//143 144//144 130//130
f 144//144 145//145 130//130
f 145//145 142//142 146//146
f 145//145 144//144 142//142
f 146//146 130//130 145//145
f 148//148 149//149 2//2
f 148//148 151//151 126//126
f 149//149 148//148 130//130
f 149//149 150//150 28//28
f 150//150 146//146 47//47
f 150//150 149//149 146//146
f 151//151 147//147 186//186
f 151//151 148//148 147//147
f 152//152 153//153 128//128
f 153//153 109//109 125//125
f 153//153 152//152 109//109
f 153//153 192//192 128//128
f 154//154 121//121 119//119
f 156//156 111//111 159//159
f 156//156 159//159 112//112
f 157//157 158//158 110//110
f 158//158 157//157 163//163
f 158//158 159//159 111//111
f 159//159 158//158 160//160
f 159//159 160//160 112//112
f 160//160 117//117 190//190
f 160//160 158//158 162//162
f 160//160 162//162 118//118
f 161//161 118//118 162//162
f 162//162 163//163 161//161
f 163//163 162//162 158//158
f 163//163 193//193 124//124
f 164//164 175//175 131//131
f 165//165 136//136 164//164
f 165//165 164//164 134//134
f 166//166 169//169 1//1
f 166//166 173//173 169//169
f 167//167 42//42 174//174
f 167//167 171//171 24//24
f 167//167 174//174 171//171
f 168//168 34//34 169//169
f 168//168 172//172 191//191
f 169//169 175//175 168//168
f 170//170 176//176 132//132
f 171//171 166//166 76//76
f 171//171 176//176 166//166
f 172//172 168//168 175//175
f 173//173 131//131 175//175
f 173//173 166//166 176//176
f 174//174 132//132 176//176
f 175//175 164//164 172//172
f 175//175 169//169 173//173
f 176//176 170//170 173//173
f 176//176 171//171 174//174
f 177//177 178//178 6//6 190//190
f 177//177 190//190 117//117
f 178//178 177//177 6//6
f 179//179 110//110 158//158
f 180//180 186//186 183//183
f 181//181 180//180 183//183
f 181//181 183//183 157//157
f 182//182 147//147 148//148
f 182//182 148//148 185//185
f 182//182 187//187 147//147
f 183//183 187//187 184//184
f 184//184 88//88 194//194
f 184//184 188//188 88//88
f 184//184 194//194 183//183
f 185//185 188//188 182//182
f 186//186 147//147 187//187
f 187//187 182//182 188//188
f 187//187 183//183 186//186
f 188//188 184//184 187//187
f 188//188 185//185 95//95
f 189//189 112//112 191//191
f 189//189 191//191 133//133
f 190//190 98//98 191//191
f 190//190 112//112 160//160
f 190//190 191//191 112//112
f 192//192 153//153 139//139
f 193//193 157//157 183//183
f 193//193 163//163 157//157
f 193//193 183//183 116//116
f 194//194 116//116 183//183
f 195//195 141//141 129//129
