# These .obj files are copyright (c) 2002 Lucas Walter
# and are for distribution with the 'lwBVH' demo
# program only, and are not for commercial use.
#
# lucasw@u.washington.edu
# http://students.washington.edu
#
# Exported from Wings 3D 0.98
mtllib lefthand.mtl
o cube1_cut4
#196 vertices, 388 faces
v 0.113231 6.92420e-3 -1.24677e-2
v 6.87979e-2 6.92420e-3 -0.234882
v -4.01525e-2 9.12367e-3 -0.191910
v -9.89463e-2 6.95638e-3 -8.82646e-3
v -7.35042e-2 6.92420e-3 0.138037
v 6.87979e-2 6.92420e-3 0.144081
v 0.140931 -0.365135 5.29711e-2
v 8.54080e-2 -0.365135 -0.270949
v -6.36690e-2 -0.358743 -0.260928
v -5.49171e-2 -0.363679 3.10563e-3
v -2.32888e-2 -0.365135 0.117622
v 8.54080e-2 -0.365135 0.124957
v -2.35318e-3 6.92420e-3 -0.237904
v -9.04156e-2 6.92420e-3 -0.124686
v -9.40379e-4 -0.365135 -0.290617
v -7.02130e-2 -0.365135 -0.203216
v 0.140931 -0.162135 5.29711e-2
v 8.54080e-2 -0.162135 -0.270949
v -6.70511e-2 -0.160800 -0.248541
v -0.114849 -0.162665 3.14706e-3
v -8.72888e-2 -0.162135 0.233622
v 7.34080e-2 -0.162135 0.240957
v -9.40379e-4 -0.162135 -0.294617
v -0.106213 -0.162135 -0.137216
v 5.13131e-2 -0.493135 0.109411
v 9.89520e-2 -0.493135 5.24022e-2
v 5.13131e-2 -0.459135 -0.257190
v -2.77385e-3 -0.459135 -0.274064
v -3.68608e-2 -0.459135 -0.229483
v -4.30978e-2 -0.493135 -0.194446
v -3.88019e-2 -0.493135 -7.40906e-3
v -1.28608e-2 -0.493135 0.103117
v -2.35318e-3 6.92420e-3 0.163059
v 9.10146e-2 6.92420e-3 6.58067e-2
v 0.104373 7.17732e-3 -0.127855
v 3.74080e-2 -0.373135 0.148957
v -8.72888e-2 -0.373135 0.141622
v -8.72888e-2 -0.284135 0.259622
v 3.74080e-2 -0.284135 0.266957
v -8.59200e-3 -0.635135 0.168957
v -6.32888e-2 -0.635135 0.161622
v -6.32888e-2 -0.546135 0.259622
v -8.59200e-3 -0.546135 0.266957
v -1.19602e-2 -0.722178 0.211760
v -6.66569e-2 -0.722178 0.206933
v -6.66569e-2 -0.722178 0.259417
v -1.19602e-2 -0.722178 0.264244
v 0.113170 -0.162135 0.119964
v 6.28058e-2 -0.331634 0.220696
v 1.72668e-2 -0.592119 0.219272
v 4.42366e-3 -0.728178 0.247506
v 0.112859 -0.163420 0.183655
v -9.03808e-2 -0.258891 3.42478e-3
v -0.121178 -0.265598 0.177539
v -0.121289 -0.328635 0.210622
v -8.72888e-2 -0.584635 0.210622
v -9.06569e-2 -0.721178 0.239175
v 7.99062e-2 6.92420e-3 0.104944
v -6.94038e-3 -0.162135 0.257290
v -2.49404e-2 -0.284135 0.283290
v -6.49728e-2 -0.602156 0.255520
v -1.02761e-2 -0.602156 0.261601
v 1.08452e-2 -0.632149 0.233389
v -8.89728e-2 -0.637906 0.224899
v 1.44080e-2 -0.558135 0.180957
v -7.52888e-2 -0.558135 0.173622
v 4.00363e-2 -0.515877 0.233984
v -0.104289 -0.535635 0.224622
v -3.87304e-2 -0.743094 0.201335
v -3.93086e-2 -0.734178 0.261831
v -4.31166e-2 -0.744678 0.243341
v 0.109289 -0.365135 -0.192469
v 0.123170 -0.365135 -0.113989
v 0.137050 -0.365135 -3.55090e-2
v 0.137050 -0.162135 -3.55090e-2
v 0.123170 -0.162135 -0.113989
v 0.109289 -0.162135 -0.192469
v 7.32228e-2 -0.467635 -0.174292
v 8.51325e-2 -0.476135 -0.105394
v 9.70423e-2 -0.484635 -3.64957e-2
v 0.124991 -0.162135 1.37311e-2
v 0.102229 -0.365135 -0.153229
v 0.116110 -0.365135 -7.47490e-2
v 0.124991 -0.365135 1.37311e-2
v 0.116110 -0.162135 -7.47490e-2
v 0.102229 -0.162135 -0.153229
v 6.51777e-2 -0.471885 -0.139843
v 7.70874e-2 -0.480385 -7.09447e-2
v 8.39971e-2 -0.488885 9.95325e-3
v -5.31029e-2 -0.364407 6.03639e-2
v -3.75550e-2 -0.490023 4.57886e-2
v -6.25651e-2 -0.364407 -0.101055
v -4.09499e-2 -0.493135 -0.101928
v -5.87411e-2 -0.364043 -6.59747e-2
v -5.38759e-2 -0.493135 -7.16683e-2
v -6.63891e-2 -0.364771 -0.168135
v -5.60238e-2 -0.493135 -0.164187
v 4.65513e-2 -0.539017 9.59570e-2
v 8.62822e-2 -0.539017 5.48622e-2
v -1.86046e-2 -0.539017 1.47648e-2
v 3.03039e-3 -0.539017 9.10440e-2
v 6.07727e-2 -0.825135 7.92174e-2
v 7.89044e-2 -0.824225 4.65021e-2
v 2.56408e-2 -0.825135 2.01379e-2
v 1.72517e-2 -0.825135 7.39686e-2
v 6.01154e-2 -0.911135 6.48712e-2
v 6.85686e-2 -0.927135 4.67667e-2
v 3.70133e-2 -0.911135 2.59886e-2
v 2.61816e-2 -0.911135 6.14726e-2
v 7.38099e-2 -0.535472 2.09508e-2
v 7.63552e-2 -0.825135 2.46101e-2
v 6.60648e-2 -0.911135 2.71743e-2
v -1.55391e-2 -0.537311 4.24099e-2
v 2.03116e-2 -0.819565 4.11278e-2
v 2.13261e-2 -0.901135 4.34106e-2
v -1.89163e-2 -0.538429 -1.62161e-2
v 2.86437e-2 -0.845135 -1.33451e-2
v 3.86256e-2 -0.931135 -2.02976e-2
v 8.43777e-2 -0.531340 -3.84744e-2
v 8.71680e-2 -0.843950 -3.54498e-2
v 7.04210e-2 -0.947135 -3.87044e-2
v 6.77354e-2 -0.527796 -6.72048e-2
v 7.34981e-2 -0.534885 -9.74394e-3
v 6.82085e-2 -0.845135 -6.49447e-2
v 7.29762e-2 -0.845135 -2.04675e-3
v 6.48458e-2 -0.931135 -5.82968e-2
v 6.76771e-2 -0.931135 -1.91119e-2
v 4.17857e-2 -0.931135 -6.16176e-2
v -2.07077e-2 -0.538429 -8.30445e-2
v 2.39549e-2 -0.845135 -7.29915e-2
v -3.14880e-2 -0.538429 -5.78083e-2
v 1.44792e-2 -0.843180 -4.30046e-2
v 2.80233e-2 -0.921135 -4.52776e-2
v -7.69030e-3 -0.537724 -0.165476
v 1.00451e-2 -0.817135 -0.155403
v 2.71631e-2 -0.903135 -0.144211
v 7.34166e-2 -0.523546 -0.108226
v 7.52870e-2 -0.816317 -0.115846
v 6.39061e-2 -0.919135 -0.121963
v 4.67742e-2 -0.520001 -0.141969
v 6.67069e-2 -0.527090 -7.94957e-2
v 5.40991e-2 -0.817135 -0.151843
v 7.07396e-2 -0.816152 -8.86090e-2
v 5.64718e-2 -0.903135 -0.137555
v 6.29031e-2 -0.903135 -0.102371
v 3.98430e-2 -0.903135 -9.96913e-2
v -2.17362e-2 -0.537724 -0.105335
v 1.77507e-2 -0.815421 -9.47725e-2
v 2.28087e-2 -0.893135 -0.123951
v -3.43078e-2 -0.537724 -0.132240
v 6.32293e-3 -0.815134 -0.133677
v 4.57549e-2 -0.506663 -0.243329
v 1.06464e-2 -0.506663 -0.257403
v -1.77821e-2 -0.506663 -0.231898
v -2.29837e-2 -0.535019 -0.197657
v 4.68062e-2 -0.785135 -0.237606
v 1.16978e-2 -0.785135 -0.251679
v 6.92876e-3 -0.783721 -0.230007
v 9.75960e-3 -0.785135 -0.182938
v 4.61229e-2 -0.871135 -0.235795
v 2.61159e-2 -0.871135 -0.244908
v 1.57491e-2 -0.861135 -0.226794
v 2.35810e-2 -0.871135 -0.191674
v 6.40276e-2 -0.513752 -0.200880
v 6.50790e-2 -0.785135 -0.202825
v 5.61157e-2 -0.887135 -0.198611
v 5.73180e-2 -0.517297 -0.170150
v 5.83693e-2 -0.785135 -0.174095
v 4.28898e-2 -0.871135 -0.179018
v -0.114530 -0.264346 9.03760e-2
v 4.31485e-2 -0.917135 7.71719e-2
v 5.15391e-2 -0.917135 1.85815e-2
v 5.31513e-2 -0.937135 -1.24866e-2
v 5.33157e-2 -0.937135 -6.73342e-2
v 5.13730e-2 -0.909135 -9.80309e-2
v 4.18175e-2 -0.909135 -0.141883
v 3.61194e-2 -0.877135 -0.242352
v 3.32354e-2 -0.877135 -0.185346
v 1.10399e-2 -0.482510 -0.167144
v 1.16233e-2 -0.528862 -0.153722
v 2.99908e-2 -0.817135 -0.161623
v 3.10596e-2 -0.365135 0.135290
v 1.92262e-2 -0.493135 0.120264
v 1.97909e-2 -0.539017 0.107501
v 3.40122e-2 -0.825135 9.05930e-2
v 4.72050e-2 -0.923168 4.82267e-2
v 5.28704e-2 -0.943195 -3.94479e-2
v 4.61402e-2 -0.915169 -0.119787
v 3.48168e-2 -0.883141 -0.213930
v 4.43433e-2 -0.817135 -8.40108e-2
v 5.09980e-2 -0.825135 1.23740e-2
v -2.42313e-2 -0.378912 0.134796
v -3.46957e-2 -0.636899 0.153486
v -2.94238e-2 -0.558291 0.165334
v 4.50196e-2 -0.845135 -7.21361e-2
v 5.18721e-2 -0.845135 -4.36905e-3
vn 0.791416 0.607290 -6.97120e-2
vn 0.499839 0.645815 -0.577134
vn -0.517680 0.789159 -0.330508
vn -0.669494 0.742774 8.08815e-3
vn -0.499952 0.830237 0.246483
vn 0.584676 0.641659 0.496415
vn 0.970950 -0.143881 0.191191
vn 0.666809 -0.169388 -0.725722
vn -0.759453 -0.148433 -0.633402
vn -0.977943 -0.205127 3.93663e-2
vn -0.755801 -0.647376 9.83353e-2
vn 0.616330 -0.369463 0.695439
vn -0.373392 0.575508 -0.727577
vn -0.479644 0.861042 -0.168963
vn 2.33463e-2 -0.101522 -0.994559
vn -0.977554 -0.168626 -0.126308
vn 0.995783 8.95720e-2 -1.98504e-2
vn 0.691248 6.92638e-2 -0.719291
vn -0.834746 0.142965 -0.531751
vn -0.999967 -8.00016e-3 1.68143e-3
vn -0.736501 0.306303 0.603112
vn 0.481754 0.289275 0.827184
vn -0.178713 0.146875 -0.972877
vn -0.987454 -4.33899e-2 -0.151830
vn 0.500950 -0.232703 0.833605
vn 0.952264 -0.296931 7.08845e-2
vn 0.670887 -0.269955 -0.690678
vn -0.374464 -0.309559 -0.874042
vn -0.851650 -0.300327 -0.429531
vn -0.863892 -0.398722 -0.307751
vn -0.926068 -0.348582 0.144531
vn -0.762215 -0.279309 0.583965
vn -2.66004e-2 0.758796 0.650785
vn 0.588001 0.785787 0.191817
vn 0.818033 0.569310 -8.19029e-2
vn 0.756037 -0.536427 -0.375039
vn -0.655103 -0.228591 -0.720130
vn -0.706066 8.46524e-2 0.703068
vn 0.562136 -1.93914e-2 0.826817
vn 0.761254 -0.167698 -0.626394
vn -0.661597 -8.98797e-2 -0.744454
vn -0.501863 -0.101382 0.858985
vn 0.454224 -0.120663 0.882679
vn 0.719356 -0.513301 -0.468027
vn -0.646131 -0.508032 -0.569577
vn -0.471572 -0.260444 0.842490
vn 0.316111 -0.270940 0.909211
vn 0.943787 -1.77654e-2 0.330075
vn 0.935307 -0.193857 0.296008
vn 0.964340 -0.196840 0.176922
vn 0.765338 -0.621399 0.167691
vn 0.937628 5.23374e-2 0.343679
vn -0.948663 -0.309371 -6.57867e-2
vn -0.992794 -4.36325e-3 -0.119752
vn -0.968606 -3.11336e-2 0.246645
vn -0.990119 -0.116153 7.85686e-2
vn -0.811887 -0.569722 0.127500
vn 0.604834 0.788117 0.114226
vn 2.06791e-2 0.313605 0.949328
vn -0.105661 7.90606e-2 0.991254
vn -0.536480 3.19497e-2 0.843308
vn 0.414551 -2.89066e-2 0.909567
vn 0.982827 -8.11356e-2 0.165737
vn -0.995024 2.60804e-3 9.95990e-2
vn 0.697485 -0.178472 -0.694019
vn -0.602892 -0.118096 -0.789034
vn 0.965657 -0.207957 0.155755
vn -0.978227 -0.204357 3.61928e-2
vn 4.71299e-2 -0.814279 -0.578557
vn -5.35768e-2 -0.642184 0.764676
vn -4.57793e-2 -0.980475 0.191242
vn 0.974703 -0.177868 -0.135340
vn 0.965623 -0.134293 -0.222571
vn 0.971398 -0.127360 -0.200412
vn 0.996962 6.18721e-2 -4.73241e-2
vn 0.995474 3.85041e-2 -8.68864e-2
vn 0.997061 4.50488e-2 -6.19714e-2
vn 0.962143 -0.270888 2.99958e-2
vn 0.939278 -0.301995 -0.162961
vn 0.950231 -0.303149 -7.18423e-2
vn 0.996899 2.89271e-2 -7.31792e-2
vn 0.974927 -0.193628 -0.109657
vn 0.976955 -0.182146 -0.111274
vn 0.984819 -0.159014 -6.96140e-2
vn 0.978362 6.18211e-2 -0.197450
vn 0.974701 4.29126e-3 -0.223472
vn 0.879308 -0.396899 -0.263228
vn 0.894801 -0.324142 -0.307024
vn 0.832540 -0.551639 -5.07181e-2
vn -0.935603 -0.305464 0.177027
vn -0.946457 -0.278898 0.162588
vn -0.984303 -0.175433 1.92324e-2
vn -0.893424 -0.395921 0.212228
vn -0.977452 -0.179295 0.111539
vn -0.953465 -0.286932 -9.26007e-2
vn -0.987419 -0.157636 -1.24575e-2
vn -0.926105 -0.358699 -0.116892
vn 0.529435 -0.131191 0.838145
vn 0.954550 -0.125166 0.270495
vn -0.727878 -0.359450 -0.583943
vn -0.860572 -0.195131 0.470468
vn 0.679358 -6.65383e-2 0.730784
vn 0.980584 -7.95433e-2 0.179245
vn -0.629722 -7.34891e-2 -0.773336
vn -0.947621 -9.52249e-2 0.304871
vn 0.606398 -0.390329 0.692766
vn 0.665225 -0.735356 0.129334
vn -0.612784 -0.446089 -0.652304
vn -0.797382 -0.498649 0.339899
vn 0.522193 -0.129724 -0.842903
vn 0.846768 -5.05273e-2 -0.529558
vn 0.677833 -0.431019 -0.595622
vn -0.919533 -0.299451 0.254536
vn -0.996258 -8.11769e-2 -2.96641e-2
vn -0.916143 -0.339754 -0.212721
vn -0.587917 -0.262867 0.765019
vn -0.653525 -9.58741e-2 0.750808
vn -0.693887 -0.464336 0.550375
vn 0.959198 -0.120996 -0.255535
vn 0.997037 -7.64352e-2 -8.66308e-3
vn 0.604011 -0.796504 2.74352e-2
vn 0.514173 -7.07816e-2 -0.854761
vn 0.511532 -0.143368 0.847219
vn 0.668593 -3.53365e-2 -0.742788
vn 0.505606 -8.95849e-2 0.858101
vn 0.618116 -0.379217 -0.688569
vn 0.633526 -0.274578 0.723362
vn -0.584967 -0.491051 -0.645509
vn -0.449338 -0.275917 -0.849685
vn -0.635805 -0.167802 -0.753388
vn -0.940664 -0.339277 6.53210e-3
vn -0.986933 -0.158693 2.79299e-2
vn -0.911328 -0.410416 -3.22384e-2
vn -0.312176 -0.340317 -0.886978
vn -0.823459 -0.171519 -0.540830
vn -0.598914 -0.591468 -0.539878
vn 0.956869 -0.136110 -0.256661
vn 0.991367 -5.05010e-2 -0.121004
vn 0.621173 -0.782695 -3.91391e-2
vn 0.555988 -0.119465 -0.822560
vn 0.337264 -9.77852e-2 0.936318
vn 0.627440 -9.72816e-3 -0.778604
vn 0.708711 -9.29741e-2 0.699346
vn 0.524539 -0.397520 -0.752885
vn 0.719238 -0.268448 0.640806
vn -0.590676 -0.466477 0.658408
vn -0.719127 -0.186210 0.669464
vn -0.694746 -0.122452 0.708755
vn -0.904808 -0.394118 0.161223
vn -0.932510 -0.360801 -1.57445e-2
vn -0.988995 -0.147714 8.37235e-3
vn 0.627201 -0.122122 -0.769223
vn -0.265013 -0.223584 -0.937965
vn -0.804025 -0.260895 -0.534301
vn -0.760262 -0.232164 0.606713
vn 0.684904 -1.16710e-2 -0.728540
vn -0.428991 -8.83894e-2 -0.898974
vn -0.970934 -9.01545e-2 -0.221720
vn -0.776744 -0.115011 0.619226
vn 0.695363 -0.319980 -0.643493
vn -0.241351 -0.384797 -0.890888
vn -0.937453 -0.338233 -8.23492e-2
vn -0.788093 -0.419019 0.450924
vn 0.974739 -9.63404e-2 -0.201498
vn 0.998642 -5.19821e-2 3.53301e-3
vn 0.501817 -0.838215 0.213483
vn 0.621306 -0.303214 0.722523
vn 0.348240 -5.26932e-2 0.935923
vn 0.126538 -0.275312 0.952991
vn -0.960709 -0.275594 -3.29468e-2
vn -2.17120e-2 -0.726402 0.686927
vn 5.65831e-3 -0.664307 -0.747438
vn -5.88603e-2 -0.684120 0.726991
vn 6.14691e-2 -0.646729 -0.760239
vn 1.72544e-2 -0.656036 0.754532
vn 0.154682 -0.653012 -0.741383
vn 0.266644 -0.721663 -0.638830
vn -0.412539 -0.738328 0.533558
vn 0.412792 -0.837668 -0.357651
vn 0.432447 -6.72941e-2 -0.899145
vn 0.161443 -9.46818e-2 -0.982330
vn 0.161691 -0.907431 0.387846
vn -0.130008 -0.183634 0.974360
vn -0.138779 -0.251940 0.957740
vn -0.157712 -0.120080 0.980157
vn -0.223645 -0.973269 -5.22482e-2
vn -0.343844 -0.933152 -0.104876
vn -0.360549 -0.932592 -1.66412e-2
vn -0.352739 -0.931639 -8.73185e-2
vn -4.03428e-2 -0.105546 0.993596
vn 6.15764e-2 -4.66843e-2 -0.997010
vn 8.32876e-2 -0.473696 -0.876741
vn 0.113589 -0.247952 -0.962090
vn 9.83810e-2 1.76955e-2 -0.994991
vn 0.148103 -4.72724e-2 -0.987841
vn -0.174846 -6.91726e-2 0.982163
g cube1_cut4_default
usemtl default
f 1//1 4//4 34//34
f 1//1 34//34 17//17
f 2//2 3//3 35//35
f 2//2 35//35 77//77
f 3//3 13//13 19//19
f 3//3 14//14 35//35
f 4//4 1//1 14//14
f 4//4 20//20 5//5
f 5//5 21//21 33//33
f 5//5 33//33 58//58
f 5//5 34//34 4//4
f 6//6 33//33 22//22
f 6//6 58//58 33//33
f 7//7 12//12 26//26
f 7//7 26//26 84//84
f 7//7 84//84 17//17
f 8//8 15//15 18//18
f 8//8 18//18 72//72
f 8//8 27//27 15//15
f 8//8 72//72 27//27
f 9//9 16//16 19//19
f 9//9 29//29 16//16
f 10//10 53//53 94//94
f 10//10 90//90 53//53
f 10//10 94//94 31//31
f 11//11 37//37 54//54
f 11//11 90//90 32//32
f 11//11 182//182 192//192
f 12//12 7//7 48//48
f 12//12 36//36 182//182
f 12//12 182//182 25//25
f 13//13 2//2 23//23
f 13//13 3//3 2//2
f 14//14 3//3 24//24
f 14//14 24//24 4//4
f 15//15 9//9 23//23
f 15//15 28//28 9//9
f 16//16 30//30 96//96
f 16//16 96//96 24//24
f 17//17 48//48 7//7
f 17//17 81//81 1//1
f 18//18 2//2 77//77
f 18//18 23//23 2//2
f 19//19 23//23 9//9
f 19//19 24//24 3//3
f 20//20 4//4 24//24
f 20//20 24//24 53//53
f 21//21 5//5 20//20
f 21//21 20//20 170//170
f 21//21 54//54 38//38
f 22//22 39//39 52//52
f 22//22 52//52 6//6
f 22//22 59//59 39//39
f 23//23 18//18 15//15
f 23//23 19//19 13//13
f 24//24 19//19 16//16
f 25//25 26//26 12//12
f 26//26 25//25 99//99
f 28//28 15//15 27//27
f 28//28 27//27 153//153
f 29//29 9//9 28//28
f 29//29 28//28 154//154
f 29//29 154//154 30//30
f 30//30 16//16 29//29
f 30//30 134//134 97//97
f 30//30 155//155 179//179
f 30//30 179//179 134//134
f 31//31 89//89 100//100
f 31//31 91//91 10//10
f 31//31 100//100 91//91
f 31//31 116//116 89//89
f 32//32 183//183 11//11
f 34//34 5//5 58//58
f 34//34 58//58 48//48
f 35//35 1//1 85//85
f 35//35 14//14 1//1
f 36//36 12//12 48//48
f 36//36 48//48 49//49
f 36//36 65//65 192//192
f 36//36 192//192 182//182
f 37//37 11//11 192//192
f 37//37 192//192 66//66
f 38//38 42//42 60//60
f 38//38 55//55 42//42
f 38//38 60//60 21//21
f 39//39 43//43 49//49
f 39//39 60//60 43//43
f 40//40 44//44 193//193
f 40//40 65//65 50//50
f 41//41 45//45 64//64
f 41//41 56//56 66//66
f 41//41 193//193 45//45
f 42//42 56//56 61//61
f 43//43 42//42 62//62
f 43//43 60//60 42//42
f 43//43 62//62 50//50
f 44//44 40//40 63//63
f 46//46 47//47 61//61
f 48//48 17//17 34//34
f 49//49 43//43 67//67
f 49//49 52//52 39//39
f 49//49 67//67 36//36
f 50//50 63//63 40//40
f 50//50 67//67 43//43
f 51//51 44//44 63//63
f 51//51 47//47 71//71
f 51//51 63//63 47//47
f 51//51 71//71 44//44
f 52//52 48//48 58//58
f 52//52 49//49 48//48
f 53//53 24//24 92//92
f 53//53 170//170 20//20
f 54//54 21//21 170//170
f 54//54 170//170 11//11
f 55//55 37//37 68//68
f 55//55 38//38 54//54
f 55//55 54//54 37//37
f 55//55 68//68 42//42
f 56//56 41//41 64//64
f 56//56 42//42 68//68
f 57//57 45//45 71//71
f 57//57 46//46 64//64
f 57//57 64//64 45//45
f 57//57 71//71 46//46
f 58//58 6//6 52//52
f 59//59 21//21 60//60
f 59//59 22//22 33//33
f 59//59 33//33 21//21
f 60//60 39//39 59//59
f 61//61 62//62 42//42
f 61//61 64//64 46//46
f 62//62 47//47 63//63
f 62//62 61//61 47//47
f 63//63 50//50 62//62
f 64//64 61//61 56//56
f 65//65 36//36 67//67
f 65//65 40//40 194//194
f 66//66 68//68 37//37
f 66//66 194//194 41//41
f 67//67 50//50 65//65
f 68//68 66//66 56//56
f 69//69 44//44 71//71
f 69//69 45//45 193//193
f 69//69 71//71 45//45
f 69//69 193//193 44//44
f 70//70 46//46 71//71
f 70//70 47//47 46//46
f 70//70 71//71 47//47
f 72//72 77//77 82//82
f 72//72 82//82 78//78
f 73//73 76//76 83//83
f 73//73 79//79 82//82
f 73//73 83//83 79//79
f 74//74 75//75 84//84
f 74//74 80//80 83//83
f 74//74 84//84 80//80
f 75//75 1//1 81//81
f 75//75 74//74 85//85
f 76//76 35//35 85//85
f 76//76 73//73 86//86
f 76//76 86//86 35//35
f 77//77 35//35 86//86
f 77//77 72//72 18//18
f 78//78 27//27 72//72
f 78//78 164//164 27//27
f 79//79 88//88 137//137
f 79//79 137//137 87//87
f 80//80 119//119 88//88
f 81//81 17//17 84//84
f 81//81 84//84 75//75
f 82//82 86//86 73//73
f 83//83 85//85 74//74
f 85//85 1//1 75//75
f 85//85 83//83 76//76
f 86//86 82//82 77//77
f 87//87 78//78 82//82
f 87//87 82//82 79//79
f 87//87 140//140 179//179
f 87//87 167//167 78//78
f 87//87 179//179 167//167
f 88//88 79//79 83//83
f 88//88 83//83 80//80
f 88//88 93//93 141//141
f 89//89 26//26 110//110
f 89//89 80//80 84//84
f 89//89 84//84 26//26
f 89//89 123//123 80//80
f 90//90 10//10 91//91
f 90//90 11//11 170//170
f 91//91 32//32 90//90
f 91//91 113//113 32//32
f 92//92 24//24 96//96
f 92//92 94//94 53//53
f 93//93 88//88 129//129
f 93//93 92//92 97//97
f 93//93 95//95 92//92
f 93//93 129//129 95//95
f 94//94 92//92 95//95
f 95//95 31//31 94//94
f 95//95 131//131 31//31
f 96//96 97//97 92//92
f 97//97 96//96 30//30
f 97//97 150//150 93//93
f 98//98 25//25 184//184
f 98//98 99//99 25//25
f 98//98 102//102 99//99
f 99//99 110//110 26//26
f 100//100 110//110 104//104
f 101//101 32//32 113//113
f 101//101 184//184 32//32
f 102//102 98//98 185//185
f 102//102 106//106 103//103
f 102//102 185//185 106//106
f 103//103 99//99 102//102
f 103//103 111//111 99//99
f 104//104 110//110 191//191
f 104//104 114//114 100//100
f 104//104 191//191 108//108
f 105//105 101//101 114//114
f 105//105 109//109 185//185
f 105//105 185//185 101//101
f 107//107 103//103 106//106
f 107//107 106//106 186//186
f 107//107 112//112 103//103
f 107//107 186//186 112//112
f 108//108 115//115 104//104
f 109//109 105//105 115//115
f 110//110 99//99 111//111
f 110//110 100//100 89//89
f 111//111 103//103 112//112
f 111//111 112//112 191//191
f 111//111 191//191 110//110
f 113//113 91//91 100//100
f 113//113 100//100 114//114
f 113//113 114//114 101//101
f 114//114 104//104 115//115
f 114//114 115//115 105//105
f 115//115 108//108 186//186
f 115//115 186//186 109//109
f 116//116 31//31 131//131
f 116//116 117//117 123//123
f 117//117 116//116 132//132
f 117//117 118//118 196//196
f 118//118 117//117 133//133
f 119//119 80//80 123//123
f 119//119 123//123 120//120
f 120//120 124//124 119//119
f 121//121 120//120 127//127
f 121//121 126//126 120//120
f 121//121 187//187 126//126
f 122//122 88//88 119//119
f 122//122 119//119 124//124
f 122//122 129//129 88//88
f 123//123 89//89 116//116
f 124//124 120//120 126//126
f 124//124 126//126 195//195
f 124//124 195//195 122//122
f 125//125 120//120 123//123
f 125//125 123//123 196//196
f 125//125 127//127 120//120
f 125//125 196//196 127//127
f 127//127 173//173 121//121
f 128//128 133//133 130//130
f 129//129 122//122 195//195
f 130//130 129//129 195//195
f 130//130 132//132 129//129
f 130//130 195//195 128//128
f 131//131 95//95 129//129
f 131//131 129//129 132//132
f 131//131 132//132 116//116
f 132//132 130//130 133//133
f 132//132 133//133 117//117
f 133//133 128//128 187//187
f 133//133 187//187 118//118
f 135//135 134//134 181//181
f 135//135 151//151 134//134
f 135//135 181//181 136//136
f 136//136 149//149 135//135
f 137//137 141//141 138//138
f 138//138 142//142 137//137
f 139//139 138//138 145//145
f 139//139 144//144 138//138
f 139//139 188//188 144//144
f 140//140 87//87 137//137
f 140//140 137//137 142//142
f 140//140 142//142 180//180
f 141//141 137//137 88//88
f 142//142 138//138 144//144
f 142//142 144//144 181//181
f 143//143 138//138 141//141
f 143//143 141//141 190//190
f 143//143 145//145 138//138
f 143//143 190//190 145//145
f 145//145 175//175 139//139
f 146//146 148//148 149//149
f 147//147 93//93 150//150
f 147//147 141//141 93//93
f 147//147 148//148 141//141
f 148//148 146//146 190//190
f 148//148 147//147 151//151
f 149//149 136//136 188//188
f 149//149 188//188 146//146
f 150//150 97//97 134//134
f 150//150 134//134 151//151
f 150//150 151//151 147//147
f 151//151 135//135 149//149
f 151//151 149//149 148//148
f 152//152 27//27 164//164
f 152//152 153//153 27//27
f 152//152 164//164 156//156
f 153//153 152//152 157//157
f 153//153 154//154 28//28
f 154//154 153//153 158//158
f 154//154 158//158 155//155
f 155//155 30//30 154//154
f 155//155 167//167 179//179
f 156//156 157//157 152//152
f 156//156 160//160 161//161
f 156//156 165//165 160//160
f 157//157 156//156 161//161
f 157//157 158//158 153//153
f 158//158 157//157 162//162
f 158//158 162//162 159//159
f 159//159 155//155 158//158
f 159//159 163//163 169//169
f 159//159 168//168 155//155
f 161//161 162//162 157//157
f 162//162 161//161 189//189
f 162//162 189//189 163//163
f 163//163 159//159 162//162
f 164//164 78//78 167//167
f 164//164 167//167 165//165
f 165//165 156//156 164//164
f 166//166 160//160 165//165
f 166//166 165//165 169//169
f 166//166 189//189 160//160
f 167//167 155//155 168//168
f 168//168 159//159 169//169
f 168//168 165//165 167//167
f 168//168 169//169 165//165
f 169//169 178//178 166//166
f 170//170 53//53 90//90
f 171//171 106//106 185//185
f 171//171 109//109 186//186
f 171//171 185//185 109//109
f 171//171 186//186 106//106
f 172//172 108//108 191//191
f 172//172 112//112 186//186
f 172//172 186//186 108//108
f 172//172 191//191 112//112
f 173//173 118//118 187//187
f 173//173 127//127 196//196
f 173//173 196//196 118//118
f 174//174 126//126 187//187
f 174//174 128//128 195//195
f 174//174 187//187 128//128
f 174//174 195//195 126//126
f 175//175 145//145 190//190
f 175//175 146//146 188//188
f 175//175 190//190 146//146
f 176//176 136//136 181//181
f 176//176 144//144 188//188
f 176//176 181//181 144//144
f 176//176 188//188 136//136
f 177//177 160//160 189//189
f 177//177 161//161 160//160
f 177//177 189//189 161//161
f 178//178 163//163 189//189
f 178//178 169//169 163//163
f 180//180 134//134 179//179
f 180//180 179//179 140//140
f 180//180 181//181 134//134
f 181//181 180//180 142//142
f 182//182 11//11 183//183
f 183//183 25//25 182//182
f 183//183 32//32 184//184
f 183//183 184//184 25//25
f 184//184 101//101 185//185
f 184//184 185//185 98//98
f 187//187 121//121 173//173
f 188//188 139//139 175//175
f 189//189 166//166 178//178
f 190//190 141//141 148//148
f 193//193 41//41 194//194
f 193//193 194//194 40//40
f 194//194 66//66 192//192
f 194//194 192//192 65//65
f 196//196 123//123 117//117
