# These .obj files are copyright (c) 2002 Lucas Walter
# and are for distribution with the 'lwBVH' demo
# program only, and are not for commercial use.
#
# lucasw@u.washington.edu
# http://students.washington.edu
#
# Exported from Wings 3D 0.98
mtllib leftfoot.mtl
o cube1_cut2
#113 vertices, 222 faces
v -0.199074 -3.46320e-2 1.34958e-2
v -0.123358 3.36800e-3 0.332943
v 8.52894e-2 1.86320e-2 0.287052
v 6.30057e-2 4.63200e-3 9.25641e-3
v 0.165902 4.63200e-3 0.102219
v -0.217746 -4.86320e-2 0.102219
v -0.227448 -0.466367 0.102219
v -0.126776 -0.392367 0.366943
v 0.173304 -0.435103 0.321052
v 0.178200 -0.451103 0.102219
v 8.33036e-2 -0.445103 -8.07436e-2
v -0.198580 -0.449960 -3.29506e-2
v 0.164584 -0.446830 1.05029
v -0.192856 -0.441953 1.09767
v -0.198296 -0.311822 1.09088
v 0.160286 -0.333095 1.05029
v -8.10343e-2 -2.70000e-2 -0.130624
v -6.67364e-2 -0.458735 -0.138624
v -5.70343e-2 3.50000e-2 0.363998
v 0.141596 4.63200e-3 0.211636
v 6.33327e-2 -0.468466 1.08838
v -4.73640e-3 -0.472735 0.343998
v -5.06244e-2 -0.508735 0.102219
v 0.162297 -0.258236 0.294052
v 0.183332 -0.261737 0.102468
v 0.189466 -0.369326 1.04452
v -0.145576 -0.218495 0.717563
v 0.110788 -0.223231 0.671672
v -0.252597 -0.297500 0.102219
v -0.242067 -0.231500 0.339943
v -0.224030 -0.338731 1.11397
v -0.122551 -3.08160e-2 -5.55640e-2
v -1.51788e-3 -1.11840e-2 -7.96837e-2
v 7.61547e-2 -0.223236 -0.104744
v -0.223925 -0.250500 -8.25042e-2
v -7.38853e-2 -0.242868 -0.188624
v 3.42935e-2 -0.233052 -0.159684
v -0.182064 -0.246684 -0.135564
v -3.22761e-2 -1.90920e-2 -0.123154
v -1.97959e-2 -0.237960 -0.174154
v 0.168944 -0.448967 0.722672
v -0.199136 -0.438231 0.768563
v 2.19039e-2 -0.478833 0.745618
v 0.171124 -0.432035 0.509862
v -0.125956 -0.393299 0.555753
v 8.58375e-3 -0.468167 0.532808
v -8.17537e-2 -0.328231 1.02524
v -4.43940e-2 -0.186863 0.710618
v -0.228483 -0.302621 0.732043
v -0.134467 -9.45637e-2 0.515253
v -0.191454 -0.268592 0.533380
v -0.182685 -0.288427 0.983873
v -0.215316 -0.431162 0.997373
v -0.258622 -0.337209 0.990659
v 6.69623e-2 -0.382372 1.12719
v -9.52848e-2 -0.364138 1.10089
v 6.12663e-2 -0.351911 1.08777
v 0.177343 -0.290145 0.546132
v 0.192389 -0.322054 0.798212
v 0.185187 -0.408569 1.04456
v 0.184800 -0.346669 0.307552
v 0.208625 -0.354669 0.102219
v 7.97292e-2 -0.337169 -0.112744
v -7.03109e-2 -0.350801 -0.170624
v 0.191233 -0.363090 0.527997
v 0.197666 -0.385510 0.748442
v 3.52240e-2 -0.469030 0.980428
v 0.166764 -0.427898 0.944482
v 4.18841e-2 -0.485746 1.03983
v -0.197406 -0.462628 1.03378
v 0.165674 -0.447364 0.997387
v -0.257172 -0.195066 0.102219
v -0.220351 -0.358433 -6.45042e-2
v -7.84758e-2 -0.442774 1.03671
v -0.240023 -0.359933 0.102219
v -0.187422 -0.308933 0.353443
v -0.219750 -0.405590 1.11693
v -0.225746 -0.369297 0.737813
v -0.195584 -0.326615 0.545628
v -0.248908 -0.394979 0.993998
v 7.03097e-2 -0.420756 1.12241
v -8.68803e-2 -0.418208 1.07580
v -0.135666 -0.457116 1.11119
v -0.147025 -0.316274 1.09606
v -0.128657 -0.351435 1.13743
v -0.133315 -0.411899 1.12636
v -5.91612e-2 -0.383255 1.12804
v -5.52437e-2 -0.350319 1.10950
v -4.51316e-2 -0.464785 1.09350
v -5.32853e-2 -0.419482 1.12911
v -7.70460e-2 -0.456096 0.974901
v -7.77609e-2 -0.474187 1.02281
v 1.52438e-2 -0.473883 0.639213
v 0.170034 -0.434501 0.616267
v -0.150546 -0.404765 0.662158
v -0.177112 -0.426367 0.234581
v -0.234722 -0.334433 0.227831
v 0.167854 -0.452432 0.869577
v -0.207226 -0.448696 0.918968
v 2.85640e-2 -0.478833 0.899023
v -8.86161e-2 -0.478833 0.757090
v -6.76512e-2 -0.451324 0.650685
v -8.93310e-2 -0.478833 0.908995
v -0.139036 -0.495551 0.102219
v -6.57564e-2 -0.440551 0.355470
v -5.86863e-2 -0.438733 0.544280
v 0.126451 -0.463671 0.332986
v 5.11444e-2 -0.463281 -0.114363
v 0.105921 -0.489682 0.101851
v 0.137421 -0.473683 0.733599
v 0.131941 -0.457880 0.521228
v 0.134767 -0.463944 0.627144
v 0.140429 -0.475367 0.884858
vn -0.685503 0.681163 -0.257106
vn -0.591775 0.805455 3.23117e-2
vn 0.431936 0.898778 7.50290e-2
vn 0.252789 0.930196 -0.266145
vn 0.801810 0.539960 -0.256014
vn -0.637555 0.770108 2.13934e-2
vn -0.768662 -0.629992 0.110766
vn -0.681686 -0.720139 0.129244
vn 0.777499 -0.627502 4.16630e-2
vn 0.832677 -0.542897 -0.109141
vn 0.766540 -0.453109 -0.455092
vn -0.624186 -0.709478 -0.327160
vn 0.559352 -0.720416 0.410033
vn -0.565071 -0.622180 0.541837
vn -0.305375 0.886906 0.346617
vn 0.365597 0.825234 0.430497
vn -0.266983 0.520693 -0.810924
vn -0.278652 -0.680963 -0.677231
vn -8.32435e-2 0.942235 0.324445
vn 0.755987 0.619875 0.210328
vn 0.180547 -0.810344 0.557445
vn -9.13920e-2 -0.991422 9.34332e-2
vn -0.100731 -0.994410 -3.16429e-2
vn 0.962098 0.235081 0.138219
vn 0.953937 0.157403 -0.255398
vn 0.833110 0.212201 0.510782
vn -0.619130 0.759128 0.201005
vn 0.571770 0.770364 0.282166
vn -0.992142 -0.119470 -3.71707e-2
vn -0.978847 2.95377e-2 0.202452
vn -0.617559 0.429554 0.658866
vn -0.460071 0.831277 -0.311950
vn 0.465211 0.746518 -0.475699
vn 0.813127 0.213997 -0.541322
vn -0.894189 0.134349 -0.427056
vn -0.100728 4.56151e-2 -0.993868
vn 0.593986 0.145133 -0.791275
vn -0.666799 7.24935e-2 -0.741704
vn 0.196028 0.715957 -0.670059
vn 0.254013 1.49327e-2 -0.967086
vn 0.754180 -0.654658 -5.13455e-2
vn -0.565502 -0.791142 -0.233027
vn -3.01542e-2 -0.997851 -5.81709e-2
vn 0.817511 -0.575907 -2.80536e-3
vn -0.600879 -0.790691 -0.117273
vn -0.176018 -0.984356 -7.85677e-3
vn 0.108934 0.928040 0.356195
vn -1.08817e-2 0.909359 0.415870
vn -0.912406 0.404330 -6.35037e-2
vn -0.684867 0.629986 0.366162
vn -0.984920 0.162469 5.94634e-2
vn -0.232093 0.953771 0.190928
vn -0.657641 -0.753083 1.93353e-2
vn -0.909678 0.408545 7.46822e-2
vn 0.266972 0.303436 0.914687
vn 0.271266 0.434071 0.859067
vn 5.93122e-2 0.882811 0.465970
vn 0.950582 0.309766 2.09533e-2
vn 0.929077 0.366548 4.95796e-2
vn 0.902081 -0.260779 0.343866
vn 0.999491 -1.83239e-2 2.61308e-2
vn 0.978757 1.06352e-2 -0.204749
vn 0.683491 -6.51967e-2 -0.727041
vn -5.22085e-2 -0.222597 -0.973512
vn 0.993766 -0.108115 -2.72084e-2
vn 0.974906 -0.222559 -5.15747e-3
vn 8.33443e-2 -0.993308 -7.99551e-2
vn 0.733289 -0.676969 6.32490e-2
vn 0.101334 -0.994228 3.52372e-2
vn -0.303516 -0.948430 9.14211e-2
vn 0.561848 -0.812731 -0.154256
vn -0.988046 0.130578 -8.19369e-2
vn -0.825161 -0.246785 -0.508141
vn -0.204926 -0.790793 0.576760
vn -0.970138 -0.241154 2.60074e-2
vn -0.871002 -0.444989 0.208186
vn -0.613381 -0.419960 0.668878
vn -0.911050 -0.359511 -0.201840
vn -0.891872 -0.426800 -0.149685
vn -0.918779 -0.386784 7.90143e-2
vn 0.289921 -0.377754 0.879345
vn -0.196004 -0.566078 0.800711
vn 0.256856 -0.759909 0.597129
vn 0.272455 0.848298 0.454046
vn 0.230519 0.289535 0.928994
vn 0.294786 -0.311523 0.903358
vn -0.432855 0.116348 0.893924
vn -0.114927 0.779814 0.615371
vn -0.410696 -0.735921 0.538283
vn -0.349668 -0.308982 0.884456
vn -0.135487 -0.989932 -4.09698e-2
vn -0.264402 -0.956686 0.121832
vn -0.129037 -0.989443 -6.59764e-2
vn 0.801574 -0.595920 -4.85723e-2
vn -0.568111 -0.755946 -0.325262
vn -0.696007 -0.617199 0.366934
vn -0.898527 -0.376603 0.225433
vn 0.794453 -0.604300 6.05548e-2
vn -0.576330 -0.814704 6.40400e-2
vn -2.74633e-3 -0.995489 9.48403e-2
vn -0.211521 -0.962270 -0.171160
vn -0.365504 -0.912445 -0.183986
vn -0.159351 -0.979678 0.121813
vn -0.277848 -0.954963 0.104146
vn -0.438641 -0.879247 0.185794
vn -0.476506 -0.878154 -4.22956e-2
vn 0.361419 -0.931389 4.34901e-2
vn 0.425542 -0.645703 -0.634020
vn 0.362946 -0.930616 -4.71695e-2
vn 0.349705 -0.935609 -4.83908e-2
vn 0.339626 -0.940464 -1.34573e-2
vn 0.360669 -0.929268 -7.98599e-2
vn 0.326226 -0.934929 0.139589
g cube1_cut2_default
usemtl default
f 1//1 4//4 32//32
f 1//1 32//32 35//35
f 2//2 3//3 6//6
f 2//2 6//6 30//30
f 2//2 30//30 50//50
f 2//2 50//50 19//19
f 3//3 19//19 28//28
f 3//3 24//24 20//20
f 3//3 28//28 58//58
f 4//4 25//25 34//34
f 4//4 33//33 32//32
f 4//4 34//34 33//33
f 5//5 4//4 20//20
f 5//5 20//20 25//25
f 5//5 25//25 4//4
f 6//6 1//1 72//72
f 6//6 3//3 4//4
f 6//6 4//4 1//1
f 7//7 12//12 104//104
f 7//7 75//75 12//12
f 7//7 96//96 75//75
f 7//7 104//104 96//96
f 8//8 76//76 96//96
f 8//8 96//96 105//105
f 9//9 10//10 61//61
f 9//9 44//44 107//107
f 9//9 61//61 44//44
f 10//10 9//9 109//109
f 10//10 11//11 62//62
f 10//10 109//109 11//11
f 11//11 108//108 63//63
f 12//12 73//73 18//18
f 13//13 71//71 60//60
f 14//14 70//70 83//83
f 14//14 77//77 53//53
f 15//15 31//31 84//84
f 15//15 84//84 52//52
f 16//16 47//47 57//57
f 17//17 32//32 39//39
f 18//18 23//23 12//12
f 18//18 64//64 108//108
f 18//18 108//108 23//23
f 19//19 3//3 2//2
f 19//19 50//50 48//48
f 20//20 4//4 3//3
f 21//21 13//13 81//81
f 21//21 69//69 13//13
f 21//21 81//81 89//89
f 21//21 89//89 69//69
f 22//22 46//46 105//105
f 22//22 105//105 23//23
f 23//23 109//109 22//22
f 24//24 3//3 58//58
f 24//24 58//58 61//61
f 25//25 20//20 24//24
f 25//25 24//24 62//62
f 26//26 16//16 55//55
f 26//26 55//55 60//60
f 26//26 59//59 16//16
f 26//26 60//60 59//59
f 27//27 48//48 50//50
f 27//27 49//49 52//52
f 27//27 52//52 48//48
f 28//28 16//16 59//59
f 28//28 48//48 16//16
f 29//29 30//30 72//72
f 30//30 29//29 97//97
f 30//30 76//76 51//51
f 31//31 15//15 54//54
f 31//31 77//77 85//85
f 32//32 17//17 38//38
f 33//33 37//37 39//39
f 33//33 39//39 32//32
f 34//34 25//25 63//63
f 34//34 63//63 37//37
f 35//35 38//38 73//73
f 35//35 72//72 1//1
f 35//35 73//73 29//29
f 36//36 17//17 40//40
f 36//36 38//38 17//17
f 36//36 40//40 64//64
f 36//36 64//64 38//38
f 37//37 33//33 34//34
f 37//37 63//63 40//40
f 38//38 35//35 32//32
f 39//39 40//40 17//17
f 40//40 39//39 37//37
f 41//41 66//66 98//98
f 41//41 94//94 66//66
f 41//41 98//98 110//110
f 42//42 78//78 95//95
f 42//42 95//95 101//101
f 42//42 99//99 78//78
f 43//43 93//93 110//110
f 43//43 100//100 101//101
f 44//44 65//65 94//94
f 44//44 94//94 111//111
f 45//45 8//8 106//106
f 45//45 79//79 8//8
f 45//45 95//95 79//79
f 46//46 22//22 111//111
f 46//46 93//93 106//106
f 47//47 16//16 48//48
f 47//47 52//52 84//84
f 47//47 56//56 88//88
f 47//47 84//84 56//56
f 48//48 28//28 19//19
f 48//48 52//52 47//47
f 49//49 27//27 51//51
f 49//49 78//78 54//54
f 50//50 51//51 27//27
f 51//51 50//50 30//30
f 51//51 79//79 49//49
f 52//52 54//54 15//15
f 53//53 80//80 99//99
f 53//53 91//91 70//70
f 53//53 99//99 91//91
f 54//54 52//52 49//49
f 54//54 80//80 31//31
f 56//56 82//82 87//87
f 57//57 55//55 16//16
f 57//57 88//88 55//55
f 59//59 58//58 28//28
f 59//59 66//66 58//58
f 60//60 81//81 13//13
f 61//61 62//62 24//24
f 62//62 61//61 10//10
f 62//62 63//63 25//25
f 63//63 62//62 11//11
f 64//64 18//18 73//73
f 64//64 40//40 63//63
f 64//64 63//63 108//108
f 65//65 44//44 61//61
f 65//65 58//58 66//66
f 65//65 61//61 58//58
f 65//65 66//66 94//94
f 66//66 59//59 60//60
f 66//66 60//60 68//68
f 67//67 91//91 100//100
f 68//68 60//60 71//71
f 68//68 67//67 113//113
f 68//68 71//71 67//67
f 68//68 98//98 66//66
f 69//69 67//67 71//71
f 69//69 89//89 92//92
f 69//69 92//92 67//67
f 70//70 14//14 53//53
f 71//71 13//13 69//69
f 72//72 30//30 6//6
f 72//72 35//35 29//29
f 73//73 12//12 75//75
f 73//73 38//38 64//64
f 74//74 82//82 83//83
f 74//74 89//89 82//82
f 74//74 92//92 89//89
f 75//75 29//29 73//73
f 75//75 97//97 29//29
f 76//76 8//8 79//79
f 76//76 30//30 97//97
f 77//77 14//14 86//86
f 77//77 31//31 80//80
f 78//78 49//49 79//79
f 78//78 99//99 80//80
f 79//79 51//51 76//76
f 79//79 95//95 78//78
f 80//80 53//53 77//77
f 80//80 54//54 78//78
f 81//81 55//55 90//90
f 81//81 60//60 55//55
f 82//82 56//56 86//86
f 83//83 70//70 74//74
f 83//83 86//86 14//14
f 85//85 56//56 84//84
f 85//85 84//84 31//31
f 85//85 86//86 56//56
f 86//86 83//83 82//82
f 86//86 85//85 77//77
f 87//87 55//55 88//88
f 87//87 88//88 56//56
f 87//87 90//90 55//55
f 88//88 57//57 47//47
f 90//90 82//82 89//89
f 90//90 87//87 82//82
f 90//90 89//89 81//81
f 91//91 67//67 92//92
f 92//92 70//70 91//91
f 92//92 74//74 70//70
f 93//93 43//43 102//102
f 93//93 46//46 112//112
f 94//94 41//41 112//112
f 95//95 45//45 102//102
f 97//97 75//75 96//96
f 97//97 96//96 76//76
f 98//98 68//68 113//113
f 99//99 42//42 103//103
f 100//100 43//43 113//113
f 100//100 113//113 67//67
f 101//101 102//102 43//43
f 101//101 103//103 42//42
f 102//102 101//101 95//95
f 102//102 106//106 93//93
f 103//103 91//91 99//99
f 103//103 100//100 91//91
f 103//103 101//101 100//100
f 104//104 12//12 23//23
f 104//104 23//23 105//105
f 105//105 96//96 104//104
f 105//105 106//106 8//8
f 106//106 102//102 45//45
f 106//106 105//105 46//46
f 107//107 22//22 109//109
f 107//107 109//109 9//9
f 107//107 111//111 22//22
f 108//108 11//11 109//109
f 109//109 23//23 108//108
f 110//110 112//112 41//41
f 110//110 113//113 43//43
f 111//111 107//107 44//44
f 111//111 112//112 46//46
f 112//112 110//110 93//93
f 112//112 111//111 94//94
f 113//113 110//110 98//98
