# These .obj files are copyright (c) 2002 Lucas Walter
# and are for distribution with the 'lwBVH' demo
# program only, and are not for commercial use.
#
# lucasw@u.washington.edu
# http://students.washington.edu
#
# Exported from Wings 3D 0.98
mtllib neck.mtl
o cube1_cut18
#43 vertices, 82 faces
v 0.00000e+0 -6.20000e-2 0.314000
v 0.00000e+0 0.128000 -0.358000
v -0.260107 0.198515 -0.295791
v -0.110000 -4.80000e-2 0.201419
v -0.206227 0.445996 -0.212477
v 0.00000e+0 0.444000 -0.260000
v -0.314000 1.60000e-2 -8.52255e-2
v -0.290000 0.336000 0.100774
v -0.298000 0.172000 -0.172548
v -0.306000 8.80000e-2 -0.111887
v -0.252000 0.372000 -0.116548
v -7.10004e-2 -6.90000e-2 0.257709
v -2.85004e-2 -6.55000e-2 0.267855
v 0.00000e+0 0.255000 0.304000
v -0.221761 0.342761 0.153856
v -0.135295 0.146043 -0.382321
v -0.103713 0.443361 -0.258433
v -0.271000 0.354000 1.11135e-2
v -0.136131 0.102631 0.231855
v -0.199500 9.75000e-2 0.191242
v -0.229500 0.128000 0.118266
v 0.00000e+0 0.114500 0.319000
v -3.28805e-2 0.282881 0.228928
v -6.80653e-2 0.108565 0.275428
v 0.260107 0.198515 -0.295791
v 0.110000 -4.80000e-2 0.201419
v 0.206227 0.445996 -0.212477
v 0.314000 1.60000e-2 -8.52255e-2
v 0.290000 0.336000 0.100774
v 0.298000 0.172000 -0.172548
v 0.306000 8.80000e-2 -0.111887
v 0.252000 0.372000 -0.116548
v 7.10004e-2 -6.90000e-2 0.257709
v 2.85004e-2 -6.55000e-2 0.267855
v 0.221761 0.342761 0.153856
v 0.135295 0.146043 -0.382321
v 0.103713 0.443361 -0.258433
v 0.271000 0.354000 1.11135e-2
v 0.136131 0.102631 0.231855
v 0.199500 9.75000e-2 0.191242
v 0.229500 0.128000 0.118266
v 3.28805e-2 0.282881 0.228928
v 6.80653e-2 0.108565 0.275428
vn 7.00266e-17 -0.462160 0.886797
vn 7.37873e-18 -0.590326 -0.807165
vn -0.784644 0.134926 -0.605085
vn -0.252278 -0.951639 -0.175326
vn -0.581296 0.776819 -0.242171
vn -5.31422e-17 0.999868 -1.62561e-2
vn -0.913663 -0.370085 0.168099
vn -0.927735 0.170773 0.331881
vn -0.892470 -0.343951 -0.291882
vn -0.849187 -0.429235 -0.307632
vn -0.486474 0.850025 0.201990
vn -0.532459 -0.520587 0.667440
vn -0.365215 -0.818705 0.443103
vn 0.00000e+0 0.498201 0.867062
vn -0.364504 0.600169 0.711993
vn -0.361328 -0.411628 -0.836663
vn -6.98279e-2 0.773268 -0.630223
vn -0.770587 0.634817 5.65939e-2
vn -0.456059 7.03780e-2 0.887163
vn -0.777161 -0.210786 0.592950
vn -0.952626 -0.207391 0.222471
vn 3.30523e-17 3.88808e-2 0.999244
vn -0.198384 0.844088 0.498156
vn -0.660110 5.40663e-2 0.749221
vn 0.784644 0.134926 -0.605085
vn 0.295089 -0.941979 -0.159995
vn 0.581296 0.776819 -0.242171
vn 0.913663 -0.370085 0.168099
vn 0.927735 0.170773 0.331881
vn 0.892470 -0.343951 -0.291882
vn 0.849187 -0.429235 -0.307632
vn 0.486474 0.850025 0.201990
vn 0.532459 -0.520587 0.667440
vn 0.306399 -0.897865 0.316161
vn 0.364504 0.600169 0.711993
vn 0.361328 -0.411628 -0.836663
vn 6.98279e-2 0.773268 -0.630223
vn 0.770587 0.634817 5.65939e-2
vn 0.456059 7.03780e-2 0.887163
vn 0.777161 -0.210786 0.592950
vn 0.952626 -0.207391 0.222471
vn 0.198384 0.844088 0.498156
vn 0.660110 5.40663e-2 0.749221
g cube1_cut18_default
usemtl default
f 1//1 13//13 34//34
f 1//1 24//24 13//13
f 2//2 26//26 4//4
f 2//2 31//31 26//26
f 2//2 36//36 30//30
f 3//3 16//16 9//9
f 4//4 10//10 2//2
f 4//4 21//21 7//7
f 5//5 3//3 11//11
f 5//5 11//11 17//17
f 5//5 17//17 3//3
f 6//6 2//2 17//17
f 6//6 11//11 23//23
f 6//6 37//37 2//2
f 6//6 42//42 32//32
f 7//7 10//10 4//4
f 8//8 15//15 18//18
f 8//8 20//20 15//15
f 9//9 10//10 18//18
f 9//9 11//11 3//3
f 10//10 7//7 21//21
f 10//10 9//9 2//2
f 11//11 9//9 18//18
f 11//11 18//18 23//23
f 12//12 4//4 13//13
f 12//12 20//20 4//4
f 13//13 4//4 34//34
f 13//13 19//19 12//12
f 14//14 42//42 23//23
f 15//15 19//19 23//23
f 15//15 23//23 18//18
f 16//16 2//2 9//9
f 16//16 3//3 17//17
f 16//16 17//17 2//2
f 17//17 11//11 6//6
f 18//18 10//10 21//21
f 18//18 21//21 8//8
f 19//19 13//13 24//24
f 19//19 15//15 20//20
f 20//20 8//8 21//21
f 20//20 12//12 19//19
f 21//21 4//4 20//20
f 22//22 1//1 43//43
f 22//22 14//14 24//24
f 22//22 24//24 1//1
f 22//22 43//43 14//14
f 23//23 24//24 14//14
f 23//23 42//42 6//6
f 24//24 23//23 19//19
f 25//25 30//30 36//36
f 26//26 28//28 41//41
f 26//26 34//34 4//4
f 27//27 25//25 37//37
f 27//27 32//32 25//25
f 27//27 37//37 32//32
f 28//28 26//26 31//31
f 29//29 35//35 40//40
f 29//29 38//38 35//35
f 30//30 25//25 32//32
f 30//30 31//31 2//2
f 31//31 30//30 38//38
f 31//31 41//41 28//28
f 32//32 38//38 30//30
f 33//33 26//26 40//40
f 33//33 34//34 26//26
f 34//34 33//33 39//39
f 34//34 43//43 1//1
f 35//35 42//42 39//39
f 36//36 2//2 37//37
f 36//36 37//37 25//25
f 37//37 6//6 32//32
f 38//38 29//29 41//41
f 38//38 32//32 42//42
f 38//38 41//41 31//31
f 39//39 40//40 35//35
f 39//39 43//43 34//34
f 40//40 39//39 33//33
f 40//40 41//41 29//29
f 41//41 40//40 26//26
f 42//42 14//14 43//43
f 42//42 35//35 38//38
f 43//43 39//39 42//42
