# These .obj files are copyright (c) 2002 Lucas Walter
# and are for distribution with the 'lwBVH' demo
# program only, and are not for commercial use.
#
# lucasw@u.washington.edu
# http://students.washington.edu
#
# Exported from Wings 3D 0.98
mtllib rightforearm.mtl
o cube1_copy17
#88 vertices, 157 faces
v -0.156099 9.75889e-2 -0.196719
v 7.73457e-2 -2.34506e-2 -0.184929
v 0.149668 2.05350e-2 3.65795e-4
v 4.85520e-2 -0.140680 0.175911
v -6.73840e-2 -0.133890 0.196911
v -0.157723 -1.72035 -2.16860e-2
v -0.113290 -1.72035 -0.244100
v -4.33957e-3 -1.71815 -0.201128
v 5.44542e-2 -1.72032 -1.80448e-2
v 2.90121e-2 -1.72035 0.128819
v -0.113290 -1.72035 0.134863
v -1.97083e-2 8.49695e-3 -0.257174
v 0.173562 4.35889e-2 -0.132367
v -4.21389e-2 -1.72035 -0.247123
v 4.59235e-2 -1.72035 -0.133904
v -2.22216e-2 -0.152411 0.173621
v -0.185411 -2.34111e-2 0.116655
v -0.212187 4.08903e-2 -2.19583e-3
v 0.129562 -5.84111e-2 0.115111
v 0.166059 -0.207909 -8.64873e-3
v 0.163743 -0.140382 -0.154136
v 7.22907e-2 -0.438932 -0.219732
v 0.154886 -0.625028 -0.135613
v -3.34400e-2 -0.333008 -0.273158
v 9.91937e-2 -0.259152 -0.273815
v -1.61082e-2 -0.210398 -0.290214
v 0.190570 -0.821215 -5.19259e-2
v 0.214501 -0.346633 -0.174228
v 0.219657 -0.524520 -5.89024e-2
v -0.113440 -0.928291 0.125385
v -0.238223 -0.953382 -7.43069e-2
v -0.220352 -0.942991 6.94010e-2
v 9.57166e-2 -1.12491 6.06512e-2
v -4.29063e-2 -0.922298 0.171735
v -0.200625 0.227640 -4.76285e-2
v -0.194336 -1.97726e-3 7.70380e-2
v -0.203261 1.94565e-2 3.74211e-2
v -0.221130 0.142291 -2.65505e-2
v -0.170932 -0.124984 -0.124288
v -0.192558 -3.42371e-2 -0.162266
v -0.183086 0.170640 -0.123812
v 9.28353e-2 -9.90355e-2 -0.233829
v -1.87099e-2 -6.57243e-2 -0.277582
v -0.220601 0.192991 -3.87278e-2
v -0.179487 5.49710e-2 -0.187248
v -0.256236 -0.352598 -1.46779e-2
v -0.222883 -4.18238e-2 -5.66991e-2
v -0.230500 -0.255169 3.10717e-2
v -3.06701e-2 -0.459195 0.149848
v -0.229516 1.77742e-2 -1.70158e-2
v -0.195108 -0.157811 7.73299e-2
v -4.21389e-2 -1.72035 0.153841
v -0.212804 -0.220490 5.42008e-2
v -0.246310 -0.659929 5.08726e-2
v -0.186984 -0.581603 0.148055
v -0.143006 -0.513308 0.181792
v -0.135507 -1.72035 5.65884e-2
v -0.113547 -0.227523 -0.223553
v -0.107423 -0.662517 -0.277930
v -0.154710 -0.175338 -0.175822
v -0.207657 -0.552339 -0.164082
v -3.71596e-2 -1.33037 -0.203176
v -0.110357 -1.34143 -0.211015
v -0.111823 -1.61689 -0.209558
v -3.96493e-2 -1.61136 -0.207149
v -0.113365 -1.32432 0.130124
v -0.197973 -1.33687 -4.79964e-2
v -0.177929 -1.33167 6.29947e-2
v -0.148866 -1.72010 -0.137074
v -0.168070 -0.607349 -0.230231
v -0.166541 -1.33996 -0.136001
v -0.114663 -0.407947 -0.262829
v -0.198601 -0.325626 -0.185965
v -0.239543 -0.247825 -8.15580e-2
v -0.226691 -0.134496 -1.28137e-2
v 0.126132 -0.392184 9.73694e-2
v 2.57682e-3 -0.964382 0.185821
v 0.157864 -9.36868e-2 -4.14147e-3
v 9.24918e-2 -0.256311 0.142005
v -0.107491 -0.320661 0.155910
v -2.18300e-2 -0.533058 -0.289788
v -2.93384e-2 -0.251328 0.140993
v -8.06219e-2 -0.172715 0.151451
v 6.28325e-2 -0.190628 0.148218
v -0.126397 -7.86504e-2 0.156783
v 0.140014 -0.654730 0.122107
v 4.75343e-2 -0.504347 0.179913
v -0.124398 -1.72035 9.57256e-2
vn -0.851163 0.106349 -0.514016
vn 0.407926 0.396889 -0.822238
vn 0.849399 7.49426e-2 0.522404
vn -0.118947 -0.362355 0.924419
vn -0.679206 -0.476918 0.557878
vn -0.660327 -0.746223 8.43824e-2
vn -0.438393 -0.711522 -0.549133
vn 0.434129 -0.536287 -0.723829
vn 0.643573 -0.756062 0.119096
vn 0.377648 -0.869025 0.319653
vn -0.610283 -0.493053 0.620043
vn -0.406676 0.164916 -0.898564
vn 0.952876 3.17870e-2 -0.301690
vn 0.278622 -4.86576e-2 -0.959168
vn 0.593163 -0.752911 -0.285103
vn -0.244977 -0.450191 0.858670
vn -0.911942 -7.01405e-2 0.404279
vn -0.882699 0.152837 0.444391
vn 0.721502 -0.239129 0.649810
vn 0.953833 0.107349 0.280496
vn 0.903156 0.190360 -0.384801
vn 0.423097 -0.133387 -0.896213
vn 0.752491 -0.130971 -0.645448
vn -5.17239e-2 -2.09503e-2 -0.998442
vn 0.447408 -1.91964e-2 -0.894124
vn -0.259699 5.82215e-2 -0.963933
vn 0.992336 -0.123543 -2.36610e-3
vn 0.871189 -3.24532e-2 -0.489874
vn 0.996216 -2.19482e-2 8.40990e-2
vn -0.562011 -6.75202e-2 0.824369
vn -0.984586 -7.11622e-2 -0.159771
vn -0.797441 -5.63136e-2 0.600764
vn 0.806165 -8.95654e-2 0.584872
vn -0.338251 -2.63979e-2 0.940686
vn 0.00000e+0 0.00000e+0 1.00000
vn -0.950608 8.89927e-2 0.297364
vn -0.909029 0.244811 0.337244
vn -0.999323 2.70791e-2 2.49094e-2
vn -0.931729 -3.28289e-2 -0.361668
vn -0.874685 -7.92643e-2 -0.478167
vn -0.967891 0.140616 -0.208360
vn 0.554749 0.320649 -0.767749
vn 3.92948e-3 0.201506 -0.979479
vn -0.998996 -4.24503e-2 -1.43352e-2
vn -0.748672 0.121488 -0.651714
vn -0.999084 3.44793e-2 2.53336e-2
vn -0.949784 -0.117217 -0.290122
vn -0.914619 0.116668 0.387118
vn 8.44812e-3 7.78727e-2 0.996928
vn -0.971253 0.127965 0.200728
vn -0.821962 -3.65572e-2 0.568368
vn 1.95284e-2 -0.417847 0.908307
vn -0.807771 0.105744 0.579934
vn -0.944374 -4.33893e-2 0.325997
vn -0.736310 -4.37897e-2 0.675226
vn -0.397111 7.41147e-2 0.914773
vn -0.505614 -0.850749 0.143462
vn -0.528222 0.168253 -0.832270
vn -0.386192 -4.99304e-2 -0.921066
vn -0.786854 0.119676 -0.605425
vn -0.905609 1.15390e-3 -0.424112
vn 0.179851 -4.92616e-2 -0.982460
vn -0.305411 -3.29274e-2 -0.951651
vn -0.513736 0.144835 -0.845635
vn 0.233086 0.122561 -0.964702
vn -0.613226 -1.73332e-2 0.789717
vn -0.992584 -9.32941e-2 -7.79296e-2
vn -0.928815 -9.42126e-2 0.358367
vn -0.746967 -0.615912 -0.250386
vn -0.769718 -1.19298e-2 -0.638272
vn -0.848013 -6.14141e-2 -0.526406
vn -0.501559 9.14012e-2 -0.860281
vn -0.793103 0.101810 -0.600518
vn -0.941254 0.192066 -0.277763
vn -0.996558 7.68546e-2 3.10807e-2
vn 0.821122 6.23214e-2 0.567340
vn 0.308292 -5.70859e-2 0.949577
vn 0.960393 1.31887e-2 0.278338
vn 0.500148 8.16381e-2 0.862083
vn -0.228092 7.42971e-2 0.970801
vn 0.174227 4.40453e-3 -0.984696
vn 3.59244e-2 -0.107000 0.993610
vn -0.347494 -0.306744 0.886090
vn 0.475352 -0.223391 0.850962
vn -0.767608 -0.238218 0.595004
vn 0.788107 -3.80201e-2 0.614363
vn 0.195537 6.04153e-2 0.978834
vn -0.614843 -0.733765 0.289063
g cube1_copy17_default
usemtl default
f 1//1 12//12 45//45
f 1//1 45//45 41//41
f 3//3 19//19 78//78
f 3//3 78//78 13//13
f 4//4 16//16 84//84
f 4//4 84//84 19//19
f 5//5 83//83 16//16
f 5//5 85//85 83//83
f 6//6 9//9 57//57
f 6//6 67//67 69//69
f 6//6 69//69 15//15
f 7//7 8//8 69//69
f 7//7 64//64 14//14
f 7//7 69//69 64//64
f 8//8 15//15 69//69
f 8//8 62//62 22//22
f 9//9 10//10 57//57
f 9//9 15//15 27//27
f 10//10 9//9 33//33
f 10//10 33//33 52//52
f 11//11 52//52 66//66
f 11//11 66//66 88//88
f 11//11 88//88 52//52
f 12//12 2//2 43//43
f 13//13 21//21 2//2
f 13//13 78//78 21//21
f 14//14 8//8 7//7
f 14//14 65//65 8//8
f 15//15 8//8 23//23
f 15//15 9//9 6//6
f 17//17 36//36 51//51
f 17//17 51//51 85//85
f 18//18 38//38 50//50
f 18//18 50//50 37//37
f 19//19 84//84 78//78
f 20//20 21//21 78//78
f 20//20 76//76 29//29
f 21//21 20//20 28//28
f 22//22 23//23 8//8
f 22//22 24//24 25//25
f 23//23 22//22 28//28
f 23//23 27//27 15//15
f 24//24 22//22 81//81
f 24//24 58//58 26//26
f 25//25 26//26 42//42
f 25//25 28//28 22//22
f 26//26 25//25 24//24
f 26//26 40//40 43//43
f 27//27 23//23 29//29
f 27//27 29//29 86//86
f 27//27 33//33 9//9
f 28//28 25//25 21//21
f 28//28 29//29 23//23
f 29//29 28//28 20//20
f 30//30 32//32 66//66
f 30//30 66//66 34//34
f 32//32 30//30 54//54
f 32//32 31//31 68//68
f 32//32 54//54 31//31
f 33//33 77//77 52//52
f 33//33 86//86 77//77
f 34//34 49//49 56//56
f 34//34 52//52 77//77
f 35//35 44//44 41//41
f 37//37 50//50 36//36
f 38//38 18//18 37//37 36//36 17//17 85//85 5//5 16//16 4//4 19//19 3//3 13//13 2//2 12//12 1//1 41//41 44//44
f 38//38 40//40 50//50
f 39//39 40//40 60//60
f 39//39 47//47 40//40
f 39//39 60//60 74//74
f 40//40 26//26 60//60
f 40//40 38//38 45//45
f 42//42 2//2 21//21
f 42//42 21//21 25//25
f 42//42 43//43 2//2
f 43//43 42//42 26//26
f 43//43 45//45 12//12
f 44//44 35//35 41//41 45//45
f 44//44 45//45 38//38
f 45//45 43//43 40//40
f 46//46 48//48 74//74
f 46//46 61//61 54//54
f 47//47 39//39 75//75
f 47//47 50//50 40//40
f 47//47 75//75 50//50
f 48//48 46//46 55//55
f 48//48 53//53 75//75
f 49//49 34//34 87//87
f 49//49 79//79 82//82
f 49//49 82//82 80//80
f 50//50 51//51 36//36
f 50//50 75//75 51//51
f 51//51 53//53 80//80
f 52//52 34//34 66//66
f 52//52 88//88 10//10
f 53//53 48//48 56//56
f 53//53 51//51 75//75
f 54//54 55//55 46//46
f 55//55 30//30 34//34
f 55//55 54//54 30//30
f 55//55 56//56 48//48
f 56//56 55//55 34//34
f 56//56 80//80 53//53
f 57//57 10//10 88//88
f 57//57 68//68 6//6
f 57//57 88//88 68//68
f 58//58 24//24 72//72
f 58//58 60//60 26//26
f 59//59 70//70 72//72
f 60//60 58//58 73//73
f 61//61 31//31 54//54
f 61//61 46//46 73//73
f 61//61 70//70 31//31
f 62//62 59//59 81//81
f 62//62 65//65 63//63
f 62//62 81//81 22//22
f 63//63 59//59 62//62
f 63//63 64//64 71//71
f 63//63 71//71 59//59
f 64//64 63//63 65//65
f 65//65 14//14 64//64
f 65//65 62//62 8//8
f 67//67 6//6 68//68
f 67//67 31//31 71//71
f 67//67 68//68 31//31
f 68//68 66//66 32//32
f 68//68 88//88 66//66
f 70//70 59//59 71//71
f 70//70 61//61 72//72
f 70//70 71//71 31//31
f 71//71 64//64 69//69
f 71//71 69//69 67//67
f 72//72 73//73 58//58
f 72//72 81//81 59//59
f 73//73 72//72 61//61
f 73//73 74//74 60//60
f 74//74 73//73 46//46
f 74//74 75//75 39//39
f 75//75 74//74 48//48
f 76//76 20//20 79//79
f 77//77 87//87 34//34
f 78//78 79//79 20//20
f 79//79 49//49 87//87
f 79//79 78//78 84//84
f 79//79 87//87 76//76
f 80//80 56//56 49//49
f 80//80 83//83 51//51
f 81//81 72//72 24//24
f 82//82 16//16 83//83
f 82//82 84//84 16//16
f 83//83 80//80 82//82
f 83//83 85//85 51//51
f 84//84 82//82 79//79
f 86//86 29//29 76//76
f 86//86 33//33 27//27
f 86//86 76//76 87//87
f 87//87 77//77 86//86
