# These .obj files are copyright (c) 2002 Lucas Walter
# and are for distribution with the 'lwBVH' demo
# program only, and are not for commercial use.
#
# lucasw@u.washington.edu
# http://students.washington.edu
#
# Exported from Wings 3D 0.98
mtllib rightshoulder.mtl
o cube1_copy16
#145 vertices, 269 faces
v -6.20735e-3 -0.528000 -0.373739
v 7.57927e-2 0.220000 -0.251739
v 1.17927e-2 0.264000 0.00000e+0
v 0.123793 0.138000 0.246837
v -0.292207 9.40000e-2 -0.251739
v -0.424207 -0.482000 -0.275320
v -0.484678 -0.539845 0.114698
v -0.323671 -0.435030 0.254926
v -0.292207 7.20000e-2 0.264837
v -0.444207 0.138000 0.00000e+0
v -0.116248 -0.414989 -0.319178
v -0.132434 -0.464496 6.65118e-3
v -0.134430 -0.419985 0.268844
v -0.525728 -1.40041 -0.196719
v -0.292283 -1.52145 -0.184929
v -0.219961 -1.47747 3.65795e-4
v -0.321077 -1.63868 0.175911
v -0.437013 -1.63189 0.196911
v 4.57927e-2 -8.20000e-2 0.412837
v -0.237318 -0.365993 0.279840
v -1.93185e-2 -0.414993 0.328840
v -4.21622e-2 -0.117607 0.390237
v 0.145793 -8.20000e-2 -0.453739
v -0.245319 -0.385993 -0.324736
v -8.03806e-2 -0.365746 -0.325512
v -0.104244 -0.167921 -0.411182
v -0.622000 -0.962091 -2.57264e-2
v -0.480207 -0.997206 -0.323739
v -0.234774 -1.11573 -0.321115
v -0.154351 -1.16645 4.92675e-3
v -0.175431 -1.12386 0.298269
v -0.480207 -1.03721 0.322837
v -0.381530 -6.47822e-2 -0.340588
v -0.380812 -0.100716 0.324024
v -0.595806 -0.133003 1.08007e-4
v -9.95576e-2 -0.198834 0.377655
v -0.156821 -0.203376 -0.407861
v -7.62073e-2 0.195000 -0.251739
v -7.62073e-2 0.173000 0.186837
v -0.146207 0.279000 0.00000e+0
v 5.51485e-3 -4.49981e-2 0.388088
v 2.15149e-2 -8.69981e-2 -0.431488
v -0.575626 -0.667768 -3.25769e-2
v -0.452207 -0.650603 -0.311530
v -0.162430 -0.621592 0.293844
v -0.450918 -0.602385 0.259925
v -0.154415 -0.681155 5.41738e-3
v -0.123432 -0.456241 -0.185541
v -0.389337 -1.48950 -0.257174
v -0.196067 -1.45441 -0.132367
v -0.335319 -1.07820 -0.372736
v -0.151432 -1.14383 -0.185541
v -0.197511 -0.652358 -0.294146
v -0.307319 -0.611097 -0.346736
v -0.137432 -0.687033 -0.185541
v 4.37927e-2 0.231000 0.132418
v -0.538220 -1.03873 0.139029
v -0.490452 -0.628110 0.138923
v -0.391851 -1.65041 0.173621
v -0.335319 -1.07820 0.369840
v -0.241319 -0.574097 0.335736
v 4.12871e-2 0.255281 -0.129522
v -0.511626 -0.539794 -0.120919
v -0.482689 -0.521206 0.176412
v -0.376981 0.113163 0.139656
v -0.376078 0.125702 -0.132188
v -0.516715 -0.109566 0.170713
v -0.517379 -9.10967e-2 -0.177410
v -0.113710 0.250058 -0.130254
v 0.103981 0.133166 -0.367302
v -0.172707 -1.48557e-2 -0.386247
v -0.273129 -0.126649 -0.397108
v -3.66979e-2 8.05533e-2 -0.403600
v 8.98869e-2 0.176583 -0.318520
v 0.124887 2.55829e-2 -0.448520
v 8.47927e-2 8.20000e-2 0.280837
v -3.53462e-2 0.100001 0.248462
v -0.615213 -1.24518 2.15511e-4
v -0.530795 -1.26981 -0.269229
v -0.257623 -1.30663 -0.265177
v -0.369390 -1.29031 -0.318036
v -0.149561 -1.32312 -0.137954
v -0.502968 -1.40781 0.276537
v -0.363585 -1.43431 0.323730
v -0.568968 -0.993846 -0.210002
v -0.563033 -0.664434 -0.215534
v -0.580124 -1.18281 -0.150346
v -0.576111 -0.848634 -0.217072
v -0.606794 -0.825122 -2.88163e-2
v -0.466207 -0.843904 -0.317634
v -0.555040 -1.52141 0.116655
v -0.562124 -1.26931 0.130537
v -0.581816 -1.45711 -2.19583e-3
v -0.224202 -1.36280 0.252924
v -0.240067 -1.55641 0.115111
v -0.151432 -1.14383 0.142747
v -0.137432 -0.651533 0.150247
v -0.187156 -1.29296 2.64627e-3
v -0.195750 -1.33212 0.128929
v -0.163987 -0.871281 0.296363
v -0.462965 -0.802272 0.297230
v -0.138390 -0.924028 4.72712e-3
v -0.511514 -0.831709 0.146028
v -0.287787 -0.825511 0.358766
v -0.128495 -0.898166 0.147826
v -0.428819 -0.311013 -0.345342
v -0.582007 -0.352502 -1.69460e-2
v -0.402510 -0.296358 0.291221
v -0.569363 -0.317879 -0.172886
v -0.524702 -0.315386 0.173563
v -0.571669 -0.979020 -8.85218e-2
v -0.561621 -0.674867 -9.08501e-2
v -0.570254 -1.27036 -4.76285e-2
v -0.579554 -0.837307 -9.24407e-2
v -0.546509 -0.550367 -3.98406e-3
v -0.531449 -0.548916 -5.87129e-2
v -0.602654 -0.998425 8.34505e-2
v -0.537600 -0.651168 8.12054e-2
v -0.618349 -1.24911 8.75499e-2
v -0.580394 -0.824367 8.70443e-2
v -0.563965 -1.49998 7.70380e-2
v -0.572890 -1.47854 3.74211e-2
v -0.590759 -1.35571 -2.65505e-2
v -0.552715 -1.32736 -0.123812
v -0.590230 -1.30501 -3.87278e-2
v -0.304821 -0.587631 0.316695
v -0.354964 -0.817658 0.320117
v -0.364129 -0.601574 0.273027
v -0.407130 -0.481447 0.199948
v -0.455568 -0.495904 0.196913
v -0.522428 -1.03692 0.235435
v -0.486263 -0.614670 0.202787
v -0.545396 -1.33939 0.209030
v -0.500789 -0.815613 0.224870
v -0.404579 -1.05783 0.336860
v -0.428999 -1.41908 0.291314
v -0.321376 -0.821584 0.339441
v -0.201666 6.06896e-3 0.339002
v -0.257039 -0.131318 0.378212
v -1.61065e-2 3.46273e-2 0.327857
v -0.157438 -0.300413 0.328748
v -0.290110 -0.289189 0.322775
v -0.203898 -0.301471 -0.389144
v -0.147874 -0.334989 0.274342
v -0.496026 -1.57665 0.156783
vn 0.00000e+0 0.00000e+0 -1.00000
vn 0.359551 0.879288 -0.312370
vn 0.753678 0.655319 5.02630e-2
vn -2.10992e-2 0.642642 0.765876
vn -0.384234 0.693881 -0.609011
vn -0.577571 -5.83974e-2 -0.814249
vn -0.944550 -2.40079e-3 0.328358
vn -0.386995 -3.00961e-2 0.921591
vn -0.263057 0.670069 0.694124
vn -0.725553 0.687720 2.48022e-2
vn 0.488491 -0.484800 -0.725497
vn 0.978496 -0.206097 8.33375e-3
vn 0.768743 -2.52019e-2 0.639061
vn -0.738792 -0.134453 -0.660386
vn 0.140720 -0.189472 -0.971750
vn 0.988664 -8.91533e-2 -0.120808
vn 0.304169 -0.523778 0.795699
vn -0.585493 -0.377844 0.717239
vn -0.131823 0.447967 0.884278
vn 3.43757e-2 -0.248877 0.967925
vn -0.299029 -0.427189 0.853283
vn 0.257958 9.02511e-2 0.961932
vn 0.999615 2.72728e-2 -5.05919e-3
vn -3.47515e-2 -0.262624 -0.964272
vn 0.777368 -0.469134 -0.419061
vn -7.46415e-3 -0.109059 -0.994007
vn -0.981861 3.27565e-2 -0.186752
vn -0.666154 -1.62137e-2 -0.745638
vn 0.650848 -0.157556 -0.742679
vn 0.989961 -0.124074 6.76996e-2
vn 0.827127 -0.140224 0.544241
vn -0.650492 5.58692e-2 0.757456
vn -0.529635 0.414158 -0.740243
vn -0.518389 0.225992 0.824742
vn -0.980505 0.187377 5.91601e-2
vn -9.70732e-2 -0.246767 0.964201
vn 6.49695e-2 -0.199627 -0.977716
vn -0.242049 0.800553 -0.548204
vn -0.136095 0.799228 0.585417
vn -0.237371 0.965526 0.106842
vn -0.196269 0.493690 0.847201
vn -0.210979 -1.88874e-2 -0.977308
vn -0.972203 0.234082 5.16431e-3
vn -0.568677 0.268041 -0.777663
vn 0.744866 -1.64754e-2 0.667010
vn -0.535664 0.327515 0.778330
vn 0.999673 -6.57265e-3 -2.47087e-2
vn 0.945205 -0.299786 -0.129289
vn -0.157728 -0.173650 -0.972094
vn 0.841654 -0.268655 -0.468447
vn 6.74050e-4 -6.49574e-2 -0.997888
vn 0.947930 -9.28362e-2 -0.304647
vn 0.645659 -8.39526e-2 -0.758997
vn -5.52129e-2 9.77681e-2 -0.993676
vn 0.979468 -3.67760e-2 -0.198216
vn 0.642078 0.766573 1.00765e-2
vn -0.818554 7.64472e-2 0.569320
vn -0.964269 0.106745 0.242470
vn -0.377589 -0.524795 0.762900
vn -1.32716e-2 -4.88611e-2 0.998717
vn 1.77231e-2 0.179941 0.983518
vn 0.833252 0.537236 0.130649
vn -0.932335 0.115126 -0.342779
vn -0.924961 5.67986e-2 0.375794
vn -0.502162 0.700274 0.507395
vn -0.537391 0.725713 -0.429595
vn -0.796291 0.265868 0.543356
vn -0.804781 0.359719 -0.472154
vn -0.194122 0.922419 -0.333855
vn 0.660899 0.587894 -0.466469
vn -0.272401 0.367952 -0.889050
vn -0.198599 6.27050e-2 -0.978073
vn -0.218773 0.515455 -0.828519
vn 0.687988 0.651033 -0.320670
vn 0.185075 0.299714 -0.935905
vn 0.637127 0.378650 0.671337
vn -7.65998e-2 0.680985 0.728280
vn -0.953763 -4.82351e-2 -0.296663
vn -0.716365 -0.201468 -0.668006
vn 0.598767 -0.298446 -0.743241
vn -5.24181e-3 -0.318285 -0.947981
vn 0.963535 -0.220923 -0.150976
vn -0.584813 -0.236868 0.775814
vn 7.21368e-2 -0.398176 0.914468
vn -0.941143 -5.63703e-2 -0.333276
vn -0.895863 0.241901 -0.372711
vn -0.972590 -7.40421e-2 -0.220424
vn -0.922058 7.42072e-3 -0.386981
vn -0.980911 0.143281 -0.131470
vn -0.483024 6.83100e-2 -0.872938
vn -0.987083 -2.89953e-3 0.160186
vn -0.910344 -1.15336e-2 0.413691
vn 5.31803e-3 -0.879013 -0.476767
vn 0.789816 -0.290727 0.540064
vn 0.966132 -0.228166 0.120538
vn 0.982825 -0.172509 6.55363e-2
vn 0.997527 -2.76691e-2 6.46133e-2
vn 0.963692 -0.232539 0.131241
vn 0.975125 -0.208315 7.57432e-2
vn 0.784049 -1.14438e-2 0.620593
vn -0.583030 0.163792 0.795769
vn 0.999695 -2.05002e-2 -1.37843e-2
vn -0.859498 0.111781 0.498767
vn 1.40698e-2 6.51792e-2 0.997774
vn 0.997888 -1.57024e-2 6.30267e-2
vn -0.483993 -0.142850 -0.863333
vn -0.984138 -0.172612 4.09451e-2
vn -0.504430 -0.214968 0.836265
vn -0.902749 -0.100264 -0.418320
vn -0.788200 -0.108887 0.605710
vn -0.959092 -4.21497e-2 -0.279939
vn -0.956141 0.224600 -0.188014
vn -0.917268 5.78907e-2 -0.394040
vn -0.966365 4.48485e-2 -0.253234
vn -0.985217 9.11102e-2 0.145071
vn -0.955544 0.103518 -0.276081
vn -0.875819 6.27068e-2 0.478549
vn -0.843857 0.200415 0.497734
vn -0.896050 -7.85315e-2 0.436953
vn -0.890345 0.159523 0.426425
vn -0.984566 -1.96776e-2 0.173902
vn -0.984938 -5.77582e-2 -0.162977
vn -0.872691 7.29275e-2 -0.482796
vn -0.966148 -5.68267e-2 -0.251653
vn -0.817797 0.156891 -0.553708
vn -0.478116 0.181073 0.859429
vn -0.355557 0.143676 0.923546
vn -0.398409 0.256121 0.880723
vn -0.369829 0.102369 0.923443
vn -0.423546 0.216763 0.879558
vn -0.961535 8.56911e-2 0.260975
vn -0.942037 0.114831 0.315247
vn -0.911822 -8.84638e-2 0.400942
vn -0.956960 0.105170 0.270495
vn -0.321282 1.52465e-2 0.946861
vn -0.373094 -0.202689 0.905383
vn -0.465615 0.130951 0.875245
vn -0.141792 0.514992 0.845386
vn -0.188493 -5.99366e-2 0.980244
vn -0.132064 0.610776 0.780712
vn -0.153774 -0.545873 0.823636
vn -0.168423 -0.341035 0.924840
vn 2.47680e-3 -0.348333 -0.937368
vn -0.201711 -0.506781 0.838144
vn -0.936138 -0.176698 0.304012
g cube1_copy16_default
usemtl default
f 1//1 23//23 25//25
f 2//2 38//38 62//62
f 2//2 62//62 74//74
f 2//2 74//74 38//38
f 4//4 56//56 39//39
f 4//4 76//76 56//56
f 5//5 33//33 66//66
f 5//5 38//38 71//71
f 5//5 71//71 33//33
f 6//6 44//44 63//63
f 6//6 106//106 24//24
f 7//7 58//58 64//64
f 7//7 64//64 110//110
f 7//7 107//107 115//115
f 8//8 20//20 142//142
f 9//9 34//34 138//138
f 9//9 39//39 65//65
f 9//9 65//65 34//34
f 9//9 138//138 77//77
f 10//10 40//40 66//66
f 10//10 65//65 40//40
f 11//11 25//25 48//48
f 11//11 48//48 53//53
f 11//11 53//53 24//24
f 11//11 143//143 25//25
f 12//12 3//3 76//76
f 12//12 22//22 13//13
f 12//12 25//25 3//3
f 12//12 48//48 25//25
f 12//12 76//76 22//22
f 13//13 21//21 144//144
f 13//13 97//97 12//12
f 14//14 124//124 79//79
f 15//15 49//49 80//80
f 15//15 80//80 50//50
f 16//16 50//50 98//98
f 17//17 95//95 94//94
f 18//18 83//83 145//145
f 19//19 41//41 22//22 76//76
f 19//19 76//76 41//41
f 20//20 8//8 61//61
f 20//20 61//61 13//13
f 20//20 144//144 141//141
f 21//21 13//13 22//22
f 22//22 36//36 21//21
f 23//23 1//1 25//25 42//42
f 23//23 42//42 75//75
f 23//23 74//74 62//62
f 24//24 54//54 6//6
f 24//24 143//143 11//11
f 25//25 23//23 62//62
f 26//26 25//25 37//37
f 26//26 42//42 25//25
f 26//26 71//71 42//42
f 27//27 78//78 117//117
f 27//27 111//111 78//78
f 28//28 51//51 79//79
f 28//28 90//90 51//51
f 29//29 51//51 53//53
f 29//29 52//52 80//80
f 30//30 52//52 102//102
f 30//30 96//96 98//98
f 30//30 98//98 82//82
f 30//30 102//102 96//96
f 31//31 60//60 94//94
f 31//31 94//94 96//96
f 31//31 100//100 60//60
f 32//32 83//83 135//135
f 33//33 72//72 106//106
f 33//33 106//106 68//68
f 34//34 67//67 108//108
f 35//35 10//10 68//68
f 35//35 67//67 10//10
f 36//36 22//22 139//139
f 36//36 139//139 141//141
f 37//37 25//25 143//143
f 37//37 72//72 26//26
f 37//37 143//143 72//72
f 38//38 5//5 69//69
f 38//38 74//74 73//73
f 39//39 9//9 77//77
f 39//39 77//77 4//4
f 40//40 3//3 69//69
f 40//40 39//39 3//3
f 40//40 65//65 39//39
f 41//41 76//76 140//140
f 41//41 140//140 22//22
f 42//42 73//73 75//75
f 43//43 112//112 89//89
f 43//43 118//118 115//115
f 44//44 6//6 54//54
f 44//44 54//54 90//90
f 44//44 90//90 86//86
f 45//45 13//13 61//61
f 45//45 97//97 13//13
f 45//45 100//100 97//97
f 46//46 101//101 128//128
f 46//46 132//132 101//101
f 47//47 12//12 97//97
f 47//47 55//55 12//12
f 47//47 102//102 55//55
f 48//48 12//12 55//55
f 49//49 14//14 81//81
f 51//51 29//29 81//81
f 51//51 90//90 54//54
f 52//52 29//29 55//55
f 52//52 30//30 82//82
f 53//53 55//55 29//29
f 54//54 24//24 53//53
f 54//54 53//53 51//51
f 55//55 53//53 48//48
f 55//55 102//102 52//52
f 56//56 3//3 39//39
f 56//56 76//76 3//3
f 57//57 92//92 131//131
f 57//57 103//103 117//117
f 57//57 131//131 103//103
f 58//58 7//7 118//118
f 58//58 118//118 103//103
f 59//59 17//17 84//84
f 59//59 84//84 18//18
f 60//60 137//137 135//135
f 61//61 104//104 45//45
f 61//61 126//126 104//104
f 62//62 3//3 25//25
f 62//62 69//69 3//3
f 63//63 109//109 6//6
f 64//64 130//130 110//110
f 65//65 10//10 67//67
f 66//66 68//68 10//10
f 66//66 69//69 5//5
f 67//67 34//34 65//65
f 67//67 35//35 110//110
f 68//68 66//66 33//33
f 68//68 109//109 35//35
f 69//69 62//62 38//38
f 69//69 66//66 40//40
f 70//70 73//73 74//74
f 70//70 75//75 73//73
f 71//71 26//26 72//72
f 72//72 33//33 71//71
f 73//73 42//42 71//71
f 73//73 71//71 38//38
f 74//74 23//23 70//70
f 75//75 70//70 23//23
f 76//76 4//4 77//77
f 77//77 140//140 76//76
f 78//78 122//122 119//119
f 79//79 81//81 14//14
f 79//79 87//87 28//28
f 80//80 81//81 29//29
f 81//81 79//79 51//51
f 81//81 80//80 49//49
f 82//82 50//50 80//80
f 82//82 80//80 52//52
f 82//82 98//98 50//50
f 83//83 18//18 136//136
f 83//83 32//32 133//133
f 84//84 60//60 136//136
f 84//84 94//94 60//60
f 84//84 136//136 18//18
f 85//85 28//28 87//87
f 85//85 87//87 111//111
f 85//85 88//88 28//28
f 85//85 111//111 88//88
f 86//86 63//63 44//44
f 86//86 112//112 63//63
f 87//87 79//79 124//124
f 88//88 86//86 90//90
f 88//88 114//114 86//86
f 89//89 27//27 120//120
f 89//89 114//114 27//27
f 89//89 120//120 43//43
f 90//90 28//28 88//88
f 91//91 92//92 121//121
f 92//92 57//57 119//119
f 92//92 91//91 133//133
f 93//93 122//122 78//78 123//123
f 93//93 123//123 122//122
f 94//94 84//84 17//17
f 95//95 16//16 99//99
f 96//96 105//105 31//31
f 97//97 105//105 47//47
f 98//98 99//99 16//16
f 99//99 94//94 95//95
f 99//99 96//96 94//94
f 99//99 98//98 96//96
f 100//100 31//31 105//105
f 100//100 45//45 104//104
f 101//101 32//32 127//127
f 101//101 134//134 32//32
f 102//102 47//47 105//105
f 103//103 134//134 58//58
f 104//104 60//60 100//100
f 104//104 137//137 60//60
f 105//105 96//96 102//102
f 105//105 97//97 100//100
f 106//106 6//6 109//109
f 106//106 72//72 143//143
f 107//107 35//35 109//109
f 107//107 110//110 35//35
f 108//108 110//110 129//129
f 108//108 142//142 34//34
f 109//109 63//63 107//107
f 109//109 68//68 106//106
f 110//110 107//107 7//7
f 110//110 108//108 67//67
f 111//111 27//27 114//114
f 111//111 87//87 113//113
f 112//112 43//43 116//116
f 112//112 86//86 114//114
f 113//113 78//78 111//111
f 113//113 125//125 78//78
f 114//114 88//88 111//111
f 114//114 89//89 112//112
f 115//115 116//116 43//43
f 115//115 118//118 7//7
f 116//116 63//63 112//112
f 116//116 107//107 63//63
f 116//116 115//115 107//107
f 117//117 119//119 57//57
f 117//117 120//120 27//27
f 118//118 43//43 120//120
f 119//119 117//117 78//78
f 119//119 121//121 92//92
f 120//120 103//103 118//118
f 120//120 117//117 103//103
f 121//121 119//119 122//122
f 124//124 113//113 87//87
f 125//125 113//113 124//124 14//14 49//49 15//15 50//50 16//16 95//95 17//17 59//59 18//18 145//145 91//91 121//121 122//122 123//123
f 125//125 123//123 78//78
f 126//126 8//8 128//128
f 126//126 61//61 8//8
f 127//127 128//128 101//101
f 127//127 135//135 137//137
f 128//128 127//127 126//126
f 128//128 129//129 46//46
f 129//129 8//8 108//108
f 129//129 110//110 130//130
f 129//129 128//128 8//8
f 130//130 46//46 129//129
f 130//130 64//64 46//46
f 131//131 32//32 134//134
f 131//131 133//133 32//32
f 132//132 46//46 64//64
f 132//132 58//58 134//134
f 132//132 64//64 58//58
f 133//133 131//131 92//92
f 133//133 145//145 83//83
f 134//134 101//101 132//132
f 134//134 103//103 131//131
f 135//135 127//127 32//32
f 135//135 136//136 60//60
f 136//136 135//135 83//83
f 137//137 104//104 126//126
f 137//137 126//126 127//127
f 138//138 22//22 140//140
f 138//138 139//139 22//22
f 139//139 34//34 142//142
f 139//139 138//138 34//34
f 140//140 77//77 138//138
f 141//141 21//21 36//36
f 141//141 142//142 20//20
f 141//141 144//144 21//21
f 142//142 108//108 8//8
f 142//142 141//141 139//139
f 143//143 24//24 106//106
f 144//144 20//20 13//13
f 145//145 133//133 91//91
