/* XPM */
static char *magic[] = {
/* width height num_colors chars_per_pixel */
"    20    20        3            1",
/* colors */
". c #000000",
"  c None",
"* c #ffffff",
/* pixels */
"                    ",
"                    ",
"  *    *            ",
"   *                ",
"                    ",
"                    ",
"      *             ",
"  *    *            ",
"        ..          ",
"        .*.         ",
"         .**        ",
"          **.       ",
"           .**      ",
"            **.     ",
"             .*.    ",
"              ..    ",
"                    ",
"                    ",
"                    ",
"                    "
};
